<svg width="21" height="20" viewBox="0 0 21 20" fill="none" xmlns="http://www.w3.org/2000/svg">
<path d="M20.6289 17.2222C20.6289 18.7567 19.3856 20 17.8511 20H3.40668C1.8728 20 0.628906 18.7567 0.628906 17.2222V2.77778C0.628906 1.24333 1.8728 0 3.40668 0H17.8511C19.3856 0 20.6289 1.24333 20.6289 2.77778V17.2222Z" fill="#0078D4"/>
<path opacity="0.05" d="M13.9628 17.2218V11.6112C13.9628 10.6729 13.5078 10.1123 12.745 10.1123C12.2922 10.1123 11.9594 10.3673 11.7567 10.8701C11.7472 10.9057 11.7339 11.0507 11.7394 11.489L11.7406 17.2218H7.85167V6.66623H11.7406V7.25568C12.3083 6.86401 13.0044 6.66623 13.8172 6.66623C16.3433 6.66623 17.8511 8.38457 17.8511 11.2629L17.8517 17.2218H13.9628ZM3.40723 17.2218V6.66623H5.32778C4.215 6.66623 3.40723 5.84845 3.40723 4.72123C3.40723 3.59512 4.22834 2.77734 5.35945 2.77734C6.47723 2.77734 7.27334 3.57234 7.29612 4.71012C7.29612 5.84568 6.47445 6.66623 5.34334 6.66623H7.29612V17.2218H3.40723Z" fill="black"/>
<path opacity="0.07" d="M14.2401 16.9446V11.6118C14.2401 10.5157 13.6673 9.83511 12.7446 9.83511C12.0251 9.83511 11.6696 10.3418 11.4985 10.7668C11.4529 10.8773 11.459 11.3162 11.4612 11.5034L11.4623 16.9446H8.12901V6.94455H11.4623V7.85455C11.904 7.39733 12.6151 6.94455 13.8168 6.94455C16.1685 6.94455 17.5729 8.559 17.5729 11.2634L17.5735 16.9446H14.2401ZM3.68457 16.9446V6.94455H7.0179V16.9446H3.68457ZM5.32735 6.389C4.37568 6.389 3.68457 5.68789 3.68457 4.72177C3.68457 3.75622 4.38901 3.05566 5.35901 3.05566C6.31679 3.05566 6.99846 3.73844 7.0179 4.71622C7.0179 5.68789 6.31346 6.389 5.3429 6.389H5.32735Z" fill="black"/>
<path d="M3.96191 7.2219H6.73969V16.6663H3.96191V7.2219ZM5.34247 6.11079H5.32691C4.49803 6.11079 3.96191 5.49301 3.96191 4.72134C3.96191 3.93301 4.51469 3.33301 5.35858 3.33301C6.20358 3.33301 6.72414 3.93301 6.73969 4.72134C6.73969 5.49245 6.20358 6.11079 5.34247 6.11079ZM17.2952 16.6663H14.5175V11.6113C14.5175 10.3902 13.8369 9.5569 12.7441 9.5569C11.9102 9.5569 11.4591 10.1191 11.2402 10.6625C11.1602 10.8569 11.1841 11.3947 11.1841 11.6663V16.6663H8.40636V7.2219H11.1841V8.67523C11.5847 8.05523 12.2119 7.2219 13.8164 7.2219C15.8041 7.2219 17.2947 8.4719 17.2947 11.263L17.2952 16.6663Z" fill="white"/>
</svg>
