<svg width="33" height="33" viewBox="0 0 33 33" fill="none" xmlns="http://www.w3.org/2000/svg">
<path d="M14.9518 4.20605C12.6599 4.20605 10.4033 4.7713 8.38201 5.85171C6.3607 6.93213 4.63703 8.49437 3.36369 10.4001C2.09036 12.3057 1.30665 14.496 1.082 16.7769C0.857353 19.0579 1.19869 21.359 2.07578 23.4764C2.95287 25.5939 4.33864 27.4624 6.11033 28.9164C7.88203 30.3704 9.98497 31.365 12.2329 31.8122C14.4808 32.2593 16.8043 32.1452 18.9975 31.4798C21.1908 30.8145 23.1861 29.6186 24.8068 27.9979L19.5008 22.6919C18.7527 23.44 17.8317 23.992 16.8193 24.2991C15.8069 24.6062 14.7344 24.6589 13.6968 24.4525C12.6592 24.2461 11.6885 23.787 10.8707 23.1159C10.0529 22.4447 9.41326 21.5823 9.0084 20.6049C8.60355 19.6275 8.44599 18.5653 8.54969 17.5124C8.65338 16.4596 9.01513 15.4486 9.60289 14.5689C10.1906 13.6893 10.9863 12.9682 11.9193 12.4695C12.8523 11.9708 13.8939 11.7099 14.9518 11.7099L14.9518 4.20605Z" stroke="#2E2D2C" stroke-width="1.5"/>
<path d="M31.3127 15.2348C31.3127 11.7242 29.9879 8.34284 27.6029 5.76669C25.2179 3.19054 21.9486 1.60936 18.4484 1.33918L17.8709 8.82075C19.4865 8.94545 20.9956 9.67531 22.0965 10.8644C23.1974 12.0536 23.8089 13.6143 23.8089 15.2348L31.3127 15.2348Z" stroke="#2E2D2C" stroke-width="1.5"/>
<path d="M28.8786 26.6776C30.7424 24.2713 31.7673 21.3211 31.7967 18.2775L24.2932 18.2051C24.2797 19.61 23.8066 20.9718 22.9463 22.0825L28.8786 26.6776Z" stroke="#2E2D2C" stroke-width="1.5"/>
</svg>
