<svg width="660" height="139" viewBox="0 0 660 139" fill="none" xmlns="http://www.w3.org/2000/svg">
<path d="M349.342 49.5412C350.444 46.1822 351.683 42.9102 353.061 39.7253C354.415 36.5599 355.949 33.4873 357.591 30.566C359.257 27.6251 361.055 24.816 363.051 22.1249C365.023 19.4533 367.176 16.8744 369.496 14.4778C371.816 12.0811 374.311 9.82197 376.997 7.7255C379.684 5.62903 382.563 3.69525 385.651 1.94938C388.74 0.203515 392.021 -1.37964 395.53 -2.74968C399.039 -4.11972 403.949 -5.71 409.593 -7.17818C415.237 -8.64636 420.796 -9.80712 426.312 -10.6547C431.829 -11.5023 437.26 -12.0425 442.649 -12.2696C448.02 -12.5218 453.348 -12.4609 458.621 -12.1569C463.87 -11.8333 469.083 -11.2413 474.223 -10.4313C479.381 -9.59617 484.46 -8.49832 489.49 -7.202C494.521 -5.90567 499.515 -4.34094 504.443 -2.60297C508.673 -1.0961 512.837 0.584012 517.007 2.37881C516.29 5.74437 515.549 9.12945 514.838 12.4503C514.784 12.6935 514.729 12.9366 514.65 13.1993C514.632 13.1741 514.572 13.1432 514.53 13.1375C509.573 11.145 504.592 9.33133 499.562 7.71618C494.532 6.10102 489.429 4.70388 484.296 3.53036C479.163 2.35685 473.975 1.42647 468.732 0.739318C463.49 0.0521725 458.193 -0.391782 452.835 -0.547823C447.477 -0.703873 442.065 -0.616728 436.61 -0.216458C431.154 0.18382 425.614 0.891542 420.013 1.88717C414.431 2.90801 408.787 4.21678 403.07 5.90293C397.336 7.56387 393.839 8.84443 390.354 10.3544C386.845 11.8838 383.522 13.6207 380.391 15.5203C377.277 17.4451 374.38 19.5131 371.676 21.7437C368.971 23.9744 366.458 26.3678 364.161 28.9044C361.841 31.4604 359.7 34.1092 357.728 36.9402C355.755 39.7712 353.963 42.695 352.303 45.7506C350.691 48.7671 349.211 51.9154 347.869 55.1507C347.845 55.1702 347.814 55.2345 347.808 55.2792C347.651 55.6452 347.506 56.0811 347.349 56.4471C347.603 55.5248 347.864 54.5578 348.143 53.6159C348.542 52.2577 348.942 50.8994 349.384 49.5469" fill="#009888"/>
<path d="M336.706 284.269C337.042 281.968 337.651 275.467 337.926 273.135C339.176 262.574 339.306 255.029 339.812 243.001C339.958 239.422 339.708 235.766 339.595 232.037C339.483 228.309 339.335 224.53 339.156 220.656C338.996 216.807 338.782 212.883 338.568 208.958C338.36 204.989 338.134 200.995 337.89 196.975C337.67 192.936 337.432 188.872 337.2 184.763C336.986 180.679 336.778 176.55 336.553 172.396C336.345 168.268 336.161 164.12 336.02 159.977C335.86 155.809 335.743 151.648 335.661 147.536C335.585 144.017 335.574 140.485 335.564 136.953C337.2 136.741 338.878 136.536 340.538 136.305C340.582 138.338 340.608 140.347 340.676 142.361C340.799 146.478 340.989 150.581 341.155 154.704C341.344 158.807 341.558 162.891 341.772 166.975C341.986 171.059 342.206 175.098 342.45 179.118C342.694 183.137 342.92 187.132 343.128 191.101C343.36 195.051 343.574 198.975 343.735 202.824C343.913 206.698 344.079 210.502 344.234 214.236C344.364 217.99 344.482 221.673 344.523 225.301C344.587 228.909 344.616 232.467 344.572 235.923C344.547 239.405 344.955 242.376 344.828 245.662C344.701 248.948 344.676 252.111 344.423 255.221C344.101 259.46 344.002 263.798 343.923 266.726C343.628 275.798 338.863 313.355 335.265 320.089C335.035 320.514 329.941 320.781 329.712 321.205C331.185 315.436 333.027 308.852 333.918 302.958C334.991 295.882 335.608 291.364 336.64 284.283" fill="#FFCC00"/>
<path d="M346.408 58.7143C346.583 58.3736 346.776 58.058 346.951 57.7172C347.15 57.357 347.349 56.9967 347.525 56.6559C348.696 54.5137 349.945 52.4276 351.296 50.3781C353.263 47.4324 355.386 44.599 357.701 41.9282C360.016 39.2575 362.529 36.7047 365.234 34.3147C367.939 31.9246 370.837 29.6971 373.968 27.6381C377.1 25.5791 380.465 23.6885 383.999 21.9801C387.526 20.3165 389.627 19.3709 395.41 17.5115C401.193 15.6521 406.927 14.1505 412.577 12.9565C418.226 11.7624 423.851 10.9067 429.373 10.3332C434.912 9.78487 440.415 9.50498 445.858 9.51301C451.3 9.52104 456.682 9.81699 462.009 10.3561C467.335 10.8952 472.626 11.7028 477.868 12.7088C483.085 13.7343 488.272 14.9834 493.429 16.4562C498.568 17.9039 503.676 19.5752 508.735 21.4449C509.817 21.842 510.934 22.2895 511.992 22.706C511.822 23.3209 511.652 23.9358 511.459 24.5702C510.835 26.7864 510.15 28.9718 509.49 31.1377C507.898 30.5576 506.306 29.9775 504.707 29.4421C499.587 27.7008 494.443 26.1385 489.274 24.7552C484.105 23.3718 478.864 22.2064 473.616 21.2451C468.344 20.3034 463.047 19.5406 457.69 19.0657C452.333 18.5908 446.945 18.3396 441.497 18.3763C436.049 18.413 430.545 18.6929 425.018 19.3112C419.472 19.9042 413.865 20.7852 408.192 21.9988C402.518 23.2123 396.802 24.7391 391.037 26.6237C385.254 28.4831 383.015 29.5011 379.391 31.2428C375.767 32.9845 372.263 34.9475 369.059 37.065C365.855 39.1826 362.844 41.4629 360.048 43.8863C357.271 46.3349 354.691 48.9015 352.304 51.6308C350.55 53.6485 348.91 55.7728 347.329 57.928C347.094 58.2378 346.877 58.5729 346.642 58.8828C346.431 59.1731 346.22 59.4634 346.009 59.7538C345.9 59.9213 345.797 60.0441 345.689 60.2117C345.635 60.2954 345.574 60.4239 345.52 60.5077C345.665 60.2311 345.792 59.9294 345.937 59.6529C346.106 59.3569 346.275 59.0608 346.444 58.7648" fill="#FFCC00"/>
<path d="M323.289 311.626C325.005 304.865 325.253 301.163 326.377 295.757C326.541 295.027 327.192 288.532 327.23 287.785C327.398 285.302 327.66 283.538 327.756 280.954C327.877 277.553 327.903 274.071 327.916 270.519C327.912 266.942 327.853 263.289 327.759 259.586C327.647 255.858 327.522 252.059 327.362 248.211C327.202 244.362 326.988 240.437 326.78 236.468C326.572 232.499 326.328 228.479 326.09 224.415C325.852 220.351 325.596 216.261 325.346 212.127C325.096 207.993 324.871 203.839 324.651 199.64C324.432 195.442 324.23 191.268 324.059 187.031C323.881 182.838 323.752 178.606 323.64 174.399C323.529 170.193 323.484 165.972 323.457 161.777C323.454 157.562 323.486 153.398 323.604 149.245C323.707 145.66 323.871 142.105 324.077 138.557C326.068 138.257 328.06 137.957 330.069 137.682C330.062 138.046 330.013 138.404 330.006 138.767C329.913 142.901 329.856 147.085 329.884 151.28C329.893 155.45 329.962 159.651 330.073 163.858C330.185 168.064 330.32 172.251 330.498 176.444C330.675 180.637 330.853 184.83 331.078 188.984C331.28 193.157 331.53 197.291 331.762 201.4C331.993 205.51 332.249 209.599 332.469 213.638C332.689 217.677 332.933 221.697 333.123 225.641C333.331 229.61 333.527 233.509 333.67 237.333C333.83 241.182 333.96 244.935 334.03 248.658C334.101 252.381 334.165 255.989 334.152 259.541C334.138 263.093 334.071 266.569 333.973 269.95C333.834 273.325 333.664 276.606 333.399 279.804C333.294 281.203 333.146 282.595 333.005 283.943C332.833 285.674 332.625 287.354 332.375 289.029C332.07 291.265 331.692 293.401 331.255 295.506C329.662 303.56 326.532 321.93 321.965 328.692C321.513 329.337 317.091 330.492 316.62 331.112C316.77 331.428 319.462 326.462 321.276 318.985C321.701 317.289 322.762 313.286 323.186 311.59" fill="#009888"/>
<path d="M307.6 338.97C308.363 336.841 309.053 334.61 309.653 332.254C309.847 331.46 310.023 330.641 310.193 329.867C310.637 327.877 311.038 325.881 311.385 323.809C311.635 322.294 311.843 320.773 312.056 319.208C312.24 317.706 312.406 316.179 312.571 314.653C312.799 312.201 312.979 309.628 313.117 307.05C313.154 306.303 313.21 305.582 313.248 304.835C313.387 301.46 313.455 297.983 313.492 294.412C313.493 294.093 313.5 293.729 313.482 293.385C313.495 290.152 313.454 286.844 313.377 283.485C313.289 279.737 313.141 275.958 312.986 272.064C312.808 268.19 312.618 264.246 312.392 260.252C312.166 256.257 311.904 252.213 311.648 248.123C311.392 244.033 311.124 239.874 310.857 235.714C310.589 231.555 310.333 227.306 310.096 223.082C309.84 218.833 309.609 214.565 309.419 210.302C309.212 206.014 309.047 201.732 308.905 197.43C308.764 193.128 308.665 188.832 308.632 184.522C308.575 180.231 308.602 175.952 308.671 171.679C308.741 167.406 308.87 163.163 309.101 158.957C309.333 154.752 309.648 150.557 310.024 146.394C310.215 144.529 310.423 142.689 310.631 140.849C312.941 140.41 315.288 140.022 317.634 139.633C317.313 143.235 317.053 146.867 316.877 150.511C316.67 154.697 316.522 158.914 316.459 163.143C316.372 167.391 316.369 171.651 316.408 175.916C316.447 180.181 316.546 184.477 316.693 188.734C316.817 193.011 317.006 197.274 317.196 201.537C317.385 205.799 317.622 210.023 317.86 214.247C318.098 218.471 318.341 222.65 318.609 226.809C318.877 230.969 319.127 235.103 319.365 239.167C319.603 243.232 319.865 247.277 320.073 251.246C320.281 255.215 320.453 259.134 320.613 262.983C320.773 266.831 320.879 270.604 320.95 274.327C321.02 278.05 321.042 281.652 321.029 285.204C321.006 287.411 320.947 289.567 320.889 291.723C320.862 293.018 320.817 294.288 320.748 295.577C320.597 298.723 320.374 301.768 320.103 304.693C320.073 304.916 320.066 305.121 320.06 305.325C319.759 308.473 319.343 311.515 318.862 314.411C318.765 314.968 318.643 315.543 318.546 316.1C318.102 318.409 317.664 320.673 317.094 322.806C316.821 323.862 316.506 324.913 316.191 325.964C315.725 327.495 315.241 329.002 314.678 330.452C314.177 331.773 313.645 333 313.071 334.221C312.588 335.249 312.086 336.251 311.567 337.229C310.402 339.326 309.105 341.292 307.658 343.101C306.645 344.399 305.5 345.565 304.319 346.681C305.442 344.578 306.451 342.368 307.334 339.982C307.443 339.655 307.551 339.328 307.66 339.001" fill="#FFCC00"/>
<path d="M344.634 62.3503C344.839 62.2641 345.049 62.1332 345.236 62.0218C345.489 61.8966 345.748 61.7266 346.001 61.6014C346.278 61.4566 346.573 61.3371 346.849 61.1924C348.668 60.2768 350.497 59.4312 352.345 58.6107C356.601 56.7951 362.005 54.8844 367.746 53.1787C373.487 51.473 379.202 50.1057 384.858 49.0263C390.513 47.9469 396.149 47.1612 401.749 46.6438C407.349 46.1264 412.912 45.8774 418.445 45.8521C423.977 45.8268 429.497 46.0504 434.969 46.4724C440.44 46.8945 445.929 47.5011 451.352 48.281C456.817 49.0666 462.239 50.0059 467.661 51.1046C473.083 52.2033 478.493 53.3915 483.926 54.7196C488.446 55.8329 492.96 56.9909 497.486 58.2188C496.75 59.2126 496.014 60.2064 495.242 61.1498C494.371 60.9407 493.499 60.7316 492.628 60.5224C487.17 59.2138 481.706 57.95 476.249 56.8009C470.773 55.6265 465.326 54.5472 459.886 53.5827C454.422 52.6377 448.945 51.7821 443.486 51.1112C438.009 50.4151 432.508 49.8979 427.024 49.5654C421.516 49.2523 416.008 49.0987 410.469 49.1687C404.931 49.2388 399.379 49.5577 393.791 50.145C388.186 50.7071 382.585 51.5433 376.924 52.6675C371.263 53.7916 365.583 55.2094 359.86 56.9403C355.142 58.3744 350.683 59.9574 346.849 61.5112C346.554 61.6308 346.259 61.7503 345.988 61.8503C345.717 61.9503 345.489 62.056 345.218 62.156C345.013 62.2422 344.808 62.3284 344.628 62.395C344.58 62.4341 344.489 62.4674 344.423 62.4812C344.375 62.5203 344.285 62.5536 344.219 62.5674L344.17 62.6064C344.17 62.6064 344.219 62.5674 344.243 62.5479C344.405 62.456 344.544 62.3837 344.682 62.3113" fill="#009888"/>
<path d="M687.211 85.3523C684.219 87.0201 681.311 88.5399 678.428 89.8808C675.586 91.2273 672.77 92.3949 669.995 93.4088C667.221 94.4227 664.507 95.3081 661.793 96.0341C659.079 96.76 656.408 97.3323 653.689 97.7842C652.437 98.002 651.15 98.1693 649.887 98.3172C648.474 98.4675 647.06 98.6178 645.635 98.6981C645.009 98.7273 644.384 98.7565 643.758 98.7857C641.689 98.87 639.602 98.9291 637.51 98.8736C637.401 98.8817 637.299 98.8451 637.191 98.8532C634.864 98.7886 632.507 98.6289 630.138 98.3992C629.819 98.3789 629.525 98.339 629.206 98.3186C627.03 98.0922 624.823 97.7707 622.599 97.4239C621.95 97.3132 621.276 97.222 620.627 97.1113C618.679 96.7792 616.678 96.3714 614.682 95.919C613.684 95.6927 612.705 95.4917 611.707 95.2655C609.964 94.8472 608.161 94.398 606.339 93.9235C605.017 93.5622 603.671 93.2205 602.331 92.834C600.804 92.3994 599.236 91.9592 597.673 91.4742C595.942 90.9665 594.193 90.4335 592.426 89.8753C591.195 89.4807 589.92 89.0803 588.671 88.6605C586.453 87.9501 584.242 87.1951 581.928 86.4034C578.304 85.1609 574.603 83.8623 570.763 82.4767C570.643 82.4149 570.499 82.3726 570.396 82.3359C571.761 82.7029 573.125 83.0699 574.453 83.3865C576.07 83.7877 577.627 84.158 579.184 84.5282C581.053 84.9636 582.922 85.399 584.714 85.7783C585.736 85.985 586.757 86.1917 587.737 86.3927C589.967 86.8542 592.186 87.2457 594.32 87.6258C594.927 87.7308 595.558 87.8163 596.147 87.8961C598.624 88.2771 601.041 88.6271 603.403 88.9015C603.698 88.9414 603.975 88.9561 604.269 88.996C606.909 89.285 609.518 89.479 612.032 89.5916C612.032 89.5916 612.032 89.5916 612.056 89.5721C614.569 89.6846 617.035 89.6768 619.464 89.6185C619.723 89.608 620.024 89.6032 620.282 89.5926C622.351 89.5083 624.408 89.354 626.429 89.1493C627.061 89.0754 627.686 89.0462 628.276 88.9666C629.846 88.7691 631.422 88.527 632.98 88.2596C634.033 88.0832 635.068 87.8816 636.126 87.6605C637.119 87.4533 638.118 87.2012 639.117 86.9492C640.735 86.5533 642.318 86.107 643.924 85.6412C646.518 84.8534 649.13 83.9314 651.76 82.8752C654.39 81.819 657.057 80.6538 659.766 79.3349C662.475 78.016 665.22 76.5881 668.05 75.0122C670.879 73.4363 673.77 71.7319 676.75 69.8347C679.725 67.9823 682.808 65.9623 685.994 63.8195C689.09 61.7101 692.312 59.4584 695.636 57.0838L705.921 73.2611C702.645 75.5966 699.459 77.7394 696.376 79.7593C693.226 81.7931 690.143 83.6536 687.151 85.3214" fill="#FFCC00"/>
<path d="M490.987 65.5229C491.156 65.3863 491.324 65.2497 491.493 65.1131C487.556 64.4432 483.642 63.7537 479.747 63.0895C474.198 62.1331 468.668 61.2019 463.155 60.2959C457.642 59.39 452.142 58.5539 446.671 57.8131C441.182 57.047 435.699 56.3956 430.24 55.8841C424.762 55.3474 419.285 54.9701 413.789 54.727C408.293 54.4839 402.814 54.4255 397.33 54.5712C391.845 54.7169 386.312 55.061 380.79 55.6345C375.268 56.2081 369.716 57.0052 364.145 58.096C358.574 59.1868 352.972 60.5012 347.346 62.154C347.124 62.215 346.877 62.2955 346.654 62.3565C346.341 62.4508 346.028 62.5451 345.74 62.6199C345.451 62.6947 345.18 62.7947 344.915 62.85C344.693 62.9109 344.446 62.9914 344.223 63.0524C344.043 63.1191 343.886 63.1662 343.688 63.2077C343.555 63.2353 343.441 63.2882 343.284 63.3353C343.194 63.3687 343.104 63.402 343.038 63.4158C342.947 63.4492 342.857 63.4825 342.767 63.5158C342.586 63.5825 342.364 63.6435 342.183 63.7102C341.979 63.7964 341.78 63.8378 341.575 63.924C341.172 64.0516 340.745 64.1988 340.342 64.3264C339.577 64.5874 338.813 64.8484 338.049 65.1094C339.301 64.5727 340.637 64.0475 342.015 63.5279C342.31 63.4084 342.605 63.2889 342.918 63.1946C343.008 63.1612 343.123 63.1084 343.213 63.0751C343.261 63.036 343.327 63.0222 343.393 63.0084C343.418 62.9888 343.466 62.9498 343.508 62.9555C343.532 62.936 343.556 62.9165 343.622 62.9027C343.737 62.8498 343.845 62.8417 343.959 62.7888C344.116 62.7417 344.272 62.6945 344.411 62.6222C344.615 62.536 344.838 62.475 345.042 62.3888C345.313 62.2888 345.56 62.2083 345.831 62.1083C346.126 61.9888 346.415 61.914 346.71 61.7945C348.328 61.2392 349.965 60.7091 351.644 60.1847C357.349 58.4286 363.035 56.9661 368.66 55.7915C374.303 54.6422 379.91 53.7612 385.504 53.1292C391.098 52.4971 396.655 52.1335 402.206 51.9739C407.757 51.8144 413.278 51.8786 418.792 52.1469C424.306 52.4152 429.801 52.8177 435.314 53.4049C440.81 53.9668 446.323 54.7134 451.799 55.5689C457.3 56.4049 462.782 57.3752 468.301 58.3958C473.795 59.436 479.307 60.5014 484.849 61.662C487.645 62.2227 490.458 62.8087 493.247 63.4142C493.018 63.6793 492.789 63.9444 492.559 64.2095C492.282 64.5137 492.023 64.8431 491.746 65.1472C491.601 65.2644 491.492 65.4319 491.366 65.5742L490.969 65.4977L490.987 65.5229Z" fill="#FFCC00"/>
<path d="M489.232 67.6762C489.052 67.5835 488.896 67.4713 488.715 67.3785C488.788 67.32 488.86 67.2614 488.908 67.2224C488.908 67.2224 488.932 67.2029 488.956 67.1833C487.219 67.0391 485.463 66.8698 483.665 66.6947C477.947 66.1937 472.284 65.6089 466.644 65.0047C461.005 64.4005 455.407 63.802 449.834 63.1839C444.279 62.5911 438.723 61.9982 433.198 61.5005C427.672 61.0029 422.165 60.5304 416.681 60.1978C411.179 59.8401 405.725 59.6027 400.253 59.4995C394.781 59.3963 389.315 59.4078 383.866 59.6039C378.393 59.8195 372.92 60.1946 367.482 60.7795C362.002 61.3587 356.51 62.1868 351.03 63.2443C349.489 63.5369 347.961 63.8994 346.415 64.2368C346.042 64.3001 345.687 64.3888 345.314 64.4522C344.983 64.5212 344.652 64.5904 344.297 64.679C344.008 64.7538 343.702 64.8033 343.371 64.8724C343.106 64.9277 342.841 64.983 342.577 65.0382C342.354 65.0992 342.107 65.1797 341.867 65.2155C341.578 65.2903 341.313 65.3455 341.042 65.4455C340.753 65.5203 340.465 65.5951 340.176 65.6699C339.821 65.7585 339.466 65.8471 339.087 65.9552C338.551 66.1105 338.022 66.2211 337.486 66.3763C336.752 66.5731 336.042 66.7503 335.332 66.9275C335.019 67.0218 334.73 67.0966 334.442 67.1714C333.683 67.3877 332.919 67.6487 332.179 67.8901C330.861 68.2812 329.519 68.6917 328.195 69.1275C326.246 69.7519 324.308 70.4463 322.346 71.1602C322.418 71.1016 322.55 71.074 322.641 71.0406C325.325 69.9007 328.509 68.7144 331.819 67.5452C333.035 67.1175 334.244 66.7346 335.478 66.3322C336.308 66.0574 337.115 65.8021 337.939 65.572C338.252 65.4777 338.589 65.3639 338.902 65.2696C339.149 65.1891 339.413 65.1338 339.702 65.059C340.105 64.9314 340.502 64.8484 340.905 64.7208C341.152 64.6403 341.417 64.5851 341.664 64.5046C341.844 64.4379 342.019 64.4159 342.199 64.3493C342.356 64.3021 342.512 64.255 342.711 64.2135C342.867 64.1664 343.066 64.1249 343.222 64.0778C343.445 64.0168 343.643 63.9753 343.866 63.9144C344.131 63.8591 344.401 63.7591 344.666 63.7038C344.979 63.6095 345.268 63.5347 345.581 63.4404C345.894 63.3461 346.249 63.2575 346.562 63.1632C349.606 62.3681 352.639 61.6625 355.701 61.0521C361.254 59.9361 366.794 59.0689 372.346 58.4312C377.856 57.7877 383.395 57.3988 388.868 57.1832C394.383 56.9733 399.85 56.9618 405.358 57.1154C410.848 57.2438 416.356 57.5568 421.852 57.9593C427.347 58.3618 432.867 58.9043 438.374 59.5361C443.905 60.1485 449.424 60.8503 455.003 61.5831C460.558 62.3353 466.131 63.1128 471.746 63.896C477.361 64.6792 482.976 65.4623 488.664 66.1869C489.085 66.2439 489.548 66.3066 489.992 66.3441C490.065 66.2856 490.161 66.2075 490.233 66.1489C490.287 66.2246 490.365 66.2807 490.45 66.2921L490.66 66.3206C490.66 66.3206 490.588 66.3791 490.54 66.4182C490.286 66.7028 489.991 66.9818 489.696 67.2607C489.599 67.3388 489.527 67.3973 489.449 67.5006C489.376 67.5592 489.28 67.6372 489.226 67.721C489.226 67.721 489.226 67.721 489.208 67.6958" fill="#009888"/>
<path d="M194.818 173.979C197.099 170.142 199.591 166.334 202.305 162.624C203.861 160.488 205.525 158.344 207.244 156.276C208.48 154.758 209.74 153.22 211.078 151.738C212.675 149.927 214.309 148.166 216.026 146.417C217.696 144.707 219.425 143.027 221.215 141.379C222.444 140.224 223.751 139.125 225.041 138.001C227.547 135.812 230.107 133.699 232.836 131.608C233.438 131.12 234.119 130.688 234.739 130.225C237.889 127.873 241.202 125.588 244.676 123.37C245.146 123.069 245.574 122.763 246.043 122.462C248.831 120.721 251.673 119.055 254.503 117.48C256.406 116.416 258.326 115.378 260.217 114.403C261.529 113.738 262.877 113.124 264.232 112.464C267.26 111.006 270.342 109.624 273.514 108.368C273.947 108.176 274.356 108.003 274.79 107.811C277.281 106.828 279.767 105.889 282.265 105.019C284.81 104.111 287.368 103.273 289.919 102.479C290.1 102.413 290.298 102.371 290.479 102.305C292.982 101.55 295.503 100.821 297.995 100.156C300.329 99.5381 302.64 98.9398 304.962 98.4114C304.962 98.4114 305.01 98.3724 305.052 98.3781C307.11 97.905 309.162 97.4766 311.237 97.0287C313.132 96.6475 315.003 96.2858 316.892 95.9493C318.011 95.7591 319.136 95.5242 320.255 95.334C320.827 95.2292 321.416 95.1496 321.964 95.0642C323.498 94.8164 325.05 94.5937 326.584 94.3458C327.961 94.1451 329.381 93.9501 330.777 93.7746C332.064 93.6072 333.333 93.4146 334.614 93.292C334.921 93.2424 335.246 93.218 335.553 93.1685C336.401 93.0783 337.273 92.9686 338.121 92.8784C339.21 92.7525 340.274 92.6461 341.363 92.5201C342.344 92.4023 343.342 92.3097 344.299 92.2114C346.536 91.9905 348.792 91.7948 351.047 91.5991C356.25 91.1646 361.489 90.7805 366.745 90.4217C372.02 90.0881 377.337 89.7602 382.696 89.438C388.054 89.1158 393.479 88.7798 398.953 88.4047C404.426 88.0297 409.971 87.5961 415.571 87.0787C421.171 86.5613 426.867 85.9659 432.606 85.2167C438.362 84.4928 444.179 83.6403 450.087 82.5951C455.995 81.5499 459.039 81.0737 463.004 79.9704C466.969 78.8673 470.689 77.5257 474.204 75.9515C477.719 74.3773 481.006 72.59 484.108 70.5952C485.071 69.974 485.981 69.2771 486.884 68.6249C487.005 68.5273 487.125 68.4297 487.288 68.3378C487.336 68.2988 487.384 68.2598 487.432 68.2207C487.601 68.0841 487.764 67.9922 487.932 67.8556C487.932 67.8556 487.968 67.906 487.986 67.9312C488.184 68.0492 488.383 68.1671 488.581 68.2851C488.581 68.2851 488.533 68.3241 488.508 68.3437C488.46 68.3827 488.436 68.4022 488.388 68.4413C486.634 70.1401 484.869 71.769 482.965 73.3109C480.05 75.6725 476.93 77.8014 473.607 79.6977C470.283 81.594 466.731 83.2772 462.976 84.7278C459.202 86.1531 455.225 87.3457 450.965 88.2496C446.705 89.1535 440.28 90.3792 434.487 91.3715C428.694 92.3639 422.967 93.183 417.343 93.8793C411.694 94.5952 406.125 95.2077 400.651 95.7422C395.135 96.271 389.71 96.7664 384.339 97.1781C378.944 97.6093 373.639 98.0071 368.376 98.4107C363.113 98.8143 357.892 99.2235 352.708 99.6832C349.821 99.9528 346.933 100.222 344.064 100.517C342.934 100.638 341.845 100.764 340.714 100.884C339.583 101.004 338.41 101.119 337.279 101.239C337.213 101.253 337.105 101.261 337.039 101.275C335.667 101.43 334.338 101.592 332.985 101.773C331.523 101.963 330.043 102.127 328.557 102.336C326.939 102.572 325.345 102.789 323.727 103.026C323.179 103.111 322.614 103.171 322.067 103.256C320.864 103.435 319.654 103.659 318.445 103.882C316.514 104.213 314.583 104.544 312.67 104.9C310.799 105.261 308.91 105.598 307.033 106.004C306.81 106.065 306.587 106.126 306.371 106.142C304.055 106.626 301.774 107.16 299.494 107.694C297.033 108.295 294.566 108.941 292.093 109.631C292.069 109.65 292.003 109.664 291.961 109.658C289.265 110.41 286.581 111.231 283.891 112.097C281.653 112.796 279.426 113.565 277.217 114.359C276.585 114.593 275.887 114.84 275.231 115.093C272.186 116.207 269.104 117.429 266.143 118.714C264.867 119.27 263.591 119.826 262.357 120.388C260.412 121.287 258.504 122.236 256.572 123.204C253.808 124.607 251.039 126.054 248.275 127.616C247.74 127.931 247.204 128.246 246.668 128.56C243.362 130.482 239.99 132.577 236.786 134.694C235.913 135.282 235.04 135.87 234.191 136.439C231.685 138.15 229.276 139.942 226.951 141.746C225.156 143.12 223.379 144.519 221.686 145.93C220.168 147.16 218.77 148.451 217.33 149.737C215.035 151.795 212.799 153.885 210.69 155.991C209.822 156.853 209.039 157.726 208.213 158.594C205.712 161.217 203.313 163.876 201.1 166.584C200.587 167.198 200.111 167.862 199.616 168.501C197.235 171.505 194.955 174.545 192.862 177.633C192.355 178.361 191.908 179.121 191.42 179.875C192.482 177.9 193.587 175.931 194.734 173.968" fill="#009888"/>
<path d="M666.078 53.954C663.097 56.0106 660.218 57.9443 657.442 59.7553C654.641 61.5858 651.926 63.2683 649.264 64.867C646.603 66.4657 644.002 67.9359 641.437 69.2971C638.872 70.6583 636.344 71.9105 633.828 73.0733C631.908 73.9523 629.958 74.7361 628.032 75.5004C627.466 75.7199 626.876 75.959 626.31 76.1785C624.866 76.7119 623.403 77.2201 621.929 77.6583C620.876 77.994 619.823 78.3298 618.758 78.5956C617.645 78.9005 616.514 79.1801 615.407 79.4403C613.969 79.7695 612.531 80.0987 611.057 80.3775C610.221 80.5376 609.366 80.6725 608.512 80.8074C606.737 81.091 604.945 81.3495 603.098 81.5322C602.491 81.5866 601.883 81.6411 601.3 81.676C599.153 81.8636 597.011 82.0064 594.798 82.0484C594.456 82.0476 594.071 82.041 593.728 82.0402C591.214 82.087 588.646 82.0582 586.007 81.9286C586.007 81.9286 585.922 81.9172 585.898 81.9367C583.277 81.8322 580.565 81.6017 577.793 81.3403C577.414 81.289 577.03 81.2824 576.651 81.2311C574.348 80.9876 571.967 80.688 569.533 80.3127C568.565 80.1817 567.597 80.0506 566.611 79.8943C564.892 79.6159 563.13 79.3318 561.333 78.9973C559.535 78.6628 557.696 78.3226 555.821 77.9319C554.901 77.7618 553.945 77.5412 553.007 77.3459C550.134 76.729 547.219 76.1065 544.165 75.3968C541.924 74.8654 539.579 74.2973 537.217 73.7041C537.512 73.744 537.824 73.8091 538.137 73.8743C540.361 74.221 542.568 74.5426 544.696 74.808C546.295 75.0246 547.876 75.2159 549.415 75.4015C550.407 75.5131 551.381 75.5994 552.355 75.6858C554.917 75.9187 557.418 76.1207 559.841 76.2667C559.967 76.2838 560.076 76.2757 560.184 76.2675C562.866 76.4029 565.434 76.4317 567.941 76.4296C568.434 76.428 568.97 76.4321 569.463 76.4306C571.568 76.3967 573.618 76.2872 575.651 76.1524C576.56 76.0932 577.51 76.0396 578.424 75.9356C580.054 75.7691 581.642 75.5969 583.218 75.3547C584.421 75.1759 585.624 74.9971 586.81 74.7931C588.085 74.5558 589.318 74.3128 590.552 74.0697C591.965 73.76 593.361 73.4251 594.721 73.0398C595.678 72.7821 596.617 72.4991 597.58 72.1967C599.168 71.7056 600.715 71.2089 602.267 70.6674C602.965 70.4202 603.646 70.1478 604.326 69.8754C606.089 69.203 607.841 68.4607 609.598 67.6736C609.99 67.476 610.357 67.2979 610.766 67.1255C612.783 66.1685 614.781 65.1862 616.774 64.0892L616.798 64.0697C619.182 62.7752 621.537 61.3855 623.945 59.912C626.336 58.4133 628.781 56.8308 631.262 55.1394C633.719 53.4675 636.255 51.6923 638.827 49.8081C641.416 47.9491 644.043 45.9811 646.807 43.9407C649.53 41.8947 652.373 39.7511 655.33 37.5546C658.269 35.3329 661.347 33.0389 664.546 30.6472C667.672 28.3141 670.912 25.9281 674.357 23.456L685.158 40.4093C681.761 42.8424 678.527 45.1836 675.395 47.402C672.191 49.679 669.107 51.8584 666.132 53.8702" fill="#009888"/>
<path d="M644.338 21.2969C641.398 23.6781 638.591 26.0315 635.898 28.3321C633.187 30.6075 630.59 32.8301 628.048 34.9689C625.524 37.1329 623.078 39.1936 620.662 41.1901C618.246 43.1865 615.903 45.1244 613.578 46.9282C611.265 48.8018 608.952 50.5161 606.663 52.2108C606.277 52.5231 605.856 52.7849 605.476 53.0525C603.597 54.4154 601.706 55.7084 599.803 56.9314C599.707 57.0095 599.593 57.0623 599.496 57.1404C597.407 58.4749 595.329 59.7198 593.198 60.8892C593.077 60.9867 592.939 61.0591 592.8 61.1315C590.784 62.2479 588.719 63.244 586.66 64.1954C586.293 64.3735 585.95 64.532 585.583 64.7101C583.711 65.55 581.791 66.2696 579.853 66.964C579.221 67.1973 578.613 67.4111 577.981 67.6445C576.32 68.1941 574.599 68.7128 572.866 69.1615C571.885 69.4388 570.887 69.6908 569.888 69.9428C568.516 70.2582 567.126 70.5484 565.718 70.8133C564.245 71.0921 562.735 71.3205 561.183 71.5432C560.286 71.6724 559.33 71.7706 558.398 71.8494C556.244 72.0817 554.073 72.2889 551.781 72.4342C551.565 72.4504 551.33 72.4414 551.072 72.452C548.72 72.5664 546.273 72.5993 543.789 72.5819C543.037 72.594 542.31 72.5867 541.54 72.5736C539.958 72.5416 538.359 72.4845 536.699 72.3964C534.655 72.3018 532.55 72.1763 530.392 71.9751C530.224 71.9523 530.031 71.949 529.845 71.901C527.728 71.7055 525.552 71.4791 523.315 71.2218C521.65 71.0191 519.961 70.8359 518.217 70.577C516.011 70.2554 513.72 69.9224 511.418 69.5195C511.737 69.5399 512.115 69.5912 512.434 69.6116C513.985 69.7078 515.495 69.7982 516.986 69.8635C518.988 69.9524 520.973 70.0161 522.903 70.0042C523.354 69.9969 523.799 70.0344 524.25 70.0271C525.922 70.0257 527.576 69.9991 529.193 69.922C531.196 69.8515 533.139 69.7501 535.003 69.5926C535.244 69.5568 535.46 69.5406 535.677 69.5243C537.975 69.3343 540.2 69.0434 542.348 68.6964C543.178 68.581 544.008 68.4656 544.82 68.325C546.312 68.0714 547.768 67.7675 549.182 67.4578C550.752 67.1009 552.305 66.7188 553.821 66.2863C554.555 66.0896 555.253 65.8424 555.969 65.6205C558.051 64.9684 560.14 64.2717 562.108 63.5131C562.312 63.4269 562.517 63.3407 562.746 63.235C565.015 62.3121 567.23 61.3136 569.373 60.2142C569.512 60.1419 569.65 60.0695 569.789 59.9971C571.866 58.9115 573.865 57.7699 575.834 56.533C576.207 56.3102 576.604 56.0679 576.978 55.8451C578.736 54.7391 580.423 53.5323 582.133 52.306C582.705 51.8823 583.271 51.5034 583.819 51.0992C585.301 49.9786 586.789 48.8133 588.241 47.5975C588.988 46.9925 589.711 46.407 590.44 45.7767C591.675 44.7366 592.898 43.6265 594.121 42.5165C595.073 41.6658 596.025 40.8152 596.959 39.9393C599.122 37.9087 601.316 35.8137 603.545 33.6099C605.769 31.4507 608.029 29.1826 610.313 26.8949C612.597 24.6073 615.001 22.222 617.472 19.8229C619.925 17.3986 622.468 14.941 625.119 12.4753C627.776 9.96482 630.542 7.44621 633.44 4.89998C636.338 2.35376 639.392 -0.239621 642.621 -2.85494C645.754 -5.39219 649.061 -7.95137 652.56 -10.5073L663.336 6.4655C659.861 9.0019 656.567 11.4716 653.446 13.9194C650.212 16.42 647.151 18.8987 644.212 21.2798" fill="#FFCC00"/>
<path d="M317.811 73.2711C319.677 72.6353 321.518 72.019 323.378 71.4279C324.924 70.9312 326.465 70.4791 328.023 70.0523C328.715 69.8499 329.389 69.6222 330.057 69.4393C330.569 69.3036 331.056 69.1873 331.567 69.0515C332.5 68.8133 333.433 68.5752 334.407 68.3427C335.141 68.146 335.875 67.9492 336.603 67.7972C337.181 67.6476 337.759 67.498 338.354 67.3737C338.775 67.2712 339.191 67.2136 339.612 67.1111C339.943 67.042 340.316 66.9786 340.646 66.9095C341.001 66.8209 341.374 66.7575 341.723 66.7136C342.054 66.6445 342.409 66.556 342.758 66.5121C343.131 66.4487 343.486 66.3601 343.859 66.2967C344.256 66.2138 344.653 66.1309 345.026 66.0675C345.423 65.9846 345.844 65.8821 346.26 65.8245C346.308 65.7854 346.392 65.7968 346.434 65.8025C351.86 64.8288 357.28 64.0592 362.736 63.4996C368.149 62.9342 373.58 62.5534 379.029 62.3573C384.46 62.1359 389.884 62.1188 395.321 62.1715C400.775 62.2495 406.235 62.4422 411.707 62.7048C417.179 62.9674 422.68 63.3252 428.218 63.7334C433.738 64.1164 439.311 64.575 444.891 64.9889C450.489 65.4281 456.087 65.8671 461.775 66.2729C467.421 66.673 473.139 67.0146 478.905 67.3171C482.122 67.4566 485.117 67.6571 487.919 67.8543C487.594 68.038 487.269 68.2218 486.943 68.4056C483.227 68.3124 479.289 68.1207 474.388 68.0721C468.584 68.038 462.818 67.8949 457.123 67.6933C451.429 67.4916 445.764 67.2258 440.142 66.9656C434.52 66.7054 428.97 66.3867 423.414 66.1127C417.858 65.8386 412.362 65.5955 406.902 65.4029C401.418 65.2297 395.97 65.107 390.552 65.0795C385.109 65.0715 379.721 65.1391 374.314 65.3409C368.925 65.5679 363.518 65.9292 358.129 66.4751C354.087 66.8845 350.027 67.4281 345.978 68.0416C345.521 68.0936 345.058 68.1903 344.601 68.2423C344.119 68.3138 343.68 68.3911 343.223 68.443C342.808 68.5007 342.393 68.5585 341.978 68.6162C341.954 68.6357 341.912 68.6299 341.845 68.6438C341.382 68.7405 340.943 68.8177 340.48 68.9144C340.017 69.0112 339.553 69.1079 339.114 69.1851C338.585 69.2957 338.037 69.381 337.508 69.4915C336.912 69.6159 336.299 69.7151 335.703 69.8394C334.999 69.9719 334.295 70.1044 333.609 70.2621C332.683 70.4555 331.726 70.7133 330.818 70.9319C329.644 71.2059 328.471 71.4798 327.274 71.7733C326.786 71.8895 326.281 71.9805 325.788 72.1415C324.831 72.3992 323.868 72.7017 322.887 72.9789C321.196 73.4333 319.482 73.9073 317.785 74.4065C315.793 75.0252 313.795 75.6886 311.815 76.3773C311.051 76.6383 310.292 76.8545 309.504 77.135C307.927 77.696 306.393 78.2627 304.9 78.8351C302.547 79.7466 300.254 80.689 298.062 81.668C298.364 81.5037 298.689 81.3199 299.014 81.1362C302.77 79.2074 306.587 77.4689 310.932 75.7794C311.793 75.4403 312.654 75.1012 313.58 74.7484C314.983 74.2093 316.415 73.7654 317.811 73.2711Z" fill="#FFCC00"/>
<path d="M623.003 -11.194C620.122 -8.46313 617.375 -5.75995 614.777 -3.05915C612.179 -0.358343 609.69 2.33437 607.291 4.99371C604.892 7.65306 602.601 10.3043 600.382 12.8969C598.164 15.4896 595.994 18.0433 593.871 20.5579C591.749 23.0725 589.657 25.5229 587.578 27.8837C586.101 29.5973 584.618 31.1961 583.153 32.8202C582.55 33.4675 581.984 34.1653 581.381 34.8127C580.073 36.2302 578.771 37.603 577.451 38.9505C576.68 39.7345 575.908 40.5184 575.137 41.3024C573.974 42.4434 572.817 43.5396 571.618 44.6302C570.66 45.5256 569.666 46.3705 568.69 47.2407C567.671 48.1052 566.635 48.9444 565.605 49.7389C564.401 50.7148 563.136 51.6597 561.877 52.5599C561.07 53.1341 560.245 53.683 559.444 54.2123C557.866 55.2516 556.27 56.2656 554.596 57.2236C554.109 57.4992 553.627 57.7302 553.139 58.0058C551.08 59.1166 548.961 60.1964 546.752 61.1502L546.728 61.1698C544.7 62.0569 542.581 62.8179 540.421 63.5732C539.657 63.8342 538.91 64.1204 538.128 64.3562C536.81 64.7472 535.474 65.113 534.096 65.4732C532.339 65.9414 530.529 66.3341 528.675 66.721C528.435 66.7567 528.194 66.7925 527.972 66.8535C526.058 67.2095 524.109 67.515 522.106 67.7449C520.843 67.8928 519.598 68.0659 518.275 68.1828C517.733 68.2234 517.15 68.2583 516.609 68.2989C514.877 68.4288 513.126 68.5335 511.316 68.6073C509.831 68.6567 508.363 68.7314 506.842 68.7304C506.775 68.7442 506.691 68.7328 506.649 68.7271C505.212 68.7374 503.697 68.6917 502.181 68.646C500.684 68.6255 499.133 68.5293 497.575 68.4778C497.611 68.3688 497.666 68.2851 497.72 68.2013C497.828 68.1932 497.913 68.2046 498.021 68.1964C499.121 68.1405 500.264 68.0902 501.347 68.009C501.521 67.9871 501.672 67.9846 501.846 67.9627C503.103 67.8596 504.3 67.7255 505.521 67.572C507.067 67.3941 508.577 67.1657 510.045 66.9316C510.857 66.791 511.687 66.6756 512.457 66.5293C513.269 66.3887 514.045 66.1977 514.822 66.0067C516.633 65.614 518.407 65.171 520.146 64.6775C520.905 64.4613 521.705 64.2507 522.463 64.0345C523.606 63.6654 524.732 63.271 525.857 62.8767C527.795 62.1823 529.697 61.4376 531.545 60.6171C531.617 60.5586 531.707 60.5252 531.822 60.4724C533.899 59.5462 535.861 58.5135 537.812 57.4109C538.462 57.0433 539.155 56.6815 539.787 56.2887C541.19 55.4308 542.551 54.5672 543.876 53.6532C545.032 52.8758 546.152 52.0479 547.255 51.1948C548.122 50.4922 548.965 49.8091 549.833 49.1065C551.303 47.9159 552.737 46.675 554.117 45.3583C554.635 44.859 555.153 44.3597 555.695 43.8408C557.353 42.22 558.968 40.5935 560.553 38.8719C560.854 38.5482 561.162 38.1798 561.463 37.8561C563.229 35.9084 564.941 33.885 566.66 31.8168C566.792 31.6298 566.949 31.4232 567.124 31.2418C568.957 28.9614 570.772 26.6558 572.581 24.2355L572.629 24.1965C574.565 21.6339 576.495 18.9566 578.449 16.2598C580.428 13.5434 582.394 10.7572 584.427 7.95705C586.459 5.15695 588.522 2.29258 590.675 -0.605114C592.804 -3.48329 595.065 -6.38912 597.369 -9.28923C599.696 -12.2089 602.108 -15.1171 604.67 -18.0277C607.232 -20.9384 609.92 -23.8319 612.776 -26.7027C615.633 -29.5734 618.634 -32.4019 621.863 -35.1766C624.978 -37.8985 628.321 -40.5667 631.869 -43.1616L642.154 -26.9844C638.63 -24.4089 635.317 -21.805 632.191 -19.1531C628.974 -16.4678 625.943 -13.7345 623.045 -11.0289" fill="#009888"/>
<path d="M603.008 -41.9422C600.199 -38.951 597.534 -35.9176 595.038 -32.8613C592.518 -29.7855 590.166 -26.687 587.916 -23.5518C585.667 -20.4166 583.525 -17.2896 581.45 -14.1763C579.392 -11.0379 577.401 -7.91324 575.458 -4.82763C573.533 -1.71682 571.657 1.35498 569.786 4.38203C567.915 7.40908 566.093 10.3971 564.276 13.3404C563.649 14.3261 563.045 15.2922 562.418 16.2779C561.193 18.1851 559.992 20.0727 558.774 21.9352C558.237 22.7281 557.7 23.5211 557.163 24.314C555.824 26.274 554.491 28.1892 553.116 30.0988C552.693 30.6795 552.253 31.235 551.831 31.8156C550.311 33.8423 548.756 35.8186 547.146 37.7192C546.893 38.0038 546.639 38.2884 546.386 38.5731C544.602 40.655 542.787 42.6418 540.877 44.5472C540.829 44.5863 540.781 44.6253 540.733 44.6643C538.973 46.4079 537.141 48.0506 535.274 49.6429C534.768 50.0528 534.273 50.5326 533.767 50.9425C532.466 51.9964 531.105 53.0195 529.708 53.992C528.521 54.8337 527.317 55.6501 526.076 56.4162C525.444 56.8089 524.752 57.1708 524.12 57.5635C522.373 58.58 520.549 59.5404 518.689 60.4503C518.322 60.6283 517.973 60.8316 517.563 61.004C516.239 61.5992 514.897 62.1692 513.494 62.7083C511.93 63.3392 510.311 63.8945 508.65 64.4441C508.469 64.5108 508.289 64.5775 508.09 64.6189C506.857 65.0214 505.569 65.3482 504.257 65.6945C502.988 66.0465 501.706 66.3286 500.382 66.6049C499.63 66.7765 498.878 66.948 498.108 67.0943C498.229 66.8373 498.332 66.555 498.453 66.298C498.61 65.9321 498.767 65.5661 498.924 65.2001C499.261 65.0863 499.58 64.9473 499.917 64.8334C500.91 64.4667 501.927 64.0805 502.902 63.6886C503.197 63.5691 503.498 63.4048 503.793 63.2853C505.274 62.6429 506.695 61.9697 508.103 61.2264C509.44 60.5418 510.74 59.8067 511.999 59.0659C512.234 58.9154 512.469 58.765 512.727 58.595C514.414 57.5477 516.039 56.4693 517.636 55.2959C518.491 54.6827 519.346 54.0696 520.141 53.4255C521.009 52.7229 521.834 52.0146 522.684 51.2868C524.334 49.8701 525.925 48.4226 527.444 46.8741C527.588 46.757 527.673 46.609 527.817 46.4919C529.583 44.7036 531.277 42.8144 532.917 40.8495C533.279 40.3974 533.683 39.9509 534.062 39.5239C535.431 37.8185 536.74 36.0822 538.03 34.3206C538.718 33.3658 539.423 32.4363 540.093 31.4562C541.113 29.9541 542.132 28.452 543.092 26.919C543.966 25.5339 544.841 24.1489 545.698 22.7387C546.525 21.3927 547.31 20.041 548.1 18.6446C549.06 16.9521 550.044 15.2401 551.01 13.5029C551.716 12.2545 552.38 11.0004 553.069 9.72682C554.125 7.79688 555.164 5.84169 556.184 3.86132C557.917 0.587797 559.632 -2.71089 561.377 -6.07387C563.14 -9.41164 564.933 -12.8137 566.769 -16.21C568.604 -19.6063 570.524 -22.9912 572.509 -26.39C574.495 -29.7887 576.583 -33.1508 578.779 -36.5211C580.993 -39.8661 583.309 -43.1745 585.77 -46.4406C588.23 -49.7067 590.853 -52.9053 593.656 -56.0111C596.459 -59.1169 599.424 -62.1552 602.612 -65.095C605.745 -67.9511 609.058 -70.7145 612.63 -73.3289L621.89 -58.7484C618.36 -56.1283 615.035 -53.4349 611.914 -50.6683C608.715 -47.7984 605.726 -44.9 602.917 -41.9088" fill="#FFCC00"/>
<path d="M484.66 68.8283C484.66 68.8283 484.69 68.9234 484.726 68.9739C484.744 68.9991 484.762 69.0243 484.78 69.0495C483.637 69.2592 482.518 69.4494 481.357 69.6339C477.332 70.2279 473.122 70.6145 468.666 70.7627C464.185 70.9305 457.617 71.4763 451.861 71.722C446.082 71.9872 440.405 72.1296 434.733 72.2273C429.086 72.3055 423.488 72.3446 417.937 72.3447C412.386 72.3448 406.902 72.331 401.436 72.3425C395.969 72.354 390.569 72.3517 385.181 72.4193C379.792 72.4869 374.434 72.6497 369.111 72.8629C363.765 73.0957 358.472 73.4041 353.179 73.8719C350.532 74.1058 347.904 74.3649 345.311 74.6744C344.68 74.7484 344.066 74.8475 343.434 74.9214C342.779 75.0149 342.105 75.0831 341.449 75.1766C340.752 75.2643 340.054 75.3521 339.356 75.4398C338.7 75.5333 338.027 75.6015 337.371 75.695C337.305 75.7088 337.239 75.7226 337.173 75.7364C336.36 75.877 335.548 76.0177 334.76 76.1387C333.906 76.2736 333.028 76.4281 332.173 76.563C331.187 76.7255 330.158 76.8823 329.172 77.0449C327.986 77.2489 326.813 77.5228 325.604 77.7463C324.28 78.0227 322.963 78.2543 321.615 78.5502C321.591 78.5697 321.567 78.5892 321.507 78.5583C319.871 78.929 318.228 79.3444 316.567 79.7346C314.66 80.2053 312.771 80.7012 310.857 81.2166C309.184 81.6963 307.518 82.1312 305.821 82.6304C305.351 82.7718 304.9 82.9385 304.431 83.08C301.994 83.8206 299.568 84.6312 297.137 85.4866C294.772 86.3281 292.401 87.2143 289.999 88.1648C289.794 88.251 289.614 88.3177 289.433 88.3843C286.418 89.5934 283.631 90.8562 280.946 92.1556C279.134 93.0264 277.34 93.9225 275.564 94.8438C274.318 95.4951 273.066 96.1912 271.789 96.9068C268.562 98.725 265.335 100.703 262.275 102.703C263.54 101.758 264.787 100.788 266.112 99.874C270.328 96.9367 275.037 93.9979 279.582 91.4697C280.16 91.1607 280.696 90.846 281.274 90.537C284.194 88.9278 286.982 87.5056 290.202 86.0509C291.207 85.5948 292.279 85.1248 293.416 84.641C294.71 84.1101 295.998 83.6238 297.286 83.1376C299.754 82.1733 302.216 81.2537 304.665 80.4236C306.26 79.8878 307.86 79.3073 309.431 78.791C310.057 78.6024 310.701 78.439 311.327 78.2504C313.294 77.6512 315.262 77.052 317.224 76.4975C318.848 76.0569 320.509 75.6667 322.151 75.2513C323.216 74.9855 324.306 74.7002 325.371 74.4343C325.726 74.3457 326.074 74.3018 326.429 74.2132C327.579 73.9588 328.68 73.7434 329.805 73.5085C330.755 73.2956 331.706 73.0826 332.65 72.9143C333.444 72.7485 334.232 72.6274 335.021 72.5063C335.7 72.3934 336.38 72.2804 337.06 72.1674C337.673 72.0683 338.311 71.9496 338.925 71.8505C339.514 71.7708 340.11 71.6464 340.681 71.5416C340.856 71.5197 341.054 71.4782 341.229 71.4563C341.602 71.3929 341.993 71.3547 342.366 71.2913C342.913 71.206 343.479 71.1459 344.026 71.0606C344.573 70.9752 345.139 70.9151 345.662 70.8493C349.482 70.3415 353.314 69.9035 357.151 69.5803C362.462 69.1377 367.779 68.8099 373.119 68.6218C378.46 68.4338 383.83 68.341 389.188 68.3376C394.589 68.34 400.001 68.4122 405.431 68.5097C410.879 68.6324 416.369 68.7609 421.877 68.9145C427.41 69.0486 432.942 69.1827 438.564 69.2835C444.187 69.3842 449.84 69.4208 455.547 69.3735C461.254 69.3263 468.261 68.8627 472.831 68.9805C476.932 69.0802 480.847 68.9726 484.588 68.7274" fill="#009888"/>
<path d="M226.331 133.441C229.508 129.953 232.889 126.538 236.552 123.253C238.51 121.468 240.613 119.725 242.733 118.008C244.541 116.544 246.366 115.105 248.269 113.723C249.576 112.783 250.949 111.83 252.298 110.897C255.279 108.84 258.363 106.82 261.608 104.868C261.753 104.751 261.933 104.684 262.12 104.573C265.432 102.606 268.653 100.833 271.922 99.1798C273.144 98.548 274.36 97.9609 275.576 97.3738C277.273 96.5558 279.073 95.7744 280.915 94.9987C283.648 93.8197 286.5 92.7025 289.341 91.6748C289.816 91.4886 290.292 91.3024 290.761 91.161C292.88 90.4 295.01 89.7089 297.116 89.0374C299.469 88.2853 301.84 87.5584 304.199 86.9211C304.891 86.7186 305.583 86.5162 306.275 86.3138C307.653 85.9536 309.049 85.6187 310.426 85.2586C312.334 84.7879 314.217 84.3367 316.094 83.9303C317.731 83.5596 319.361 83.2337 320.991 82.9078C321.256 82.8525 321.521 82.7972 321.786 82.7419C322.929 82.5322 324.09 82.3478 325.233 82.1381C326.484 81.9202 327.717 81.6772 328.969 81.4594C330.063 81.2887 331.134 81.1376 332.205 80.9865C333.21 80.8491 334.196 80.6866 335.177 80.5688C335.898 80.4615 336.62 80.3542 337.342 80.247C337.517 80.225 337.691 80.2031 337.866 80.1811C338.696 80.0658 339.562 80.0008 340.392 79.8854C341.198 79.7895 341.98 79.7132 342.768 79.5921C343.508 79.5101 344.23 79.4028 344.969 79.3207C347.622 79.0421 350.311 78.8139 352.999 78.5857C358.244 78.157 363.495 77.8428 368.799 77.6044C374.104 77.3659 379.42 77.1975 384.779 77.0347C390.155 76.8971 395.55 76.7848 400.986 76.6781C406.423 76.5715 411.926 76.4509 417.476 76.2914C423.027 76.1319 428.627 75.9334 434.286 75.6064C439.94 75.3241 445.671 74.9385 451.488 74.4049C457.28 73.8908 462.681 73.4148 466.928 72.9192C471.175 72.4236 475.217 71.6954 479.032 70.754C481.072 70.2557 483.057 69.6817 484.965 69.0516C484.965 69.0516 484.965 69.0517 484.983 69.0769C485.109 69.094 485.218 69.0859 485.32 69.1225C482.219 70.639 478.969 71.9985 475.515 73.1253C471.79 74.3522 467.879 75.3716 463.728 76.108C459.571 76.8891 454.867 77.4366 449.002 78.1687C443.155 78.926 437.351 79.5296 431.649 80.0103C425.923 80.5106 420.299 80.8881 414.706 81.2013C409.112 81.5145 403.591 81.7692 398.136 82.0101C392.664 82.2257 387.233 82.4471 381.886 82.6798C376.497 82.9068 371.193 83.1452 365.9 83.4536C360.608 83.762 355.351 84.1209 350.148 84.5553C348.326 84.7186 346.479 84.9013 344.657 85.0646C343.808 85.1548 342.942 85.2197 342.094 85.3099C341.162 85.3886 340.242 85.5374 339.309 85.6162C338.287 85.7283 337.306 85.8461 336.284 85.9582C335.694 86.0378 335.111 86.0727 334.521 86.1524C334.04 86.2239 333.517 86.2897 333.035 86.3612C331.832 86.54 330.653 86.6992 329.45 86.878C328.139 87.0649 326.828 87.2518 325.534 87.4639C324.042 87.7175 322.574 87.9515 321.1 88.2303C320.421 88.3433 319.741 88.4563 319.079 88.5945C318.11 88.7822 317.118 88.9895 316.125 89.1968C314.272 89.5837 312.401 89.9454 310.566 90.3575C308.49 90.8054 306.427 91.3232 304.339 91.8606C304.116 91.9216 303.893 91.9825 303.653 92.0183C301.523 92.5499 299.381 93.1711 297.256 93.8174C294.711 94.5662 292.16 95.3597 289.62 96.2231C289.193 96.3703 288.747 96.4922 288.296 96.6589C286.003 97.4419 283.656 98.3086 281.303 99.2201C278.408 100.332 275.549 101.493 272.924 102.664C272.81 102.717 272.672 102.79 272.533 102.862C269.289 104.336 266.092 105.931 262.901 107.64C261.559 108.369 260.222 109.054 258.879 109.783C257.019 110.853 255.086 111.981 253.213 113.139C250.383 114.875 247.607 116.686 244.999 118.519C244.409 118.918 243.855 119.367 243.283 119.79C239.862 122.243 236.603 124.763 233.531 127.331C233.266 127.546 232.977 127.78 232.711 127.995C229.729 130.53 226.927 133.157 224.27 135.827C225.005 134.993 225.656 134.147 226.41 133.338" fill="#FFCC00"/>
<path d="M585.191 -69.253C582.436 -66.0267 579.843 -62.733 577.424 -59.3018C574.987 -55.8958 572.755 -52.4166 570.601 -48.8812C568.446 -45.3458 566.436 -41.7682 564.528 -38.1539C562.62 -34.5396 560.772 -30.8944 559.032 -27.2573C557.269 -23.6007 555.571 -19.958 553.916 -16.3095C552.26 -12.661 550.635 -9.07675 549.01 -5.49253C547.535 -2.22955 546.067 0.988681 544.581 4.1817C544.454 4.48344 544.303 4.80472 544.176 5.10645C542.805 8.08721 541.379 10.9923 539.978 13.8779C539.742 14.3472 539.501 14.8612 539.265 15.3304C537.997 17.8696 536.675 20.333 535.335 22.7713C534.93 23.5366 534.501 24.3214 534.079 25.0615C532.98 26.9857 531.864 28.8848 530.711 30.7334C529.993 31.9119 529.257 33.0651 528.521 34.2183C527.712 35.4301 526.886 36.6167 526.042 37.778C524.847 39.4615 523.641 41.0751 522.375 42.6577C522.061 43.0708 521.688 43.453 521.374 43.8662C519.885 45.6692 518.342 47.3966 516.763 49.0735C516.365 49.4752 516.003 49.9274 515.605 50.3292C514.515 51.4116 513.43 52.4493 512.285 53.4561C510.893 54.7028 509.484 55.9242 507.978 57.0643C506.659 58.0931 505.279 59.0908 503.888 60.0187C502.708 60.8156 501.492 61.5621 500.257 62.2834C500.65 61.2887 501.037 60.3388 501.412 59.3189C501.581 58.8634 501.751 58.408 501.92 57.9525C502.456 57.4784 503.011 57.0295 503.529 56.5302C503.77 56.335 503.975 56.0894 504.174 55.8885C505.481 54.6305 506.753 53.322 507.965 51.9825C508.923 50.9277 509.881 49.8729 510.78 48.7872C511.19 48.296 511.558 47.7991 511.925 47.3022C513.348 45.513 514.711 43.6929 516.045 41.7776C516.443 41.2164 516.859 40.6805 517.239 40.0941C518.289 38.5277 519.278 36.9305 520.292 35.3136C521.233 33.7554 522.133 32.1914 523.014 30.6023C523.521 29.7141 523.992 28.7756 524.481 27.8623C525.779 25.4183 527.059 22.9491 528.268 20.3791C528.419 20.0579 528.57 19.7366 528.721 19.4154C530.171 16.3313 531.584 13.1969 532.968 9.96722C533.029 9.83872 533.065 9.7297 533.126 9.6012C534.516 6.32683 535.87 3.00203 537.23 -0.36751C537.393 -0.778228 537.581 -1.20846 537.744 -1.61919C539.249 -5.42466 540.761 -9.27487 542.279 -13.1698C543.796 -17.0648 545.338 -20.9792 546.904 -24.9132C548.47 -28.8472 550.078 -32.7754 551.77 -36.6923C553.462 -40.6092 555.214 -44.4952 557.069 -48.3445C558.923 -52.1939 560.88 -56.0066 562.974 -59.7323C565.069 -63.458 567.284 -67.1218 569.679 -70.6929C572.074 -74.2641 574.625 -77.7229 577.374 -81.0638C580.124 -84.4047 583.089 -87.6024 586.271 -90.6569C589.398 -93.6277 592.718 -96.4358 596.313 -99.0698L604.075 -86.8563C600.503 -84.2418 597.184 -81.4338 594.069 -78.5525C590.875 -75.5679 587.922 -72.4596 585.149 -69.2586" fill="#009888"/>
<path d="M570.628 -91.594C567.891 -88.1831 565.369 -84.6291 562.998 -80.9181C560.651 -77.2266 558.46 -73.4229 556.407 -69.5321C554.354 -65.6413 552.457 -61.6382 550.645 -57.6237C548.85 -53.584 547.151 -49.463 545.537 -45.3306C543.923 -41.1982 542.386 -37.0096 540.898 -32.8601C539.404 -28.6658 537.958 -24.5106 536.554 -20.3496C535.15 -16.1887 533.728 -12.053 532.33 -7.93683C531.864 -6.56477 531.38 -5.21792 530.92 -3.89059C529.97 -1.17168 529.02 1.54723 528.058 4.19619C527.696 5.12662 527.357 6.03753 527.036 6.97365C525.917 9.9886 524.756 12.9979 523.583 15.9371C523.456 16.2389 523.329 16.5406 523.196 16.8871C521.969 19.9102 520.712 22.838 519.377 25.7098C519.159 26.2043 518.966 26.6793 518.731 27.1486C517.728 29.3136 516.671 31.4029 515.614 33.4923C514.883 34.9196 514.159 36.3022 513.416 37.6596C512.933 38.5282 512.408 39.3911 511.907 40.2345C510.736 42.2173 509.548 44.1749 508.305 46.0568C508.009 46.4952 507.732 46.9588 507.436 47.3971C506.603 48.6284 505.711 49.8288 504.824 50.9845C504.565 51.3138 504.3 51.6879 504.058 52.0425C504.198 51.6513 504.337 51.2601 504.452 50.8884C505.063 49.0804 505.68 47.2277 506.256 45.3693C506.449 44.7349 506.643 44.1005 506.837 43.4661C507.586 42.064 508.316 40.6367 509.005 39.2036C509.476 38.2651 509.947 37.3265 510.424 36.3433C511.058 34.994 511.681 33.5748 512.279 32.1751C513.337 29.7669 514.376 27.3334 515.338 24.8439C515.434 24.6064 515.531 24.3689 515.604 24.151C516.783 21.1669 517.884 18.1268 518.973 15.0167C519.251 14.2343 519.523 13.4966 519.784 12.689C520.673 10.0985 521.551 7.43818 522.41 4.75261C522.925 3.18209 523.439 1.61157 523.912 0.0353545C524.596 -2.15003 525.262 -4.36064 525.928 -6.57125C526.582 -8.69238 527.236 -10.8135 527.872 -12.9599C529.175 -17.3168 530.507 -21.738 531.839 -26.1592C533.172 -30.5804 534.546 -34.9959 535.921 -39.4114C537.337 -43.8212 538.814 -48.2001 540.351 -52.5481C541.887 -56.8961 543.544 -61.1822 545.279 -65.4122C547.014 -69.6423 548.887 -73.7852 550.892 -77.7964C552.879 -81.8328 555.046 -85.7765 557.364 -89.5631C559.681 -93.3498 562.196 -97.0185 564.922 -100.499C567.648 -103.98 570.565 -107.298 573.753 -110.397C576.844 -113.419 580.188 -116.246 583.784 -118.88L589.556 -109.829C585.96 -107.195 582.616 -104.368 579.507 -101.372C576.319 -98.2725 573.39 -95.0243 570.652 -91.6135" fill="#FFCC00"/>
<path d="M560.355 -107.53C557.642 -103.979 555.162 -100.26 552.851 -96.359C550.539 -92.4577 548.444 -88.4131 546.462 -84.262C544.499 -80.0857 542.692 -75.7972 540.981 -71.4273C539.288 -67.0321 537.715 -62.5752 536.238 -58.0369C534.761 -53.4986 533.362 -48.9042 532.005 -44.304C530.666 -39.6787 529.387 -35.0224 528.133 -30.3856C526.896 -25.7236 525.659 -21.0617 524.429 -16.4444C523.713 -13.7165 523.01 -11.0781 522.301 -8.39497C521.803 -6.48041 521.282 -4.54632 520.767 -2.65697C520.24 -0.678159 519.676 1.25023 519.155 3.18431C518.44 5.75279 517.707 8.29603 516.956 10.8141C516.671 11.8006 516.368 12.762 516.09 13.7038C515.121 16.8758 514.134 20.0225 513.117 23.074C513.038 23.3367 512.96 23.5995 512.863 23.8369C512.004 26.3631 511.126 28.864 510.213 31.3145C510.601 29.8863 510.989 28.4582 511.341 26.9795C511.681 25.5904 512.026 24.1564 512.366 22.7673C513.125 19.5668 513.907 16.3469 514.63 13.096C514.848 12.2827 515.066 11.4694 515.26 10.6756C515.976 7.94768 516.631 5.18887 517.31 2.41055C517.82 0.406519 518.287 -1.60322 518.779 -3.63247C519.234 -5.55273 519.677 -7.5429 520.156 -9.48268C520.83 -12.3757 521.503 -15.2687 522.201 -18.1812C523.336 -23.0392 524.477 -27.9419 525.66 -32.839C526.843 -37.736 528.062 -42.5826 529.341 -47.3983C530.62 -52.214 531.96 -56.9988 533.395 -61.7022C534.83 -66.4056 536.361 -71.0277 538.031 -75.5627C539.7 -80.0978 541.46 -84.5067 543.417 -88.7977C545.351 -93.0692 547.44 -97.2284 549.74 -101.2C552.039 -105.171 554.489 -108.985 557.185 -112.561C559.862 -116.162 562.786 -119.525 565.962 -122.694C569.06 -125.76 572.403 -128.588 576.035 -131.172L579.284 -126.084C575.67 -123.476 572.326 -120.648 569.235 -117.627C566.065 -114.502 563.141 -111.14 560.452 -107.608" fill="#009888"/>
<path d="M504.643 44.8199C500.214 43.3545 495.773 41.9785 491.295 40.7116C486.03 39.2469 480.747 37.9164 475.458 36.79C470.15 35.6384 464.812 34.7105 459.425 33.9811C454.039 33.2516 448.645 32.7263 443.198 32.4441C437.75 32.162 432.266 32.1483 426.726 32.3778C421.187 32.6072 415.63 33.1303 410.011 33.9413C404.393 34.7523 398.713 35.8512 393.009 37.2885C387.287 38.7005 380.776 40.7119 376.714 42.212C372.628 43.7316 368.727 45.4587 364.94 47.4517C361.153 49.4447 357.619 51.6314 354.3 53.9612C351.717 55.7754 349.325 57.7524 346.993 59.7602C346.728 59.9749 346.439 60.2091 346.168 60.4686C345.927 60.6637 345.686 60.8589 345.463 61.0793C345.319 61.1964 345.174 61.3135 345.029 61.4306C344.981 61.4697 344.909 61.5282 344.861 61.5673C344.692 61.7039 344.535 61.9104 344.367 62.0471C344.174 62.2032 343.993 62.4293 343.818 62.6107C343.915 62.5326 343.951 62.4236 344.029 62.3203C344.234 62.0747 344.433 61.8738 344.638 61.6282C344.789 61.4664 344.939 61.3045 345.048 61.137C345.229 60.9109 345.428 60.7101 345.603 60.5287C345.832 60.2636 346.061 59.9985 346.29 59.7333C346.543 59.4487 346.802 59.1193 347.08 58.8151C348.586 57.1968 350.111 55.6036 351.732 54.0918C354.528 51.5089 357.498 49.0636 360.744 46.7923C363.948 44.5154 367.386 42.4068 371.101 40.4723C374.773 38.5321 378.602 36.8636 382.616 35.4026C386.63 33.9415 393.159 31.9553 398.899 30.5685C404.621 29.1564 410.294 28.1023 415.907 27.336C421.519 26.5698 427.113 26.0971 432.603 25.9067C438.118 25.6967 443.591 25.7999 449.032 26.1268C454.474 26.4537 459.837 27.0432 465.193 27.8369C470.526 28.6501 475.852 29.6675 481.129 30.8834C486.406 32.0992 491.635 33.5135 496.864 35.0872C500.259 36.1165 503.601 37.2296 506.954 38.4126C506.415 40.0027 505.841 41.5423 505.284 43.1071C505.078 43.6715 504.873 44.236 504.649 44.7752L504.505 44.7329L504.643 44.8199Z" fill="#009888"/>
<path d="M503.147 49.0138C502.984 49.4246 502.796 49.8548 502.633 50.2655C502.603 50.3298 502.591 50.4192 502.536 50.503C502.403 50.8495 502.228 51.1902 502.095 51.5367C501.624 52.6347 501.128 53.7521 500.639 54.8249C500.264 55.6854 499.872 56.5206 499.479 57.3559C499.292 57.7861 499.068 58.166 498.881 58.5962C498.38 59.599 497.921 60.6075 497.401 61.5851C497.401 61.5851 497.377 61.6046 497.371 61.6493C497.281 61.8421 497.19 62.0348 497.099 62.2276C496.779 62.8449 496.447 63.3922 496.127 64.0095C496.013 64.2218 495.898 64.4341 495.807 64.6268C495.608 64.9871 495.385 65.3669 495.186 65.7272C495.041 66.0037 494.872 66.2997 494.727 66.5762C494.672 66.66 494.636 66.769 494.558 66.8723C494.413 67.1488 494.292 67.4058 494.129 67.6571C494.105 67.6766 494.099 67.7214 494.051 67.7604C493.966 67.9084 493.864 68.0312 493.779 68.1792C493.779 68.1792 493.731 68.2183 493.725 68.263C492.777 69.866 491.812 71.4438 490.81 72.9712C488.566 76.3804 486.178 79.5879 483.561 82.5824C480.987 85.5825 478.203 88.3947 475.239 90.9547C472.275 93.5148 469.082 95.8617 465.692 97.9312C462.302 100.001 458.684 101.857 454.808 103.405C450.95 104.979 447.664 105.969 441.756 107.492C435.829 108.991 430.035 110.302 424.284 111.459C418.532 112.617 412.907 113.632 407.343 114.518C401.778 115.405 396.292 116.188 390.86 116.888C385.428 117.588 380.069 118.229 374.782 118.811C369.494 119.394 364.255 119.937 359.076 120.511C354.12 121.025 349.224 121.569 344.346 122.139C344.129 122.155 343.913 122.171 343.672 122.207C342.541 122.327 341.404 122.492 340.273 122.612C338.727 122.79 337.2 122.993 335.654 123.171C333.975 123.377 332.273 123.602 330.613 123.833C329.915 123.921 329.241 123.989 328.562 124.102C327.383 124.261 326.222 124.445 325.085 124.61C323.075 124.885 321.06 125.204 319.087 125.53C317.288 125.833 315.496 126.091 313.715 126.419C313.342 126.483 312.987 126.571 312.638 126.615C310.31 127.029 307.958 127.462 305.641 127.946C303.415 128.396 301.231 128.852 299.017 129.372C298.728 129.447 298.44 129.522 298.175 129.577C295.498 130.194 292.856 130.862 290.191 131.549C288.277 132.064 286.388 132.56 284.492 133.101C283.554 133.384 282.633 133.692 281.694 133.975C278.698 134.89 275.737 135.856 272.764 136.911C271.861 137.245 270.922 137.528 269.995 137.88C267.805 138.7 265.632 139.545 263.429 140.454C260.775 141.53 258.156 142.656 255.592 143.857C254.996 144.141 254.376 144.445 253.78 144.728C250.481 146.286 247.206 147.984 243.919 149.771C243.088 150.206 242.257 150.64 241.445 151.099C239.006 152.478 236.507 153.985 234.002 155.536C231.66 156.996 229.36 158.461 227.185 159.944C226.119 160.688 225.12 161.418 224.078 162.142C220.711 164.511 217.465 166.942 214.428 169.401C214.428 169.401 214.428 169.401 214.404 169.421C211.079 172.114 207.982 174.861 205.006 177.67C204.391 178.247 203.758 178.8 203.162 179.402C200.667 181.821 198.334 184.307 196.044 186.799C195.11 187.834 194.181 188.825 193.289 189.866C191.282 192.168 189.443 194.493 187.639 196.869C186.65 198.147 185.655 199.47 184.709 200.754C183.014 203.122 181.445 205.506 179.919 207.897C179.044 209.282 178.175 210.622 177.366 211.993C175.755 214.691 174.312 217.411 172.905 220.182C172.319 221.333 171.715 222.459 171.171 223.615C169.589 226.886 168.175 230.18 166.845 233.485C167.232 232.217 167.602 230.923 168.013 229.634C169.345 225.532 170.821 221.472 172.483 217.46C174.146 213.448 175.952 209.478 177.987 205.562C178.078 205.369 178.186 205.202 178.277 205.009C180.221 201.286 182.286 197.624 184.561 193.991C184.778 193.656 185.043 193.282 185.26 192.947C187.463 189.532 189.791 186.134 192.348 182.79C192.607 182.461 192.867 182.131 193.126 181.802C195.701 178.483 198.462 175.212 201.385 172.009C201.482 171.931 201.554 171.872 201.632 171.769C204.471 168.713 207.472 165.725 210.678 162.811C211.07 162.454 211.419 162.091 211.811 161.734C214.45 159.358 217.251 157.049 220.136 154.752C221.293 153.815 222.45 152.878 223.666 151.972C225.672 150.467 227.738 148.993 229.888 147.53C232.231 145.911 234.609 144.342 237.114 142.79C238.006 142.228 238.933 141.715 239.842 141.178C243.16 139.167 246.501 137.296 249.807 135.534C250.36 135.244 250.896 134.93 251.45 134.64C254.123 133.271 256.826 131.997 259.547 130.748C261.623 129.821 263.7 128.895 265.813 128.02C266.836 127.589 267.895 127.208 268.937 126.802C271.946 125.638 274.967 124.544 277.982 123.494C278.813 123.219 279.625 122.919 280.455 122.644C282.471 122.006 284.481 121.413 286.515 120.8C289.193 120.023 291.889 119.272 294.572 118.61C294.771 118.569 294.951 118.502 295.174 118.441C297.46 117.863 299.741 117.328 302.057 116.845C304.355 116.336 306.671 115.852 308.982 115.413C309.312 115.344 309.643 115.275 309.974 115.206C311.779 114.858 313.578 114.555 315.401 114.232C317.356 113.882 319.305 113.577 321.296 113.277C322.499 113.098 323.708 112.874 324.929 112.721C325.519 112.641 326.133 112.542 326.74 112.488C328.4 112.257 330.061 112.026 331.739 111.821C333.243 111.637 334.771 111.434 336.292 111.275C337.555 111.128 338.801 110.954 340.082 110.832C340.214 110.804 340.365 110.802 340.497 110.774C341.736 110.646 342.957 110.492 344.196 110.364C347.938 109.959 351.697 109.58 355.474 109.226C360.641 108.741 365.874 108.242 371.149 107.749C376.424 107.256 381.765 106.749 387.155 106.203C392.544 105.658 397.988 105.028 403.528 104.32C409.068 103.612 414.662 102.821 420.341 101.882C426.02 100.942 431.777 99.8992 437.625 98.6637C443.473 97.4281 448.467 96.3275 452.516 95.0763C456.566 93.8251 460.37 92.3355 463.934 90.5629C467.516 88.8154 470.858 86.7849 474.014 84.547C477.169 82.3091 480.097 79.858 482.845 77.1548C485.611 74.4768 488.149 71.5856 490.561 68.518C490.658 68.4399 490.694 68.3309 490.772 68.2276C490.796 68.2081 490.844 68.1691 490.851 68.1244C490.923 68.0658 490.977 67.982 491.007 67.9178C491.11 67.795 491.194 67.647 491.321 67.5047C491.369 67.4656 491.423 67.3818 491.454 67.3176C491.641 67.0468 491.852 66.7564 492.057 66.5108C492.135 66.4075 492.214 66.3043 492.292 66.201C492.503 65.9106 492.738 65.6008 492.949 65.3105C493.239 64.9168 493.522 64.5679 493.794 64.1491C493.926 63.9621 494.083 63.7554 494.216 63.5684C494.747 62.8202 495.217 62.041 495.688 61.2619C495.688 61.2619 495.712 61.2424 495.736 61.2229C496.255 60.4047 496.792 59.6118 497.311 58.7936C497.42 58.6261 497.51 58.4333 497.643 58.2463C497.836 57.9307 498.011 57.59 498.204 57.2744C498.735 56.3668 499.267 55.4591 499.78 54.5263C496.913 53.7052 494.07 52.8647 491.215 52.1136C485.842 50.657 480.475 49.3151 475.089 48.1074C469.704 46.8997 464.294 45.8709 458.865 44.9763C453.437 44.0817 448.002 43.3913 442.518 42.8993C437.035 42.4074 431.545 42.1195 426.025 42.0553C420.504 41.9912 414.947 42.1954 409.354 42.6681C403.76 43.1407 398.112 43.8566 392.463 44.8912C386.771 45.9202 381.062 47.2428 375.327 48.9037C369.55 50.5589 364.152 52.4249 359.987 54.2072C355.804 55.9643 351.71 58.0069 347.845 60.2627C347.52 60.4464 347.237 60.6359 346.929 60.8449C346.628 61.0091 346.345 61.1986 346.062 61.3881C345.803 61.5581 345.568 61.7085 345.291 61.8532C345.081 61.9841 344.87 62.1151 344.659 62.246C344.515 62.3631 344.352 62.455 344.19 62.5469L343.997 62.703C343.997 62.703 343.889 62.7111 343.84 62.7502C343.84 62.7502 343.84 62.7502 343.816 62.7697L343.888 62.7112C344.033 62.5941 344.178 62.4769 344.322 62.3598C344.419 62.2818 344.515 62.2037 344.611 62.1256C344.66 62.0866 344.708 62.0475 344.78 61.989C344.973 61.8329 345.184 61.7019 345.352 61.5653C345.593 61.3701 345.852 61.2002 346.087 61.0498C346.352 60.8351 346.635 60.6456 346.918 60.4561C349.532 58.5776 352.266 56.7609 355.174 55.0818C358.943 52.9041 362.965 50.92 367.076 49.2215C371.187 47.5229 376.579 45.7017 382.331 44.066C388.102 42.4555 393.83 41.1581 399.515 40.1739C405.2 39.1897 410.824 38.4933 416.429 38.0906C422.035 37.6879 427.562 37.548 433.1 37.6374C438.614 37.7463 444.092 38.1235 449.545 38.6798C454.998 39.236 460.397 40.0354 465.813 41.0195C471.211 41.9783 476.579 43.1608 481.929 44.4775C487.278 45.7942 492.609 47.2451 497.897 48.8497C499.256 49.2614 500.632 49.6983 502.008 50.1353L503.057 49.0472L503.147 49.0138Z" fill="#FFCC00"/>
</svg>
