<svg width="384" height="194" viewBox="0 0 384 194" fill="none" xmlns="http://www.w3.org/2000/svg">
<path d="M277.136 93.073C279.734 92.1305 282.351 91.3205 284.986 90.6433C287.597 89.96 290.245 89.4396 292.857 89.0638C295.493 88.6941 298.118 88.475 300.773 88.4429C303.404 88.4048 306.071 88.5294 308.715 88.853C311.359 89.1767 314.009 89.6812 316.66 90.3907C319.311 91.1002 321.962 92.0146 324.608 93.1583C327.254 94.3019 329.9 95.6505 332.535 97.2524C335.17 98.8542 338.659 101.257 342.453 104.197C346.246 107.136 349.809 110.173 353.162 113.336C356.514 116.498 359.637 119.758 362.548 123.144C365.465 126.507 368.171 129.996 370.702 133.569C373.208 137.137 375.533 140.813 377.69 144.55C379.84 148.31 381.79 152.15 383.596 156.055C385.402 159.961 387.026 163.975 388.512 168.032C389.778 171.522 390.906 175.054 391.967 178.647C389.562 179.843 387.134 181.032 384.76 182.21C384.584 182.294 384.409 182.379 384.21 182.457C384.216 182.433 384.204 182.379 384.185 182.349C382.839 178.147 381.371 174.018 379.759 169.956C378.146 165.893 376.364 161.891 374.432 157.979C372.499 154.068 370.391 150.241 368.108 146.498C365.825 142.756 363.366 139.098 360.703 135.542C358.039 131.987 355.2 128.516 352.15 125.172C349.1 121.828 345.82 118.581 342.334 115.436C338.843 112.315 335.146 109.297 331.184 106.418C327.228 103.515 324.653 101.877 321.946 100.359C319.215 98.8359 316.454 97.5356 313.693 96.4403C310.926 95.3692 308.184 94.509 305.443 93.8538C302.702 93.1987 299.961 92.7485 297.244 92.5094C294.504 92.2642 291.8 92.1818 289.073 92.2983C286.345 92.4149 283.655 92.6943 280.952 93.1244C278.298 93.5665 275.632 94.1594 272.985 94.8849C272.961 94.8789 272.906 94.8909 272.876 94.909C272.574 94.9876 272.235 95.1085 271.933 95.1871C272.622 94.8972 273.341 94.5892 274.054 94.3052C275.081 93.8945 276.108 93.4837 277.154 93.1031" fill="#009888"/>
<path d="M128.68 200.712C130.244 199.794 134.489 196.982 136.041 196.01C143.071 191.609 147.701 187.97 155.236 182.363C157.475 180.691 159.557 178.724 161.754 176.811C163.951 174.898 166.16 172.937 168.411 170.909C170.656 168.906 172.919 166.83 175.183 164.754C177.476 162.661 179.775 160.543 182.08 158.4C184.41 156.264 186.745 154.104 189.111 151.926C191.471 149.771 193.86 147.599 196.256 145.403C198.646 143.23 201.06 141.064 203.493 138.928C205.931 136.767 208.387 134.637 210.832 132.555C212.92 130.769 215.051 129.019 217.182 127.269C218.152 128.227 219.14 129.215 220.134 130.179C218.927 131.211 217.726 132.218 216.543 133.256C214.117 135.368 211.733 137.517 209.325 139.659C206.941 141.807 204.581 143.961 202.222 146.116C199.862 148.27 197.532 150.406 195.227 152.548C192.922 154.69 190.623 156.808 188.329 158.902C186.06 161.002 183.797 163.078 181.552 165.081C179.301 167.109 177.086 169.094 174.907 171.037C172.704 172.974 170.538 174.869 168.365 176.686C166.216 178.508 164.079 180.282 161.966 181.96C159.847 183.662 158.261 185.394 156.208 186.933C154.156 188.472 152.23 190.017 150.219 191.387C147.49 193.27 144.815 195.346 143.004 196.74C137.366 201.025 112.2 216.467 106.275 217.454C105.9 217.515 103.116 214.339 102.742 214.4C106.989 212.51 111.919 210.456 115.942 208.126C120.774 205.33 123.824 203.501 128.637 200.676" fill="#FFCC00"/>
<path d="M270.079 95.6916C270.376 95.6371 270.666 95.6068 270.962 95.5523C271.283 95.5038 271.603 95.4554 271.899 95.4009C273.798 95.104 275.702 94.8856 277.637 94.7515C280.431 94.5745 283.238 94.5543 286.044 94.7392C288.851 94.924 291.689 95.2957 294.527 95.8725C297.365 96.4492 300.203 97.2309 303.06 98.2477C305.918 99.2645 308.794 100.517 311.646 101.967C314.468 103.437 316.121 104.334 320.222 107.171C324.324 110.007 328.184 112.989 331.814 116.067C335.444 119.146 338.857 122.375 342.047 125.677C345.23 129.002 348.232 132.437 351.029 135.974C353.825 139.511 356.417 143.151 358.833 146.875C361.249 150.6 363.484 154.433 365.574 158.332C367.64 162.226 369.554 166.21 371.318 170.284C373.088 174.335 374.707 178.476 376.18 182.683C376.497 183.581 376.802 184.528 377.094 185.42C376.635 185.613 376.176 185.806 375.692 185.994C374.031 186.682 372.357 187.317 370.707 187.957C370.238 186.637 369.77 185.317 369.271 184.015C367.688 179.832 365.985 175.721 364.16 171.682C362.336 167.644 360.343 163.666 358.223 159.785C356.078 155.898 353.813 152.083 351.343 148.37C348.872 144.658 346.251 141.036 343.424 137.517C340.597 133.998 337.595 130.564 334.375 127.28C331.162 123.972 327.743 120.767 324.088 117.683C320.434 114.599 316.568 111.641 312.461 108.828C308.359 105.992 306.591 105.04 303.672 103.547C300.753 102.054 297.762 100.748 294.832 99.7129C291.903 98.678 288.973 97.8482 286.069 97.2293C283.158 96.6345 280.278 96.2267 277.399 96.0238C275.275 95.8807 273.146 95.8642 271.03 95.902C270.721 95.9022 270.407 95.9265 270.098 95.9268C269.814 95.933 269.53 95.9392 269.245 95.9455C269.088 95.9577 268.961 95.9517 268.804 95.9639C268.725 95.97 268.617 95.9942 268.538 96.0003C268.78 95.9579 269.028 95.8914 269.269 95.849C269.535 95.8126 269.801 95.7762 270.068 95.7399" fill="#FFCC00"/>
<path d="M105.227 205.503C110.199 203.281 112.566 201.615 116.414 199.676C116.94 199.423 121.203 196.64 121.674 196.296C123.262 195.179 124.464 194.479 126.076 193.266C128.195 191.667 130.314 189.965 132.469 188.221C134.63 186.452 136.809 184.612 139 182.723C141.196 180.81 143.43 178.855 145.675 176.852C147.92 174.848 150.183 172.772 152.476 170.678C154.769 168.585 157.075 166.442 159.41 164.282C161.746 162.122 164.087 159.937 166.459 157.735C168.83 155.533 171.226 153.336 173.652 151.121C176.078 148.907 178.498 146.716 180.973 144.514C183.417 142.329 185.91 140.157 188.397 138.009C190.883 135.86 193.412 133.748 195.936 131.66C198.483 129.578 201.018 127.544 203.59 125.571C205.812 123.869 208.046 122.221 210.298 120.604C211.504 121.748 212.71 122.893 213.911 124.062C213.687 124.237 213.446 124.382 213.222 124.557C210.675 126.536 208.115 128.564 205.592 130.652C203.075 132.716 200.57 134.834 198.083 136.982C195.597 139.131 193.134 141.285 190.69 143.47C188.246 145.654 185.801 147.838 183.405 150.035C180.985 152.225 178.614 154.428 176.248 156.606C173.882 158.785 171.541 160.969 169.212 163.105C166.882 165.241 164.577 167.383 162.289 169.453C159.996 171.547 157.739 173.599 155.5 175.578C153.255 177.581 151.052 179.519 148.837 181.401C146.622 183.284 144.473 185.107 142.318 186.851C140.163 188.595 138.026 190.267 135.931 191.872C133.818 193.447 131.747 194.956 129.676 196.362C128.776 196.984 127.858 197.576 126.97 198.149C125.835 198.892 124.712 199.586 123.57 200.25C122.06 201.155 120.575 201.965 119.076 202.719C113.386 205.66 100.665 212.694 94.225 213.066C93.6021 213.091 90.6269 210.79 90.01 210.79C89.8957 211.043 94.285 210.341 99.7405 207.828C100.985 207.267 103.952 205.98 105.196 205.419" fill="#009888"/>
<path d="M80.6158 208.813C82.2958 208.257 83.9999 207.604 85.7338 206.831C86.3138 206.565 86.8998 206.276 87.4556 206.004C88.8873 205.309 90.3009 204.585 91.7324 203.788C92.7773 203.202 93.804 202.587 94.8609 201.953C95.8634 201.331 96.8719 200.685 97.8804 200.039C99.4807 198.977 101.129 197.824 102.759 196.641C103.23 196.297 103.695 195.977 104.166 195.633C106.279 194.058 108.416 192.386 110.595 190.648C110.789 190.491 111.012 190.316 111.211 190.135C113.173 188.548 115.153 186.888 117.145 185.18C119.366 183.274 121.575 181.312 123.85 179.291C126.101 177.263 128.388 175.193 130.688 173.075C132.987 170.957 135.298 168.791 137.64 166.607C139.981 164.422 142.359 162.196 144.736 159.969C147.114 157.743 149.552 155.48 151.984 153.241C154.422 150.978 156.884 148.721 159.365 146.495C161.851 144.244 164.356 142.023 166.885 139.809C169.414 137.594 171.961 135.409 174.55 133.261C177.116 131.107 179.717 129.012 182.337 126.948C184.957 124.884 187.589 122.875 190.252 120.949C192.915 119.024 195.614 117.159 198.325 115.348C199.551 114.551 200.771 113.779 201.991 113.006C203.445 114.289 204.888 115.621 206.331 116.952C203.988 118.521 201.657 120.145 199.363 121.829C196.724 123.76 194.098 125.746 191.508 127.792C188.894 129.832 186.317 131.932 183.758 134.062C181.198 136.192 178.651 138.377 176.152 140.573C173.63 142.764 171.149 144.991 168.669 147.217C166.188 149.444 163.756 151.683 161.324 153.921C158.892 156.16 156.49 158.381 154.113 160.607C151.735 162.834 149.363 165.036 147.028 167.197C144.692 169.357 142.381 171.523 140.088 173.617C137.795 175.711 135.513 177.757 133.268 179.76C131.023 181.764 128.796 183.695 126.581 185.577C124.366 187.46 122.199 189.253 120.044 190.997C118.697 192.071 117.363 193.097 116.029 194.123C115.232 194.745 114.441 195.342 113.626 195.933C111.646 197.388 109.689 198.746 107.781 200.014C107.63 200.104 107.504 200.201 107.377 200.297C105.318 201.656 103.264 202.887 101.265 204.004C100.878 204.215 100.468 204.421 100.081 204.632C98.456 205.483 96.8613 206.316 95.2783 206.999C94.4989 207.343 93.7013 207.657 92.9037 207.971C91.7375 208.425 90.5772 208.854 89.4108 209.204C88.3531 209.53 87.3377 209.79 86.304 210.02C85.4335 210.214 84.569 210.383 83.7105 210.529C81.8423 210.807 79.9858 210.935 78.147 210.889C76.8406 210.872 75.5459 210.704 74.2631 210.488C76.1131 210.179 77.9689 209.743 79.8666 209.139C80.1204 209.048 80.3742 208.958 80.628 208.867" fill="#FFCC00"/>
<path d="M57.2674 208.304C57.624 208.213 57.9989 208.152 58.3555 208.062C60.1386 207.608 61.9335 207.004 63.7281 206.297C63.9275 206.219 64.0967 206.158 64.2961 206.08C66.2961 205.27 68.3321 204.316 70.3738 203.235C70.4342 203.199 70.5247 203.145 70.5851 203.108C72.5664 202.064 74.5535 200.893 76.5645 199.625C77.0174 199.353 77.4582 199.027 77.9171 198.732C79.5718 197.657 81.2142 196.528 82.8805 195.303C83.8224 194.615 84.7945 193.909 85.7483 193.173C86.9497 192.267 88.1329 191.332 89.3463 190.378C90.9158 189.129 92.4731 187.826 94.0606 186.504C94.6823 185.967 95.3222 185.46 95.9439 184.923C98.165 183.016 100.404 181.037 102.679 179.015C102.746 178.955 102.812 178.895 102.879 178.834C105.094 176.849 107.296 174.809 109.559 172.734C111.865 170.591 114.212 168.383 116.565 166.15C118.919 163.918 121.309 161.643 123.722 159.374C126.142 157.081 128.562 154.788 131.018 152.453C133.468 150.142 135.948 147.813 138.477 145.495C140.981 143.172 143.504 140.879 146.081 138.574C148.652 136.293 151.223 134.012 153.831 131.791C156.438 129.571 159.07 127.356 161.732 125.225C164.4 123.071 167.074 120.995 169.815 118.961C172.532 116.921 175.279 114.965 178.057 113.094C180.835 111.223 183.625 109.406 186.463 107.704C188.311 106.575 190.19 105.53 192.062 104.51C193.82 105.92 195.547 107.347 197.244 108.793C196.519 109.228 195.776 109.632 195.045 110.091C192.237 111.775 189.477 113.574 186.73 115.427C183.976 117.304 181.259 119.242 178.573 121.264C175.886 123.285 173.212 125.362 170.58 127.474C167.942 129.61 165.322 131.777 162.715 133.997C160.113 136.194 157.548 138.451 155.007 140.714C152.466 142.977 149.944 145.27 147.445 147.569C144.947 149.868 142.473 152.173 140.029 154.46C137.585 156.747 135.165 159.04 132.751 161.309C130.337 163.578 127.984 165.81 125.636 168.019C123.289 170.227 120.953 172.387 118.654 174.505C116.355 176.623 114.067 178.693 111.792 180.715C110.139 182.199 108.503 183.611 106.873 184.999C106.282 185.518 105.666 186.031 105.075 186.55C102.859 188.433 100.668 190.219 98.4949 191.933C98.3983 192.012 98.3077 192.066 98.2354 192.151C96.1587 193.786 94.106 195.325 92.0713 196.792C91.4132 197.269 90.7671 197.697 90.115 198.15C88.6597 199.146 87.2045 200.142 85.749 201.035C84.6559 201.711 83.5688 202.363 82.4877 202.991C81.5032 203.54 80.5488 204.072 79.5763 204.573C78.1627 205.297 76.7672 205.95 75.3534 206.572C74.7492 206.831 74.139 207.115 73.5408 207.351C71.9214 207.973 70.3259 208.499 68.7484 208.952C68.3858 209.067 67.999 209.176 67.6364 209.291C65.9137 209.708 64.2209 210.005 62.5338 210.175C62.3222 210.199 62.0804 210.241 61.8687 210.266C59.9519 210.43 58.0769 210.425 56.2257 210.222C54.5741 210.042 52.91 209.706 51.2819 209.224C51.6992 209.2 52.1104 209.2 52.5579 209.157C54.1361 209.011 55.7019 208.709 57.3098 208.34" fill="#009888"/>
<path d="M266.966 96.3337C267.123 96.4241 267.311 96.4963 267.474 96.5625C267.68 96.6648 267.916 96.749 268.122 96.8514C268.352 96.9598 268.576 97.0923 268.807 97.2006C270.296 97.9291 271.75 98.6997 273.197 99.4945C276.486 101.361 280.423 103.927 284.41 106.812C288.396 109.697 292.166 112.733 295.73 115.872C299.294 119.01 302.67 122.282 305.866 125.662C309.061 129.042 312.076 132.531 314.939 136.11C317.802 139.689 320.509 143.384 323.07 147.144C325.631 150.904 328.09 154.767 330.41 158.673C332.748 162.608 334.971 166.592 337.098 170.654C339.225 174.716 341.291 178.815 343.285 182.998C344.938 186.481 346.561 189.983 348.148 193.527C347.169 193.54 346.189 193.553 345.221 193.518C344.899 192.849 344.577 192.18 344.255 191.511C342.237 187.322 340.188 183.151 338.074 179.04C335.965 174.906 333.814 170.837 331.597 166.83C329.355 162.816 327.054 158.838 324.649 154.963C322.251 151.064 319.732 147.237 317.11 143.513C314.464 139.782 311.721 136.131 308.828 132.569C305.934 129.008 302.884 125.562 299.652 122.224C296.426 118.862 293.038 115.639 289.444 112.518C285.849 109.397 282.068 106.41 278.076 103.549C274.78 101.194 271.527 99.0798 268.613 97.3575C268.389 97.225 268.165 97.0926 267.965 96.9661C267.765 96.8396 267.584 96.7433 267.384 96.6168C267.226 96.5265 267.069 96.4361 266.936 96.3518C266.887 96.3398 266.821 96.2977 266.778 96.2615C266.73 96.2495 266.663 96.2073 266.621 96.1712L266.572 96.1592C266.572 96.1592 266.621 96.1712 266.645 96.1772C266.784 96.2374 266.899 96.2916 267.014 96.3458" fill="#009888"/>
<path d="M35.3931 205.567C36.9409 205.337 38.4825 205.028 40.06 204.575C40.5556 204.442 41.039 204.255 41.5406 204.098C43.0455 203.626 44.5683 203.082 46.1211 202.418C46.7555 202.14 47.3959 201.838 48.0363 201.536C49.4319 200.884 50.8636 200.19 52.2649 199.411C53.1589 198.916 54.0588 198.397 54.9647 197.853C56.1424 197.147 57.3261 196.417 58.5218 195.638C59.7778 194.823 61.0217 193.954 62.3017 193.042C63.1772 192.415 64.0467 191.811 64.904 191.153C66.6065 189.886 68.3028 188.54 70.0353 187.152C70.488 186.778 70.959 186.434 71.4117 186.06C73.6029 184.273 75.818 182.391 78.0512 180.435C78.1176 180.375 78.1839 180.315 78.2503 180.254C80.4231 178.335 82.6078 176.368 84.8347 174.335C85.5288 173.713 86.2348 173.043 86.9106 172.392C88.5158 170.895 90.1211 169.399 91.7383 167.854C93.1503 166.514 94.6046 165.108 96.0528 163.727C96.964 162.852 97.8751 161.977 98.7863 161.102C101.152 158.821 103.553 156.498 105.991 154.132C108.423 151.791 110.861 149.426 113.353 147.048C115.845 144.671 118.337 142.294 120.878 139.928C123.419 137.563 125.983 135.203 128.566 132.874C131.149 130.545 133.781 128.228 136.43 125.941C139.08 123.653 141.766 121.427 144.471 119.23C147.175 117.033 149.91 114.921 152.687 112.845C155.458 110.793 158.247 108.771 161.086 106.863C163.924 104.956 166.768 103.127 169.667 101.388C172.566 99.6497 175.489 98.0196 178.461 96.504C179.053 96.1901 179.657 95.9303 180.249 95.6164C182.333 97.0558 184.381 98.5375 186.393 100.061C183.566 101.511 180.787 103.074 178.009 104.74C175.141 106.461 172.326 108.272 169.519 110.161C166.711 112.05 163.951 114.054 161.21 116.088C158.464 118.146 155.759 120.24 153.061 122.413C150.362 124.586 147.731 126.8 145.093 129.039C142.449 131.302 139.854 133.577 137.301 135.888C134.724 138.194 132.189 140.535 129.655 142.876C127.144 145.223 124.634 147.571 122.178 149.906C119.722 152.241 117.266 154.576 114.84 156.893C112.414 159.21 110.019 161.509 107.659 163.766C105.3 166.023 102.947 168.256 100.635 170.422C100.195 170.85 99.7603 171.255 99.3016 171.653C97.4308 173.391 95.5601 175.129 93.7315 176.8C92.6029 177.826 91.4744 178.852 90.3276 179.847C89.2051 180.849 88.0885 181.827 86.9779 182.78C85.2456 184.271 83.5254 185.713 81.8413 187.113C81.3524 187.529 80.8393 187.94 80.3564 188.332C78.1712 190.094 76.0099 191.76 73.8666 193.353C73.8666 193.353 73.8304 193.396 73.8002 193.414C71.6931 194.965 69.5858 196.413 67.5024 197.766C67.0737 198.043 66.6569 198.273 66.2281 198.55C64.5553 199.595 62.8944 200.591 61.2635 201.466C60.5508 201.853 59.8198 202.209 59.119 202.547C57.7961 203.217 56.4609 203.833 55.1437 204.377C54.2253 204.764 53.3189 205.102 52.4185 205.416C51.3186 205.809 50.2308 206.153 49.1549 206.449C48.1637 206.716 47.1844 206.933 46.2111 207.127C45.2136 207.315 44.228 207.454 43.2485 207.569C42.2992 207.667 41.3558 207.74 40.4063 207.734C39.4265 207.747 38.4527 207.736 37.4727 207.646C35.555 207.503 33.6611 207.16 31.7909 206.619C31.0949 206.421 30.3867 206.168 29.6844 205.891C31.1421 205.92 32.6178 205.877 34.075 205.701C34.4982 205.652 34.9335 205.556 35.3567 205.507" fill="#FFCC00"/>
<path d="M340.384 192.914C340.553 192.956 340.723 192.998 340.892 193.04C339.27 190.153 337.673 187.272 336.069 184.416C333.791 180.341 331.507 176.291 329.218 172.265C326.928 168.239 324.602 164.256 322.234 160.338C319.871 156.397 317.443 152.516 314.942 148.719C312.447 144.898 309.855 141.156 307.173 137.468C304.491 133.78 301.706 130.195 298.795 126.706C295.883 123.217 292.827 119.795 289.637 116.493C286.448 113.191 283.108 109.98 279.58 106.902C276.053 103.823 272.374 100.835 268.479 97.9983C268.327 97.8839 268.151 97.7634 268 97.649C267.782 97.4924 267.564 97.3358 267.37 97.1852C267.176 97.0346 266.976 96.9081 266.806 96.7636C266.655 96.6491 266.479 96.5287 266.328 96.4142C266.194 96.3299 266.085 96.2516 265.958 96.1432C265.873 96.0709 265.782 96.0227 265.673 95.9444C265.607 95.9022 265.54 95.8601 265.498 95.8239C265.431 95.7818 265.364 95.7396 265.298 95.6975C265.164 95.6132 265.013 95.4987 264.88 95.4144C264.722 95.3241 264.595 95.2156 264.438 95.1253C264.153 94.9266 263.844 94.7218 263.559 94.5231C263.008 94.1557 262.457 93.7883 261.905 93.4209C262.874 93.9689 263.88 94.5771 264.903 95.2154C265.128 95.3479 265.352 95.4804 265.57 95.637C265.636 95.6791 265.727 95.7273 265.794 95.7695C265.842 95.7815 265.885 95.8176 265.927 95.8538C265.951 95.8598 266 95.8718 266.018 95.902C266.042 95.908 266.066 95.914 266.109 95.9501C266.2 95.9983 266.26 96.0645 266.351 96.1127C266.46 96.191 266.569 96.2693 266.684 96.3235C266.842 96.4138 266.993 96.5283 267.151 96.6186C267.351 96.7451 267.526 96.8655 267.726 96.992C267.95 97.1245 268.144 97.2751 268.368 97.4076C269.537 98.1845 270.701 98.9855 271.882 99.8167C275.881 102.654 279.692 105.623 283.298 108.696C286.898 111.792 290.317 114.997 293.579 118.317C296.841 121.637 299.922 125.065 302.876 128.59C305.83 132.115 308.632 135.731 311.309 139.443C313.985 143.155 316.57 146.921 319.053 150.79C321.542 154.635 323.929 158.583 326.231 162.56C328.557 166.544 330.792 170.582 333.016 174.668C335.215 178.749 337.408 182.853 339.559 187.024C340.659 189.115 341.753 191.231 342.822 193.34C342.544 193.322 342.266 193.304 341.988 193.286C341.661 193.257 341.328 193.251 341.001 193.221C340.856 193.185 340.699 193.197 340.548 193.185L340.39 192.89L340.384 192.914Z" fill="#FFCC00"/>
<path d="M338.18 192.842C338.143 192.68 338.131 192.523 338.094 192.36C338.167 192.378 338.24 192.396 338.288 192.408C338.288 192.408 338.312 192.414 338.336 192.42C337.529 191.221 336.728 189.998 335.908 188.744C333.268 184.785 330.706 180.819 328.168 176.86C325.631 172.9 323.111 168.971 320.616 165.048C318.115 161.149 315.613 157.25 313.07 153.417C310.527 149.584 307.977 145.775 305.355 142.051C302.74 138.303 300.076 134.645 297.321 131.041C294.567 127.438 291.746 123.895 288.822 120.454C285.875 117.007 282.83 113.639 279.677 110.398C276.506 107.126 273.178 103.969 269.717 100.933C268.748 100.078 267.742 99.2643 266.742 98.427C266.511 98.2161 266.275 98.0294 266.045 97.8186C265.833 97.6378 265.621 97.4571 265.384 97.2704C265.19 97.1198 265.002 96.9451 264.79 96.7644C264.621 96.6198 264.451 96.4752 264.281 96.3306C264.13 96.2161 263.954 96.0957 263.808 95.9571C263.615 95.8066 263.445 95.662 263.245 95.5355C263.051 95.3849 262.857 95.2343 262.663 95.0837C262.427 94.897 262.191 94.7103 261.93 94.5175C261.561 94.2465 261.221 93.9573 260.852 93.6862C260.355 93.3068 259.882 92.9333 259.409 92.5598C259.191 92.4032 258.997 92.2526 258.803 92.102C258.282 91.7166 257.731 91.3492 257.204 90.9878C256.289 90.3252 255.35 89.6567 254.405 89.0122C253.024 88.0546 251.606 87.1392 250.165 86.2178C250.237 86.2358 250.322 86.3081 250.389 86.3502C252.46 87.5305 254.816 89.0119 257.227 90.5838C258.112 91.162 258.966 91.7583 259.844 92.3605C260.438 92.7641 261.008 93.1616 261.571 93.5832C261.789 93.7398 262.031 93.9025 262.25 94.0591C262.425 94.1795 262.595 94.3241 262.789 94.4747C263.074 94.6734 263.328 94.8903 263.613 95.089C263.789 95.2095 263.958 95.3541 264.134 95.4745C264.267 95.5589 264.37 95.6613 264.504 95.7456C264.613 95.8239 264.722 95.9022 264.849 96.0106C264.958 96.0889 265.085 96.1974 265.194 96.2757C265.346 96.3901 265.473 96.4986 265.625 96.613C265.794 96.7576 265.994 96.8841 266.164 97.0286C266.382 97.1852 266.576 97.3358 266.794 97.4924C267.012 97.649 267.248 97.8358 267.467 97.9924C269.515 99.5766 271.502 101.197 273.448 102.884C276.981 105.938 280.358 109.107 283.601 112.397C286.827 115.656 289.914 119.06 292.861 122.507C295.827 125.984 298.648 129.527 301.391 133.179C304.139 136.806 306.785 140.537 309.371 144.303C311.956 148.07 314.47 151.92 316.922 155.808C319.399 159.701 321.816 163.63 324.245 167.614C326.65 171.591 329.048 175.593 331.465 179.625C333.882 183.657 336.299 187.689 338.788 191.739C338.971 192.04 339.171 192.371 339.377 192.679C339.45 192.697 339.547 192.721 339.619 192.739C339.601 192.811 339.608 192.89 339.644 192.95L339.735 193.1C339.735 193.1 339.663 193.082 339.614 193.07C339.312 193.047 338.991 192.993 338.67 192.939C338.573 192.914 338.501 192.896 338.398 192.896C338.325 192.878 338.229 192.854 338.15 192.861C338.15 192.861 338.15 192.86 338.156 192.836" fill="#009888"/>
<path d="M122.338 54.1652C125.833 53.7526 129.419 53.4907 133.06 53.4217C135.153 53.3779 137.306 53.4004 139.441 53.4953C140.996 53.5484 142.574 53.6075 144.159 53.745C146.077 53.8883 147.982 54.0798 149.925 54.3316C151.818 54.5714 153.724 54.8654 155.642 55.2137C156.973 55.4418 158.311 55.7483 159.654 56.0307C162.268 56.5775 164.864 57.1966 167.534 57.9362C168.139 58.0865 168.75 58.3151 169.349 58.4895C172.394 59.3736 175.481 60.3963 178.61 61.5577C179.034 61.7141 179.44 61.8404 179.863 61.9969C182.352 62.9477 184.822 63.9708 187.231 65.0302C188.854 65.7404 190.471 66.4749 192.033 67.2214C193.111 67.7451 194.177 68.3171 195.273 68.871C197.713 70.1172 200.135 71.4359 202.528 72.8751C202.867 73.0618 203.182 73.2425 203.521 73.4291C205.399 74.5612 207.246 75.7115 209.058 76.9039C210.917 78.1084 212.741 79.3552 214.534 80.62C214.667 80.7043 214.795 80.8128 214.928 80.8971C216.673 82.1499 218.412 83.4268 220.096 84.7158C221.672 85.9266 223.223 87.1313 224.738 88.3783C224.738 88.3783 224.786 88.3903 224.805 88.4204C226.15 89.5228 227.465 90.6433 228.804 91.7698C230.011 92.812 231.192 93.8482 232.368 94.9085C233.059 95.541 233.781 96.1555 234.472 96.7881C234.829 97.1074 235.181 97.4508 235.514 97.7641C236.454 98.6376 237.387 99.5353 238.327 100.409C239.157 101.204 240.006 102.03 240.831 102.849C241.595 103.602 242.364 104.331 243.098 105.102C243.286 105.277 243.468 105.476 243.656 105.651C244.147 106.157 244.662 106.669 245.153 107.175C245.79 107.819 246.402 108.458 247.039 109.103C247.615 109.681 248.185 110.284 248.737 110.856C250.022 112.2 251.302 113.567 252.581 114.935C255.522 118.098 258.451 121.31 261.374 124.545C264.291 127.805 267.226 131.095 270.18 134.415C273.133 137.735 276.129 141.091 279.173 144.459C282.218 147.828 285.335 151.214 288.53 154.594C291.726 157.974 295.018 161.378 298.425 164.734C301.826 168.114 305.336 171.47 309.01 174.789C312.683 178.109 314.538 179.85 317.246 181.88C319.955 183.91 322.68 185.662 325.442 187.167C328.204 188.673 330.977 189.925 333.779 190.954C334.651 191.273 335.541 191.519 336.4 191.784C336.521 191.814 336.642 191.844 336.782 191.904C336.83 191.916 336.878 191.928 336.927 191.94C337.096 191.982 337.236 192.042 337.405 192.084C337.405 192.084 337.393 192.133 337.387 192.157C337.418 192.344 337.448 192.531 337.479 192.718C337.479 192.718 337.431 192.706 337.407 192.699C337.358 192.687 337.334 192.681 337.285 192.669C335.355 192.369 333.461 192.027 331.549 191.552C328.62 190.825 325.727 189.85 322.869 188.628C320.011 187.407 317.165 185.931 314.355 184.209C311.55 182.463 308.781 180.469 306.042 178.15C303.303 175.83 299.254 172.264 295.671 168.993C292.089 165.721 288.646 162.408 285.329 159.1C281.989 155.787 278.751 152.473 275.61 149.183C272.451 145.863 269.359 142.585 266.345 139.302C263.307 136.012 260.335 132.764 257.382 129.547C254.429 126.329 251.494 123.142 248.547 120.003C246.898 118.262 245.248 116.52 243.593 114.803C242.938 114.128 242.302 113.484 241.647 112.809C240.992 112.134 240.319 111.429 239.664 110.754C239.622 110.718 239.561 110.652 239.519 110.616C238.718 109.802 237.936 109.019 237.13 108.23C236.263 107.374 235.402 106.495 234.511 105.633C233.535 104.699 232.583 103.772 231.607 102.838C231.274 102.524 230.946 102.187 230.613 101.874C229.885 101.181 229.128 100.506 228.37 99.8314C227.176 98.741 225.982 97.6506 224.782 96.5842C223.6 95.5481 222.424 94.4878 221.212 93.4697C221.061 93.3553 220.909 93.2408 220.788 93.1083C219.303 91.8432 217.806 90.6264 216.309 89.4095C214.679 88.1084 213.019 86.8254 211.328 85.5605C211.304 85.5545 211.262 85.5183 211.244 85.4882C209.402 84.1088 207.523 82.7717 205.615 81.4527C204.04 80.3444 202.428 79.2784 200.811 78.2365C200.345 77.9415 199.836 77.6102 199.345 77.3091C197.104 75.8818 194.778 74.4847 192.477 73.1961C191.483 72.6422 190.49 72.0882 189.515 71.5644C187.971 70.7455 186.415 69.9749 184.834 69.1983C182.564 68.0966 180.263 67.013 177.895 65.9898C177.429 65.7972 176.963 65.6046 176.497 65.412C173.633 64.2143 170.63 63.0589 167.701 62.024C166.896 61.7472 166.09 61.4705 165.31 61.1997C162.985 60.4176 160.661 59.738 158.373 59.1187C156.618 58.6316 154.857 58.1687 153.132 57.766C151.607 57.3873 150.107 57.1171 148.588 56.8167C146.161 56.3422 143.747 55.922 141.388 55.5921C140.42 55.4541 139.488 55.3764 138.538 55.2686C135.664 54.9391 132.821 54.694 130.045 54.5936C129.41 54.5639 128.763 54.5825 128.121 54.577C125.079 54.5129 122.067 54.5332 119.122 54.6982C118.42 54.7289 117.731 54.8138 117.024 54.8686C118.765 54.5839 120.524 54.3294 122.302 54.105" fill="#009888"/>
<path d="M14.7673 201.572C16.1157 201.421 17.4701 201.245 18.8302 200.942C19.4286 200.809 20.0391 200.628 20.6435 200.471C22.0458 200.102 23.4661 199.661 24.8801 199.141C25.5327 198.893 26.1913 198.622 26.8559 198.326C28.2335 197.746 29.6231 197.118 31.0306 196.417C31.828 196.001 32.6556 195.566 33.4589 195.125C34.7152 194.413 36.0017 193.682 37.276 192.897C38.3389 192.239 39.3836 191.551 40.4585 190.845C41.5092 190.133 42.5658 189.396 43.6285 188.636C45.0051 187.646 46.3997 186.584 47.7943 185.522C48.5549 184.942 49.3216 184.339 50.0883 183.735C51.8872 182.287 53.704 180.766 55.5328 179.197C55.895 178.877 56.2813 178.564 56.6434 178.244C58.8404 176.331 61.0855 174.327 63.3486 172.252C63.4512 172.149 63.5779 172.052 63.6805 171.95C65.8168 169.971 67.9893 167.949 70.1738 165.879C70.8496 165.228 71.5556 164.558 72.2315 163.906C73.8547 162.337 75.4779 160.769 77.1372 159.158C78.4647 157.848 79.8224 156.521 81.18 155.193C82.1998 154.192 83.2135 153.214 84.2392 152.188C86.3089 150.167 88.3906 148.097 90.4904 146.058C90.8284 145.732 91.1663 145.406 91.5102 145.056C93.954 142.667 96.4339 140.235 98.9321 137.833C101.43 135.432 103.959 133.012 106.535 130.605C109.082 128.215 111.677 125.838 114.321 123.472C116.934 121.125 119.595 118.789 122.293 116.514C124.967 114.233 127.708 111.994 130.455 109.834C133.207 107.649 135.99 105.549 138.81 103.509C141.63 101.469 144.486 99.4889 147.366 97.6176C150.247 95.7464 153.182 93.9655 156.147 92.2691C159.107 90.5967 162.097 89.0088 165.154 87.5655C165.565 87.3602 165.994 87.185 166.405 86.9797C166.901 87.2567 167.422 87.5397 167.943 87.8227C169.875 88.9427 171.795 90.111 173.661 91.2914C172.555 91.8107 171.45 92.33 170.356 92.9037C167.354 94.4374 164.4 96.0856 161.477 97.8182C158.548 99.5749 155.649 101.416 152.805 103.348C149.937 105.273 147.117 107.313 144.34 109.389C141.557 111.49 138.786 113.644 136.058 115.835C133.323 118.05 130.631 120.301 127.975 122.612C125.295 124.917 122.682 127.264 120.069 129.612C117.474 131.989 114.879 134.367 112.332 136.756C109.786 139.146 107.257 141.566 104.789 143.949C102.291 146.351 99.8232 148.734 97.4096 151.105C96.0218 152.451 94.6641 153.778 93.3064 155.106C92.2565 156.126 91.2066 157.145 90.1566 158.165C88.0869 160.186 86.0293 162.16 84.0018 164.115C83.7 164.398 83.3863 164.73 83.0604 165.008C80.7312 167.246 78.4139 169.437 76.1146 171.555C75.7827 171.856 75.481 172.14 75.1491 172.442C73.1817 174.258 71.2506 176.032 69.3072 177.752C68.4502 178.512 67.5991 179.249 66.7541 179.961C65.378 181.155 64.0078 182.326 62.6437 183.473C61.3519 184.535 60.0964 185.555 58.8226 186.545C57.9231 187.269 57.0055 187.963 56.112 188.663C54.4941 189.9 52.8759 191.035 51.2637 192.145C50.7383 192.502 50.207 192.882 49.6817 193.238C47.8037 194.487 45.9557 195.616 44.1256 196.673C43.884 196.818 43.6122 196.981 43.3766 197.101C41.3774 198.218 39.3779 199.233 37.3901 200.096C37.3055 200.127 37.2451 200.163 37.1605 200.193C35.1123 201.093 33.0819 201.818 31.0571 202.416C31.0571 202.416 31.0087 202.404 31.0027 202.429C29.0082 203.009 27.0556 203.42 25.0906 203.675C23.2042 203.924 21.3354 203.997 19.4844 203.896C19.3876 203.872 19.2788 203.896 19.1518 203.89C17.198 203.789 15.2437 203.483 13.3071 203.002C11.9999 202.678 10.7044 202.202 9.43918 201.709C10.6066 201.768 11.7558 201.798 12.9048 201.725C13.5519 201.706 14.1928 201.609 14.8277 201.536" fill="#009888"/>
<path d="M-4.81896 197.249C-4.05704 197.182 -3.28915 197.091 -2.51526 196.976C-1.39073 196.794 -0.302633 196.552 0.821648 196.268C1.72831 196.032 2.63498 195.796 3.55362 195.512C4.61726 195.162 5.6869 194.787 6.76851 194.364C7.73532 193.99 8.71411 193.567 9.69889 193.12C10.8287 192.607 11.9764 192.021 13.1 191.429C14.0423 190.946 14.9725 190.409 15.9268 189.878C17.1891 189.141 18.4936 188.338 19.7858 187.481C20.6132 186.944 21.4162 186.401 22.2495 185.839C23.7652 184.807 25.2805 183.672 26.8019 182.514C27.4056 182.049 28.0335 181.59 28.6432 181.101C30.4663 179.659 32.3316 178.15 34.1846 176.587C34.5105 176.31 34.8305 176.056 35.1564 175.779C37.3414 173.914 39.5503 171.953 41.7772 169.919L41.9462 169.756C44.1127 167.759 46.3154 165.719 48.536 163.607C49.0127 163.137 49.5136 162.672 49.9903 162.202C51.7824 160.47 53.5806 158.714 55.4089 156.94C56.3563 156.023 57.3216 155.033 58.275 154.092C59.6688 152.722 61.0324 151.371 62.4383 149.953C63.8803 148.492 65.3767 147.02 66.8489 145.542C67.7721 144.619 68.6892 143.72 69.6184 142.772C71.6396 140.739 73.6851 138.712 75.7366 136.66C76.1468 136.25 76.5269 135.858 76.9372 135.447C79.4172 133.016 81.9091 130.536 84.4435 128.092C84.6427 127.911 84.8418 127.73 85.0168 127.543C87.352 125.28 89.7114 123.023 92.1133 120.803C94.7203 118.377 97.3455 115.981 99.9889 113.616C102.657 111.256 105.342 108.927 108.065 106.658C110.787 104.389 113.552 102.156 116.347 100.007C119.142 97.8588 121.98 95.7464 124.842 93.7425C127.704 91.7387 130.626 89.801 133.579 87.9478C136.527 86.1187 139.528 84.38 142.555 82.7498C145.079 81.3793 147.653 80.1233 150.233 78.9456C152.394 79.8665 154.495 80.8237 156.512 81.811C157.178 82.13 157.838 82.4732 158.498 82.8164C157.978 83.0459 157.459 83.2754 156.933 83.529C153.846 84.9904 150.826 86.5965 147.812 88.2809C144.822 89.9714 141.85 91.7945 138.94 93.6838C136.029 95.5732 133.143 97.5711 130.293 99.6292C127.443 101.687 124.648 103.836 121.865 106.039C119.082 108.241 116.36 110.511 113.656 112.81C110.952 115.109 108.284 117.468 105.641 119.834C102.997 122.199 100.39 124.625 97.8135 127.033C95.2308 129.465 92.6964 131.908 90.168 134.328C89.3232 135.143 88.5026 135.963 87.6579 136.778C85.9925 138.413 84.3331 140.024 82.6979 141.641C81.2317 143.095 79.8017 144.507 78.3656 145.943C77.3761 146.927 76.3866 147.91 75.403 148.87C73.3937 150.855 71.4146 152.822 69.4416 154.765C69.0615 155.157 68.6512 155.567 68.2528 155.929C65.9057 158.24 63.5645 160.527 61.2654 162.748C61.1267 162.893 60.9939 163.013 60.8611 163.134C58.6949 165.234 56.5466 167.261 54.4103 169.241C53.7766 169.826 53.1732 170.393 52.5455 170.954C50.9161 172.445 49.2926 173.911 47.6812 175.329C46.6612 176.228 45.6412 177.128 44.609 177.972C43.432 178.986 42.267 179.952 41.0778 180.911C39.7257 182.01 38.3915 183.036 37.0573 184.062C36.2303 184.701 35.4092 185.317 34.5941 185.908C32.9941 187.073 31.4423 188.148 29.8723 189.192C29.3228 189.542 28.7612 189.94 28.2177 190.266C26.4784 191.371 24.7692 192.355 23.0537 193.261C22.6731 193.448 22.3047 193.689 21.9241 193.877C20.124 194.813 18.3296 195.622 16.5592 196.335C16.2752 196.443 16.0094 196.582 15.7254 196.691C13.967 197.356 12.2385 197.899 10.4856 198.335C10.1834 198.413 9.90535 198.498 9.60313 198.577C7.965 198.964 6.3144 199.194 4.70597 199.358C4.33712 199.395 3.96227 199.455 3.56922 199.486C2.1844 199.577 0.80532 199.542 -0.561771 199.459C-1.16671 199.411 -1.77763 199.387 -2.40078 199.309C-4.39726 199.069 -6.37003 198.631 -8.31908 197.993C-8.93649 197.789 -9.54192 197.536 -10.1231 197.289C-9.63924 197.307 -9.14311 197.379 -8.65322 197.372C-7.42538 197.396 -6.17358 197.322 -4.9098 197.201" fill="#FFCC00"/>
<path d="M246.553 84.3206C247.898 85.218 249.218 86.1093 250.533 87.0248C251.629 87.7837 252.696 88.5607 253.756 89.3618C254.235 89.7112 254.719 90.0364 255.174 90.3797C255.519 90.6448 255.84 90.9038 256.186 91.1688C256.81 91.6567 257.434 92.1447 258.076 92.6627C258.573 93.0422 259.07 93.4217 259.537 93.8193C259.925 94.1205 260.312 94.4216 260.694 94.7469C260.973 94.9698 261.222 95.2108 261.5 95.4337C261.712 95.6144 261.943 95.8253 262.155 96.006C262.391 96.1927 262.622 96.4036 262.828 96.6084C263.04 96.7891 263.276 96.9759 263.482 97.1807C263.713 97.3916 263.949 97.5783 264.179 97.7892C264.434 98.006 264.688 98.2229 264.919 98.4338C265.173 98.6507 265.452 98.8735 265.701 99.1145C265.749 99.1266 265.785 99.1868 265.804 99.217C269.186 102.259 272.441 105.398 275.588 108.664C278.717 111.899 281.743 115.237 284.666 118.678C287.596 122.094 290.399 125.607 293.165 129.163C295.926 132.742 298.62 136.382 301.278 140.064C303.936 143.746 306.551 147.494 309.155 151.291C311.765 155.063 314.357 158.908 316.979 162.735C319.595 166.586 322.211 170.436 324.894 174.329C327.558 178.192 330.295 182.073 333.081 185.966C334.652 188.123 336.072 190.166 337.396 192.083C337.117 191.962 336.839 191.842 336.56 191.722C334.703 189.263 332.792 186.611 330.298 183.406C327.332 179.621 324.45 175.807 321.64 172.01C318.831 168.214 316.076 164.406 313.339 160.627C310.602 156.849 307.938 153.088 305.243 149.346C302.549 145.604 299.867 141.916 297.173 138.276C294.454 134.63 291.724 131.033 288.952 127.502C286.155 123.965 283.34 120.5 280.435 117.089C277.524 113.703 274.522 110.371 271.417 107.141C269.089 104.719 266.67 102.352 264.215 100.026C263.948 99.755 263.651 99.5019 263.384 99.2308C263.093 98.9537 262.821 98.7067 262.554 98.4355C262.305 98.1945 262.057 97.9536 261.808 97.7126C261.784 97.7066 261.766 97.6764 261.723 97.6403C261.426 97.3873 261.154 97.1402 260.857 96.8872C260.56 96.6342 260.263 96.3812 259.99 96.1342C259.651 95.8451 259.317 95.5318 258.978 95.2426C258.596 94.9173 258.22 94.5679 257.838 94.2426C257.396 93.851 256.953 93.4594 256.505 93.092C255.911 92.5859 255.263 92.092 254.663 91.6101C253.893 90.9836 253.124 90.3571 252.33 89.7246C252.009 89.4656 251.693 89.1825 251.342 88.9416C250.694 88.4476 250.015 87.9718 249.343 87.4719C248.197 86.5985 247.028 85.719 245.852 84.8637C244.453 83.876 243.023 82.9063 241.588 81.9608C241.036 81.5934 240.515 81.2079 239.94 80.8345C238.789 80.0877 237.656 79.371 236.542 78.6845C234.779 77.6065 233.029 76.5829 231.309 75.6436C231.563 75.7579 231.841 75.8783 232.12 75.9987C235.22 77.4856 238.236 79.1053 241.495 81.0926C242.143 81.484 242.791 81.8754 243.481 82.303C244.529 82.9474 245.535 83.6581 246.553 84.3206Z" fill="#FFCC00"/>
<path d="M-23.4979 193.339C-22.73 193.248 -21.9621 193.157 -21.2064 193.012C-20.1847 192.83 -19.151 192.601 -18.1054 192.322C-17.1141 192.056 -16.1169 191.766 -15.1076 191.428C-14.2072 191.114 -13.2766 190.781 -12.3642 190.419C-11.2281 189.984 -10.1044 189.495 -8.96859 188.957C-8.09261 188.535 -7.21065 188.088 -6.29849 187.623C-5.11455 186.995 -3.95482 186.361 -2.75291 185.661C-1.7866 185.081 -0.814283 184.477 0.164013 183.85C1.26909 183.125 2.40438 182.383 3.52743 181.586C4.65048 180.789 5.77952 179.969 6.92054 179.1C7.89859 178.369 8.88863 177.591 9.87866 176.812C11.255 175.72 12.6434 174.579 14.0135 173.409C14.7921 172.757 15.5406 172.123 16.3252 171.447C18.0273 169.975 19.7231 168.424 21.4491 166.855C21.9198 166.409 22.4087 165.992 22.8794 165.546C24.9131 163.669 26.9708 161.696 29.0405 159.674C29.2095 159.512 29.3724 159.373 29.5414 159.21C31.78 157.026 34.0548 154.799 36.3234 152.494C36.4924 152.331 36.6614 152.168 36.8061 151.999C38.9299 149.863 41.084 147.709 43.25 145.507C43.7628 144.994 44.2757 144.481 44.7644 143.962C46.5925 142.086 48.4448 140.215 50.309 138.297C51.1718 137.41 52.095 136.486 52.9819 135.605C54.4963 134.061 56.0107 132.516 57.5553 130.953C58.8585 129.638 60.186 128.329 61.5134 127.019C62.6719 125.873 63.8062 124.72 64.9648 123.574C66.7387 121.812 68.5852 120.068 70.3834 118.312C71.1196 117.624 71.8134 116.9 72.5496 116.212C74.9031 113.98 77.2807 111.753 79.7068 109.539C79.9361 109.34 80.1171 109.128 80.3404 108.953C82.9656 106.558 85.6333 104.198 88.3373 101.899C91.0474 99.5757 93.7939 97.3127 96.5526 95.1039C99.3355 92.9011 102.155 90.7585 105.005 88.7004C107.855 86.6423 110.765 84.6504 113.706 82.7429C116.647 80.8355 119.636 79.0425 122.656 77.334C125.676 75.6254 128.745 74.0314 131.862 72.5519C132.007 72.4854 132.176 72.425 132.327 72.3344C135.311 73.2547 138.344 74.2895 141.425 75.4388C140.006 76.085 138.604 76.7614 137.221 77.4678C134.14 79.0076 131.126 80.6921 128.118 82.4549C125.134 84.2237 122.175 86.1011 119.271 88.0688C116.366 90.0365 113.498 92.0645 110.685 94.1829C107.847 96.2953 105.065 98.4981 102.324 100.737C99.5835 102.976 96.8553 105.269 94.1876 107.629C91.5018 109.958 88.8524 112.348 86.2514 114.749C84.9177 115.98 83.6324 117.223 82.2987 118.454C81.0254 119.649 79.7581 120.82 78.509 122.02C76.6504 123.813 74.8161 125.611 72.9818 127.409C72.3059 128.06 71.6241 128.736 70.9483 129.388C68.6313 131.681 66.3445 133.956 64.0819 136.236C63.9129 136.399 63.738 136.586 63.569 136.749C61.1375 139.193 58.7361 141.619 56.365 144.026C56.0874 144.316 55.8159 144.581 55.5444 144.847C53.4507 146.964 51.3631 149.058 49.3116 151.11C48.6298 151.786 47.9782 152.443 47.2964 153.119C45.6552 154.76 44.02 156.377 42.415 157.976C41.3651 158.996 40.3454 159.998 39.2954 161.017C38.0765 162.2 36.8636 163.359 35.6507 164.517C34.2689 165.839 32.8748 167.106 31.5049 168.379C30.6721 169.145 29.8453 169.888 29.0185 170.63C27.3044 172.151 25.6084 173.599 23.9425 175.029C23.4596 175.421 22.9889 175.868 22.506 176.26C20.5683 177.853 18.6487 179.374 16.7228 180.817C16.5054 180.968 16.3062 181.149 16.0889 181.299C14.006 182.857 11.9228 184.311 9.84544 185.639C9.81524 185.657 9.78505 185.675 9.75485 185.694C7.64727 187.04 5.56962 188.265 3.49773 189.364C3.41313 189.394 3.35273 189.431 3.26813 189.461C1.28683 190.505 -0.718925 191.441 -2.68874 192.233C-2.77334 192.263 -2.85794 192.293 -2.91833 192.329C-4.88215 193.097 -6.84023 193.737 -8.78658 194.227C-10.6241 194.693 -12.4439 194.983 -14.264 195.172C-14.4514 195.202 -14.663 195.226 -14.8504 195.256C-16.3501 195.396 -17.8621 195.379 -19.3623 195.314C-19.8704 195.29 -20.3603 195.297 -20.8866 195.243C-22.895 195.051 -24.8798 194.661 -26.8952 194.084C-27.4278 193.951 -27.9122 193.729 -28.4328 193.548C-28.0517 193.566 -27.6706 193.584 -27.2895 193.602C-26.0255 193.583 -24.7677 193.485 -23.5221 193.333" fill="#009888"/>
<path d="M463.04 212.604C459.785 212.257 456.579 212.024 453.446 211.912C450.289 211.793 447.204 211.796 444.15 211.882C441.096 211.969 438.102 212.122 435.151 212.311C432.194 212.524 429.28 212.774 426.413 213.035C423.541 213.321 420.717 213.618 417.924 213.898C415.13 214.177 412.385 214.468 409.67 214.742C408.751 214.821 407.856 214.906 406.937 214.985C405.153 215.131 403.393 215.283 401.64 215.411C400.884 215.454 400.128 215.497 399.372 215.539C397.497 215.637 395.653 215.717 393.79 215.766C393.221 215.779 392.659 215.767 392.09 215.78C390.082 215.793 388.086 215.759 386.108 215.652C385.806 215.628 385.503 215.604 385.201 215.58C383.023 215.449 380.888 215.252 378.752 214.952C378.704 214.94 378.655 214.928 378.607 214.916C376.647 214.634 374.71 214.255 372.786 213.829C372.278 213.702 371.733 213.618 371.225 213.492C369.917 213.167 368.598 212.789 367.291 212.361C366.171 212.007 365.057 211.628 363.955 211.2C363.392 210.984 362.817 210.713 362.254 210.496C360.74 209.864 359.221 209.154 357.713 208.395C357.416 208.245 357.113 208.118 356.798 207.938C355.757 207.372 354.721 206.782 353.673 206.137C352.486 205.433 351.317 204.656 350.13 203.849C349.996 203.764 349.863 203.68 349.736 203.572C348.857 202.969 347.997 202.295 347.112 201.614C346.246 200.963 345.415 200.271 344.567 199.548C344.076 199.144 343.585 198.741 343.1 198.313C343.318 198.265 343.542 198.192 343.759 198.144C344.061 198.065 344.364 197.986 344.666 197.908C344.908 198.07 345.156 198.209 345.399 198.371C346.132 198.835 346.889 199.305 347.628 199.745C347.852 199.877 348.106 199.991 348.33 200.124C349.481 200.768 350.619 201.358 351.794 201.906C352.896 202.436 354.01 202.917 355.106 203.369C355.318 203.447 355.53 203.525 355.766 203.609C357.267 204.187 358.756 204.711 360.288 205.168C361.099 205.42 361.91 205.673 362.709 205.871C363.58 206.088 364.433 206.274 365.311 206.466C367.017 206.839 368.711 207.157 370.43 207.379C370.575 207.415 370.708 207.397 370.853 207.433C372.844 207.697 374.858 207.864 376.891 207.959C377.35 207.971 377.828 208.013 378.282 208.048C380.018 208.095 381.742 208.088 383.471 208.057C384.403 208.032 385.328 208.031 386.265 207.982C387.699 207.903 389.132 207.823 390.553 207.69C391.841 207.574 393.129 207.458 394.423 207.319C395.662 207.191 396.884 207.034 398.135 206.858C399.653 206.646 401.195 206.44 402.742 206.209C403.861 206.052 404.961 205.864 406.086 205.682C407.797 205.416 409.514 205.125 411.237 204.81C414.109 204.32 416.986 203.805 419.918 203.278C422.844 202.776 425.825 202.261 428.824 201.776C431.822 201.292 434.858 200.868 437.935 200.479C441.013 200.091 444.121 199.787 447.29 199.55C450.452 199.337 453.645 199.208 456.887 199.193C460.129 199.179 463.413 199.303 466.735 199.59C470.056 199.877 473.42 200.302 476.838 200.921C480.178 201.545 483.555 202.333 486.975 203.361L482.924 216.568C479.523 215.57 476.182 214.741 472.902 214.08C469.52 213.419 466.228 212.909 462.974 212.562" fill="#FFCC00"/>
<path d="M335.13 190.441C335.13 190.441 335.088 190.507 335.076 190.555C335.07 190.579 335.064 190.603 335.058 190.628C334.343 189.989 333.651 189.356 332.942 188.694C330.511 186.374 328.11 183.832 325.726 181.012C323.319 178.186 319.607 174.191 316.496 170.576C313.36 166.954 310.352 163.339 307.373 159.705C304.419 156.078 301.513 152.462 298.656 148.859C295.799 145.255 292.984 141.688 290.163 138.145C287.342 134.602 284.563 131.095 281.749 127.63C278.934 124.165 276.077 120.767 273.208 117.416C270.315 114.06 267.404 110.776 264.397 107.571C262.893 105.968 261.383 104.39 259.861 102.859C259.491 102.486 259.116 102.136 258.746 101.763C258.352 101.383 257.964 100.98 257.57 100.6C257.157 100.19 256.745 99.7807 256.333 99.371C255.939 98.9914 255.551 98.5877 255.157 98.2082C255.114 98.172 255.072 98.1359 255.029 98.0998C254.526 97.6419 254.023 97.184 253.544 96.7322C253.023 96.2442 252.477 95.7502 251.956 95.2622C251.35 94.7019 250.726 94.1115 250.119 93.5512C249.386 92.8825 248.616 92.256 247.859 91.5813C247.01 90.8584 246.192 90.1174 245.319 89.3885C245.295 89.3824 245.271 89.3764 245.259 89.3222C244.192 88.4427 243.095 87.5813 242.004 86.6958C240.738 85.6898 239.465 84.708 238.169 83.7201C237.018 82.8708 235.897 82.0034 234.721 81.1481C234.394 80.9132 234.061 80.7024 233.734 80.4675C232.031 79.2509 230.293 78.0765 228.524 76.9201C226.797 75.7999 225.041 74.6978 223.23 73.6079C223.072 73.5175 222.939 73.4332 222.806 73.3489C220.522 71.988 218.324 70.8018 216.156 69.7001C214.697 68.9535 213.231 68.2311 211.76 67.5327C210.724 67.0451 209.659 66.5756 208.569 66.1001C205.808 64.9023 202.951 63.783 200.166 62.7842C201.389 63.139 202.617 63.4697 203.852 63.8788C207.799 65.1661 212 66.7729 215.869 68.4763C216.353 68.699 216.819 68.8916 217.304 69.1144C219.78 70.2159 222.075 71.3236 224.612 72.6964C225.406 73.1239 226.242 73.5876 227.12 74.0874C228.107 74.6654 229.064 75.2616 230.021 75.8578C231.875 76.9839 233.698 78.1282 235.461 79.3086C236.606 80.0795 237.781 80.8323 238.902 81.5972C239.338 81.9104 239.768 82.2478 240.204 82.561C241.58 83.5427 242.955 84.5245 244.3 85.5244C245.403 86.3616 246.494 87.2471 247.59 88.1085C248.299 88.6687 249.032 89.235 249.741 89.7952C249.978 89.9819 250.184 90.1867 250.42 90.3735C251.166 90.994 251.863 91.6024 252.584 92.2169C253.202 92.7289 253.82 93.241 254.408 93.7711C254.917 94.2048 255.396 94.6567 255.875 95.1085C256.293 95.4941 256.712 95.8797 257.13 96.2653C257.506 96.6147 257.906 96.9701 258.281 97.3195C258.633 97.6629 259.015 97.9882 259.373 98.3075C259.476 98.4099 259.603 98.5184 259.706 98.6208C259.936 98.8317 260.161 99.0667 260.391 99.2775C260.724 99.5908 261.052 99.9282 261.385 100.241C261.719 100.555 262.046 100.892 262.355 101.199C264.629 103.429 266.866 105.7 269.037 108.032C272.038 111.261 274.974 114.551 277.836 117.926C280.699 121.3 283.52 124.741 286.28 128.217C289.059 131.724 291.801 135.274 294.537 138.847C297.268 142.445 300.016 146.072 302.759 149.724C305.526 153.382 308.292 157.04 311.126 160.74C313.959 164.439 316.847 168.127 319.813 171.809C322.78 175.491 326.667 179.811 328.948 182.836C330.999 185.548 333.08 188.036 335.154 190.344" fill="#009888"/>
<path d="M163.077 54.6233C166.822 54.9642 170.627 55.4739 174.5 56.2307C176.587 56.621 178.724 57.1259 180.854 57.6549C182.67 58.1058 184.479 58.5808 186.295 59.1341C187.536 59.5191 188.819 59.9402 190.078 60.3553C192.856 61.2757 195.665 62.2806 198.516 63.424C198.662 63.4601 198.795 63.5444 198.958 63.6106C201.852 64.7902 204.583 66.0061 207.265 67.3125C208.277 67.7941 209.258 68.2938 210.239 68.7935C211.607 69.4919 213.006 70.2747 214.423 71.0876C216.543 72.2798 218.687 73.5806 220.771 74.9176C221.129 75.1343 221.486 75.3511 221.813 75.586C223.364 76.5858 224.878 77.6278 226.369 78.6637C228.035 79.8201 229.695 81.0006 231.294 82.2174C231.773 82.5667 232.252 82.9161 232.73 83.2654C233.658 83.9822 234.579 84.7232 235.506 85.44C236.772 86.4459 238.015 87.4459 239.227 88.4639C240.293 89.3434 241.33 90.2411 242.366 91.1387C242.536 91.2832 242.705 91.4278 242.875 91.5724C243.59 92.211 244.3 92.8737 245.015 93.5123C245.791 94.2171 246.572 94.8979 247.348 95.6027C248.015 96.2293 248.658 96.8499 249.3 97.4704C249.901 98.0548 250.507 98.6151 251.083 99.1935C251.519 99.6092 251.956 100.025 252.392 100.441C252.495 100.543 252.598 100.645 252.701 100.748C253.198 101.23 253.683 101.76 254.181 102.242C254.654 102.718 255.102 103.188 255.581 103.64C256.012 104.08 256.448 104.495 256.879 104.935C258.413 106.52 259.935 108.153 261.457 109.785C264.416 112.979 267.309 116.233 270.183 119.559C273.058 122.885 275.897 126.253 278.754 129.651C281.605 133.074 284.45 136.521 287.313 139.998C290.176 143.474 293.081 146.987 296.035 150.512C298.989 154.037 301.991 157.574 305.103 161.087C308.184 164.618 311.367 168.149 314.684 171.662C317.977 175.168 321.045 178.44 323.531 180.952C326.017 183.465 328.538 185.73 331.071 187.742C332.423 188.82 333.792 189.826 335.155 190.754C335.155 190.754 335.155 190.754 335.149 190.778C335.204 190.868 335.264 190.934 335.295 191.019C332.782 189.755 330.286 188.315 327.827 186.629C325.167 184.816 322.537 182.78 319.955 180.449C317.343 178.135 314.59 175.352 311.128 171.905C307.661 168.483 304.308 165.013 301.082 161.548C297.832 158.078 294.708 154.613 291.64 151.137C288.571 147.66 285.575 144.201 282.621 140.779C279.673 137.332 276.744 133.916 273.851 130.56C270.94 127.173 268.065 123.847 265.154 120.563C262.243 117.279 259.32 114.044 256.379 110.881C255.342 109.778 254.281 108.669 253.244 107.567C252.753 107.061 252.268 106.53 251.776 106.024C251.249 105.458 250.685 104.934 250.158 104.367C249.563 103.759 248.987 103.18 248.393 102.572C248.042 102.229 247.72 101.867 247.369 101.524C247.078 101.246 246.768 100.939 246.477 100.662C245.75 99.9692 245.047 99.2824 244.319 98.5895C243.531 97.8304 242.743 97.0713 241.949 96.3363C241.028 95.4929 240.131 94.6555 239.203 93.8362C238.785 93.4506 238.367 93.065 237.942 92.7036C237.33 92.1674 236.694 91.6252 236.058 91.083C234.87 90.071 233.688 89.0348 232.494 88.0469C231.155 86.9204 229.779 85.8361 228.379 84.7458C228.228 84.6314 228.076 84.5169 227.931 84.3784C226.513 83.258 225.034 82.1738 223.55 81.1137C221.787 79.8308 219.994 78.5659 218.164 77.3433C217.855 77.1386 217.552 76.9097 217.219 76.6989C215.565 75.5967 213.833 74.5007 212.07 73.4227C209.908 72.0918 207.734 70.8092 205.674 69.6832C205.584 69.6351 205.469 69.5809 205.354 69.5267C202.792 68.1478 200.182 66.8595 197.506 65.6315C196.373 65.1198 195.271 64.5901 194.139 64.0784C192.535 63.3983 190.858 62.7001 189.193 62.0562C186.687 61.0753 184.162 60.1667 181.711 59.3787C181.166 59.1922 180.609 59.0539 180.059 58.8915C176.814 57.881 173.613 57.0091 170.478 56.2819C170.212 56.2158 169.921 56.1437 169.655 56.0775C166.587 55.3925 163.555 54.8702 160.573 54.4624C161.456 54.528 162.303 54.5334 163.18 54.6232" fill="#FFCC00"/>
<path d="M-41.2682 190.581C-39.9804 190.363 -38.6807 190.097 -37.3872 189.752C-36.9762 189.649 -36.5834 189.516 -36.1906 189.383C-34.5769 188.888 -32.9512 188.344 -31.3198 187.673C-31.1204 187.595 -30.915 187.492 -30.7156 187.414C-28.8789 186.641 -27.0665 185.759 -25.2242 184.757C-25.1034 184.684 -24.9826 184.612 -24.8678 184.563C-22.9349 183.507 -21.0023 182.348 -19.0699 181.086C-18.9189 180.996 -18.7922 180.899 -18.6412 180.809C-16.733 179.541 -14.8008 178.177 -12.8447 176.716C-12.5912 176.523 -12.3618 176.324 -12.1083 176.131C-10.2669 174.719 -8.43786 173.252 -6.56062 171.695C-6.1079 171.321 -5.67939 170.941 -5.22068 170.543C-3.55482 169.112 -1.88297 167.658 -0.18715 166.107C0.51289 165.462 1.21293 164.816 1.94317 164.152C3.37943 162.819 4.82169 161.461 6.30013 160.061C7.2777 159.126 8.26125 158.166 9.2448 157.207C10.4395 156.018 11.6584 154.836 12.8833 153.629C14.1141 152.398 15.351 151.143 16.6181 149.87C17.6136 148.862 18.5849 147.848 19.5804 146.841C21.0888 145.32 22.6152 143.727 24.1356 142.159C24.8958 141.374 25.656 140.59 26.4162 139.805C28.2141 137.947 30.0421 136.071 31.846 134.188C32.3649 133.651 32.8778 133.138 33.4026 132.577C35.5082 130.411 37.644 128.227 39.7858 126.018C40.0574 125.753 40.2987 125.505 40.546 125.234C42.9534 122.784 45.3909 120.316 47.8769 117.861C47.9131 117.818 47.9735 117.782 48.0096 117.74C50.4352 115.32 52.9032 112.937 55.4014 110.535C55.7755 110.167 56.1738 109.805 56.5721 109.443C58.7264 107.392 60.9049 105.346 63.1258 103.337C63.9164 102.637 64.7312 101.943 65.5219 101.243C67.3687 99.6012 69.1913 97.9538 71.0563 96.3425C72.3298 95.2503 73.6398 94.2183 74.9316 93.1562C76.3561 91.9733 77.7624 90.7604 79.2234 89.6378C81.9761 87.4531 84.7895 85.3348 87.6091 83.2947C90.4529 81.2607 93.3332 79.287 96.2681 77.4036C99.203 75.5203 102.168 73.7213 105.182 72.0368C107.81 70.5637 110.492 69.181 113.204 67.8827C115.304 68.2248 117.446 68.603 119.594 69.0597C120.72 69.288 121.851 69.5946 122.971 69.847C122.01 70.2999 121.08 70.7348 120.138 71.2178C117.057 72.7576 114.049 74.4179 111.065 76.1867C108.082 77.9556 105.153 79.8148 102.26 81.7343C99.3617 83.6779 96.5179 85.7119 93.7105 87.8062C90.9031 89.9005 88.1262 92.0791 85.3917 94.294C82.6571 96.5088 79.9833 98.7899 77.3276 101.101C74.672 103.412 72.0528 105.784 69.4517 108.185C68.9509 108.65 68.4742 109.121 67.9733 109.585C65.8974 111.528 63.8215 113.471 61.794 115.426C60.8768 116.325 59.9898 117.206 59.0727 118.105C57.4797 119.656 55.8867 121.207 54.3421 122.77C53.075 124.043 51.808 125.316 50.5409 126.589C49.3764 127.76 48.2059 128.954 47.0414 130.125C45.4547 131.754 43.9041 133.341 42.3233 134.946C41.527 135.773 40.7064 136.593 39.916 137.396C38.0517 139.314 36.2176 141.215 34.3653 143.085C33.9129 143.562 33.4302 144.057 32.9535 144.528C30.8177 146.712 28.7241 148.83 26.6304 150.948C26.4615 151.11 26.2865 151.298 26.1176 151.46C23.861 153.717 21.6405 155.932 19.4321 158.098C19.2993 158.218 19.1968 158.321 19.064 158.442C16.9701 160.457 14.9064 162.454 12.8667 164.355C12.4624 164.741 12.0399 165.097 11.6356 165.483C9.89759 167.101 8.14737 168.664 6.41512 170.154C5.72706 170.752 5.04499 171.325 4.35693 171.922C2.9264 173.129 1.49589 174.336 0.0591231 175.465C-0.840315 176.189 -1.72779 176.865 -2.63946 177.535C-3.84087 178.44 -5.03629 179.321 -6.21974 180.154C-7.24621 180.872 -8.26668 181.567 -9.28117 182.237C-10.3259 182.925 -11.3888 183.583 -12.4155 184.198C-13.4966 184.826 -14.5475 185.436 -15.6167 186.016C-16.5952 186.541 -17.5678 187.042 -18.5525 187.489C-19.5675 187.954 -20.5523 188.401 -21.5553 188.818C-22.5825 189.228 -23.6037 189.615 -24.6432 189.972C-25.4832 190.25 -26.3414 190.497 -27.1695 190.727C-28.3542 191.048 -29.5086 191.35 -30.6876 191.544C-31.28 191.653 -31.8847 191.707 -32.4712 191.792C-33.88 191.98 -35.307 192.138 -36.7222 192.145C-36.8735 192.133 -37.0005 192.127 -37.1577 192.139C-39.0387 192.159 -40.8837 192.034 -42.7594 191.722C-43.7698 191.547 -44.8227 191.337 -45.8576 191.055C-45.0291 191.03 -44.2188 190.975 -43.3965 190.872C-42.683 190.793 -41.9575 190.666 -41.232 190.539" fill="#FFCC00"/>
<path d="M470.385 187.565C467.015 187.369 463.689 187.311 460.369 187.434C457.054 187.533 453.801 187.8 450.554 188.147C447.307 188.493 444.109 188.953 440.941 189.498C437.773 190.043 434.617 190.642 431.522 191.308C428.403 191.968 425.326 192.663 422.267 193.389C419.209 194.115 416.204 194.828 413.2 195.542C410.468 196.195 407.766 196.83 405.07 197.441C404.822 197.508 404.55 197.568 404.302 197.635C401.794 198.216 399.303 198.724 396.836 199.238C396.431 199.317 395.996 199.414 395.591 199.492C393.403 199.922 391.232 200.28 389.068 200.613C388.397 200.728 387.702 200.837 387.036 200.928C385.307 201.164 383.584 201.377 381.873 201.541C380.79 201.656 379.714 201.747 378.638 201.838C377.489 201.912 376.346 201.961 375.209 201.986C373.576 202.041 371.979 202.054 370.37 202.013C369.959 202.014 369.535 201.96 369.124 201.96C367.267 201.883 365.428 201.734 363.601 201.536C363.153 201.476 362.694 201.464 362.246 201.404C361.03 201.231 359.844 201.038 358.646 200.792C357.175 200.504 355.711 200.191 354.246 199.776C352.945 199.428 351.632 199.025 350.355 198.579C349.265 198.206 348.187 197.785 347.116 197.34C347.92 197.104 348.693 196.886 349.503 196.627C349.866 196.512 350.228 196.397 350.591 196.282C351.154 196.396 351.71 196.534 352.279 196.625C352.521 196.685 352.775 196.696 352.999 196.726C354.433 196.955 355.879 197.134 357.313 197.26C358.444 197.362 359.575 197.463 360.694 197.511C361.202 197.534 361.692 197.528 362.182 197.522C363.997 197.562 365.799 197.549 367.644 197.469C368.188 197.451 368.726 197.456 369.277 197.414C370.764 197.322 372.24 197.176 373.739 197.037C375.166 196.879 376.575 196.691 377.99 196.479C378.788 196.37 379.598 196.212 380.402 196.079C382.548 195.716 384.7 195.328 386.877 194.844C387.149 194.784 387.421 194.723 387.693 194.663C390.304 194.082 392.928 193.453 395.593 192.758C395.702 192.733 395.787 192.703 395.895 192.679C398.591 191.966 401.299 191.204 404.037 190.424C404.369 190.327 404.726 190.237 405.058 190.14C408.135 189.239 411.241 188.32 414.378 187.384C417.515 186.447 420.676 185.516 423.861 184.591C427.046 183.666 430.249 182.771 433.489 181.937C436.729 181.102 439.981 180.322 443.264 179.626C446.546 178.931 449.859 178.319 453.191 177.84C456.522 177.362 459.878 176.991 463.27 176.784C466.663 176.576 470.068 176.525 473.504 176.662C476.939 176.798 480.4 177.145 483.885 177.703C487.291 178.267 490.698 179.036 494.142 180.071L490.752 191.137C487.332 190.109 483.925 189.34 480.579 188.739C477.13 188.139 473.73 187.755 470.367 187.535" fill="#009888"/>
<path d="M-58.125 189.384C-56.8617 189.058 -55.6167 188.701 -54.3778 188.266C-54.0696 188.163 -53.7796 188.031 -53.4714 187.928C-51.7734 187.299 -50.0574 186.599 -48.3598 185.765C-48.3598 185.765 -48.3356 185.772 -48.3054 185.753C-46.4629 184.854 -44.5964 183.857 -42.7484 182.729C-42.5974 182.638 -42.4524 182.572 -42.3256 182.475C-40.4835 181.37 -38.6417 180.163 -36.8002 178.853C-36.613 178.72 -36.4318 178.612 -36.2387 178.455C-34.3307 177.085 -32.4048 175.642 -30.4792 174.097C-30.3524 174.001 -30.2256 173.904 -30.0988 173.808C-28.0464 172.166 -25.97 170.428 -23.8938 168.588C-23.8576 168.545 -23.8274 168.527 -23.7912 168.485C-21.7513 166.687 -19.6933 164.816 -17.6114 162.849C-17.3459 162.608 -17.1045 162.36 -16.839 162.119C-14.9865 160.351 -13.1279 158.559 -11.2272 156.7C-10.7445 156.206 -10.2377 155.717 -9.75499 155.222C-8.08362 153.563 -6.43646 151.897 -4.74713 150.166C-4.05931 149.466 -3.35953 148.718 -2.64152 148C-1.15134 146.449 0.357064 144.928 1.88343 143.336C2.78837 142.382 3.71751 141.435 4.62244 140.482C5.94367 139.094 7.26489 137.706 8.61632 136.3C9.7264 135.142 10.8425 133.959 11.9526 132.801C13.135 131.558 14.3115 130.339 15.4939 129.096C16.8092 127.732 18.1546 126.351 19.4698 124.987C20.5016 123.937 21.5091 122.881 22.5468 121.807C24.0672 120.239 25.636 118.682 27.2048 117.125C28.0615 116.262 28.9243 115.375 29.781 114.512C31.555 112.751 33.3531 110.995 35.1695 109.269C35.8453 108.617 36.5271 107.941 37.209 107.266C39.2607 105.317 41.3306 103.398 43.4307 101.461C43.9014 101.014 44.3721 100.568 44.8368 100.145C47.1964 97.991 49.6168 95.903 52.0371 93.8151C52.2604 93.6401 52.4656 93.4349 52.6949 93.2358C55.3628 90.9788 58.0429 88.7761 60.7897 86.6155C60.8862 86.537 61.007 86.4646 61.1036 86.3862C63.7478 84.3282 66.4102 82.3003 69.1272 80.3629C69.6283 80.0007 70.1537 79.6446 70.679 79.2885C73.0097 77.6649 75.3586 76.0714 77.738 74.5622C80.6609 72.7271 83.6203 70.9523 86.6283 69.292C88.5974 68.1932 90.6271 67.1606 92.6448 66.1763C93.9572 66.1693 95.2697 66.1623 96.5944 66.2096C98.7114 66.2743 100.859 66.4235 103 66.5967C102.68 66.7477 102.36 66.8987 102.04 67.0496C98.9589 68.5894 95.9569 70.2256 92.9793 71.9703C90.0017 73.715 87.0788 75.5501 84.1923 77.4455C81.324 79.371 78.468 81.3508 75.6908 83.4269C74.6524 84.1934 73.6563 84.9961 72.6361 85.7927C70.8914 87.1265 69.1467 88.4603 67.4202 89.8242C65.9714 91.001 64.5651 92.214 63.1588 93.427C61.9214 94.477 60.6356 95.515 59.4225 96.5711C57.6481 98.1279 55.922 99.6969 54.19 101.29C53.3572 102.056 52.476 102.811 51.6432 103.577C49.6095 105.454 47.6182 107.366 45.6268 109.279C45.12 109.768 44.5889 110.251 44.082 110.739C41.8192 112.918 39.5988 115.132 37.4085 117.329C37.1732 117.552 36.9379 117.775 36.6965 118.022C34.265 120.466 31.8636 122.892 29.5107 125.329C29.5107 125.329 29.4745 125.372 29.4685 125.396C27.1215 127.809 24.7988 130.229 22.488 132.6C22.2467 132.847 22.0054 133.095 21.758 133.366C19.6826 135.514 17.6374 137.644 15.6224 139.756C15.1699 140.233 14.7174 140.709 14.2408 141.18C12.4429 143.038 10.6692 144.903 8.88327 146.713C8.19545 147.413 7.53783 148.095 6.85002 148.794C5.33563 150.339 3.81526 151.908 2.30686 153.428C1.41989 154.309 0.53292 155.19 -0.354047 156.071C-1.64532 157.338 -2.90639 158.587 -4.15548 159.788C-5.2718 160.868 -6.41233 161.942 -7.51667 162.974C-8.52443 163.928 -9.5262 164.857 -10.522 165.762C-11.8799 166.987 -13.2258 168.164 -14.5717 169.34C-15.3202 169.974 -16.0746 170.632 -16.8231 171.266C-18.3502 172.551 -19.8533 173.74 -21.3565 174.929C-21.8998 175.357 -22.4733 175.804 -23.0166 176.232C-24.6043 177.451 -26.1923 178.568 -27.7926 179.63C-28.2575 179.95 -28.6982 180.276 -29.1572 180.572C-30.7514 181.61 -32.3217 182.552 -33.88 183.445C-34.3269 183.693 -34.7859 183.989 -35.2571 184.23C-36.7128 185.021 -38.1747 185.734 -39.6489 186.392C-40.1987 186.64 -40.7545 186.911 -41.2983 187.135C-42.5007 187.63 -43.7153 188.071 -44.9482 188.482C-45.7338 188.748 -46.5436 189.008 -47.3173 189.226C-48.1453 189.455 -48.9614 189.637 -49.8017 189.812C-50.9684 190.06 -52.1533 190.278 -53.3385 190.394C-53.6287 190.424 -53.913 190.43 -54.179 190.467C-55.8903 190.631 -57.6259 190.686 -59.3559 190.615C-60.3721 190.568 -61.4006 190.466 -62.4412 190.31C-61.7519 190.225 -61.0809 190.11 -60.4038 189.971C-59.6481 189.826 -58.9047 189.626 -58.137 189.433" fill="#009888"/>
<path d="M476.401 167.077C472.929 166.983 469.482 167.1 466.017 167.392C462.576 167.69 459.148 168.145 455.738 168.732C452.328 169.32 448.931 170.064 445.57 170.868C442.203 171.697 438.837 172.628 435.506 173.619C432.176 174.61 428.852 175.68 425.577 176.762C422.271 177.862 419.014 178.973 415.775 180.115C412.536 181.257 409.302 182.375 406.094 183.499C405.024 183.874 403.96 184.224 402.921 184.581C400.788 185.306 398.654 186.031 396.557 186.714C395.808 186.937 395.083 187.167 394.351 187.421C391.952 188.182 389.535 188.914 387.153 189.603C386.905 189.669 386.658 189.736 386.38 189.82C383.92 190.516 381.502 191.145 379.078 191.695C378.667 191.798 378.28 191.907 377.875 191.985C376.049 192.403 374.242 192.748 372.434 193.093C371.195 193.323 369.986 193.535 368.783 193.723C368.009 193.838 367.217 193.923 366.449 194.014C364.647 194.232 362.851 194.426 361.073 194.548C360.656 194.573 360.233 194.621 359.815 194.646C358.642 194.713 357.457 194.726 356.302 194.721C355.969 194.715 355.606 194.727 355.267 194.745C355.576 194.643 355.884 194.54 356.168 194.431C357.576 193.936 359.014 193.422 360.434 192.879C360.917 192.691 361.401 192.504 361.884 192.317C363.118 192.111 364.357 191.881 365.578 191.621C366.388 191.463 367.198 191.306 368.038 191.13C369.181 190.876 370.36 190.58 371.514 190.278C373.515 189.776 375.522 189.25 377.522 188.645C377.716 188.591 377.909 188.536 378.078 188.476C380.49 187.769 382.895 186.983 385.336 186.155C385.953 185.95 386.539 185.763 387.162 185.533C389.186 184.832 391.247 184.089 393.313 183.322C394.528 182.881 395.743 182.44 396.939 181.968C398.613 181.334 400.293 180.676 401.972 180.017C403.592 179.395 405.211 178.773 406.837 178.126C410.142 176.822 413.502 175.505 416.861 174.188C420.221 172.871 423.599 171.584 426.977 170.297C430.373 169.041 433.781 167.838 437.201 166.69C440.622 165.542 444.067 164.502 447.518 163.541C450.969 162.58 454.439 161.751 457.897 161.073C461.361 160.372 464.861 159.832 468.344 159.468C471.827 159.104 475.341 158.926 478.849 158.978C482.357 159.029 485.866 159.286 489.381 159.826C492.799 160.342 496.231 161.117 499.674 162.152L497.172 170.366C493.728 169.331 490.297 168.556 486.885 168.016C483.369 167.476 479.897 167.177 476.425 167.083" fill="#FFCC00"/>
<path d="M-74.0459 190.144C-72.6259 189.601 -71.1999 189.033 -69.7681 188.338C-69.6835 188.308 -69.5989 188.278 -69.5385 188.242C-68.0765 187.529 -66.5966 186.744 -65.1047 185.911C-64.5974 185.627 -64.1202 185.362 -63.6068 185.054C-62.3687 184.311 -61.1429 183.514 -59.8868 182.7C-59.1501 182.217 -58.4074 181.71 -57.6587 181.178C-56.5114 180.388 -55.3764 179.543 -54.2354 178.674C-53.3841 178.04 -52.5268 177.382 -51.6878 176.694C-50.5288 175.753 -49.3396 174.793 -48.1686 173.804C-47.3236 173.091 -46.5087 172.397 -45.6577 171.661C-44.348 170.527 -43.0505 169.338 -41.7228 168.131C-40.9925 167.467 -40.2925 166.822 -39.5563 166.134C-38.0174 164.698 -36.4606 163.189 -34.928 161.675C-34.4151 161.162 -33.9083 160.673 -33.3954 160.16C-31.5913 158.38 -29.8054 156.57 -27.9833 154.718C-27.7057 154.428 -27.404 154.144 -27.1265 153.855C-25.0932 151.773 -23.048 149.643 -20.9726 147.495C-20.9002 147.411 -20.8036 147.332 -20.7313 147.248C-18.5775 144.991 -16.4177 142.71 -14.2217 140.388C-14.1132 140.261 -13.9804 140.14 -13.8719 140.013C-11.7845 137.817 -9.69106 135.597 -7.56747 133.358C-7.28995 133.069 -7.01243 132.779 -6.73491 132.49C-4.75607 130.42 -2.77124 128.326 -0.76221 126.239C-0.33994 125.78 0.124756 125.358 0.54703 124.899C2.4173 122.956 4.28758 121.013 6.20627 119.083C6.78551 118.509 7.36476 117.936 7.94401 117.363C9.72993 115.553 11.5401 113.749 13.3744 111.951C14.0864 111.257 14.8226 110.569 15.5347 109.875C17.2604 108.203 18.9802 106.556 20.7242 104.915C21.5932 104.106 22.4744 103.352 23.3434 102.543C25.003 101.035 26.6385 99.5201 28.3163 98.0417C29.3363 97.1425 30.3987 96.2795 31.4369 95.4105C33.0002 94.0829 34.5453 92.7252 36.1268 91.4277C37.3522 90.4259 38.614 89.4844 39.8333 88.5067C41.2701 87.3781 42.6887 86.2194 44.1738 85.1029C45.653 84.0105 47.1322 82.9181 48.6296 81.8558C49.9096 80.9444 51.1837 80.0571 52.4819 79.1759C54.2753 77.9566 56.1051 76.7976 57.9349 75.6386C58.9676 74.9987 60.0063 74.3347 61.0632 73.7008C63.2979 72.3607 65.5629 71.1049 67.816 69.8973C68.5288 69.5109 69.2113 69.1426 69.9241 68.7562C70.3349 68.5509 70.7456 68.3456 71.1564 68.1403C72.559 67.8739 73.9555 67.6317 75.3703 67.4197C77.5589 67.0924 79.7781 66.8496 82.0154 66.6369C79.2849 68.0076 76.621 69.4205 73.9816 70.9418C72.3327 71.8897 70.6961 72.8918 69.0594 73.8939C67.7851 74.6786 66.5049 75.4875 65.2428 76.3265C63.25 77.6243 61.2877 79.0066 59.3555 80.3706C58.5103 80.9802 57.6408 81.5838 56.7955 82.1934C54.5676 83.8169 52.3702 85.5249 50.1969 87.2389C49.6596 87.6432 49.1223 88.0476 48.6032 88.4821C46.1946 90.4193 43.8527 92.3987 41.5047 94.4022C41.215 94.6376 40.9252 94.8729 40.6597 95.1143C38.1368 97.3048 35.6321 99.5255 33.1941 101.788C33.1217 101.873 33.0311 101.927 32.9588 102.012C30.4241 104.353 27.9379 106.706 25.47 109.09C25.3734 109.168 25.295 109.277 25.1984 109.355C22.827 111.66 20.4798 113.971 18.1811 116.294C17.9397 116.542 17.6984 116.789 17.457 117.036C15.303 119.19 13.1672 121.375 11.0858 123.547C10.6997 123.963 10.3196 124.355 9.91531 124.741C7.97865 126.745 6.042 128.748 4.15975 130.739C3.6047 131.318 3.07985 131.879 2.5308 132.434C0.793297 134.257 -0.914013 136.061 -2.61533 137.841C-3.31512 138.589 -4.00293 139.289 -4.69674 140.013C-6.2231 141.606 -7.75546 143.223 -9.25163 144.797C-10.1204 145.708 -10.9831 146.595 -11.8519 147.507C-13.1611 148.846 -14.4522 150.216 -15.7312 151.537C-16.7689 152.611 -17.8308 153.679 -18.8625 154.729C-19.9547 155.815 -21.0226 156.907 -22.1087 157.969C-23.3698 159.218 -24.6248 160.443 -25.9041 161.662C-26.7429 162.452 -27.5635 163.273 -28.3963 164.039C-29.8688 165.415 -31.3293 166.743 -32.7837 168.046C-33.3812 168.589 -34.0029 169.126 -34.6003 169.669C-36.2058 171.063 -37.7691 172.391 -39.3506 173.688C-39.8033 174.063 -40.2561 174.437 -40.7088 174.811C-42.3447 176.121 -43.9566 177.334 -45.5566 178.498C-45.9612 178.782 -46.3717 179.09 -46.752 179.38C-48.3098 180.478 -49.8437 181.48 -51.3957 182.452C-51.8547 182.748 -52.3136 183.044 -52.7666 183.315C-54.0953 184.112 -55.4362 184.855 -56.7893 185.543C-57.4417 185.893 -58.1183 186.237 -58.7646 186.564C-59.7554 187.035 -60.71 187.463 -61.713 187.88C-62.716 188.297 -63.7372 188.684 -64.7524 189.046C-65.2299 189.209 -65.6711 189.33 -66.1425 189.469C-67.5084 189.898 -68.8563 190.255 -70.2164 190.557C-70.3796 190.594 -70.5488 190.654 -70.7362 190.684C-72.7372 191.084 -74.7265 191.333 -76.7282 191.425C-77.1455 191.449 -77.5266 191.431 -77.9378 191.431C-77.1098 191.202 -76.2757 190.948 -75.4357 190.67C-74.9583 190.507 -74.4991 190.313 -74.0217 190.15" fill="#FFCC00"/>
<path d="M480.752 152.548C477.207 152.538 473.682 152.764 470.133 153.189C466.583 153.614 463.059 154.249 459.528 155.012C455.992 155.798 452.468 156.741 448.945 157.787C445.415 158.857 441.91 160.035 438.405 161.316C434.9 162.597 431.402 163.956 427.921 165.345C424.435 166.759 420.961 168.227 417.511 169.7C414.055 171.198 410.599 172.696 407.173 174.176C405.155 175.057 403.197 175.903 401.21 176.767C399.796 177.389 398.358 178.005 396.95 178.603C395.482 179.237 394.026 179.823 392.588 180.439C390.666 181.242 388.751 182.022 386.841 182.777C386.098 183.079 385.361 183.357 384.648 183.64C382.231 184.577 379.82 185.489 377.451 186.335C377.252 186.413 377.052 186.492 376.859 186.546C374.889 187.235 372.925 187.9 370.973 188.516C372.036 188.063 373.099 187.61 374.175 187.109C375.19 186.644 376.235 186.161 377.25 185.696C379.576 184.609 381.926 183.528 384.264 182.393C384.868 182.133 385.472 181.873 386.052 181.608C388.07 180.726 390.076 179.79 392.106 178.86C393.58 178.201 395.036 177.513 396.516 176.83C397.912 176.178 399.344 175.484 400.763 174.838C402.86 173.847 404.956 172.857 407.077 171.873C410.599 170.212 414.151 168.533 417.722 166.884C421.292 165.236 424.851 163.635 428.421 162.089C431.992 160.543 435.575 159.051 439.158 157.662C442.742 156.272 446.325 154.985 449.927 153.831C453.529 152.677 457.101 151.643 460.704 150.796C464.282 149.943 467.873 149.247 471.459 148.78C475.044 148.313 478.612 148.021 482.162 148.007C485.718 147.968 489.257 148.206 492.809 148.704C496.257 149.202 499.688 149.977 503.12 151.06L501.716 155.68C498.278 154.621 494.847 153.846 491.429 153.33C487.907 152.814 484.369 152.575 480.848 152.572" fill="#009888"/>
<path d="M359.935 191.572C358.541 187.974 357.087 184.411 355.548 180.879C353.724 176.738 351.809 172.652 349.767 168.662C347.731 164.648 345.544 160.724 343.213 156.867C340.881 153.01 338.422 149.25 335.789 145.574C333.155 141.898 330.34 138.33 327.35 134.848C324.36 131.365 321.182 128.015 317.8 124.768C314.417 121.52 310.829 118.376 307.023 115.382C303.224 112.364 298.656 109.13 295.657 107.233C292.635 105.329 289.582 103.65 286.428 102.175C283.273 100.7 280.131 99.4842 277.014 98.4796C274.587 97.6976 272.16 97.1206 269.746 96.5978C269.479 96.5317 269.189 96.4596 268.892 96.4116C268.65 96.3514 268.408 96.2913 268.16 96.2554C268.015 96.2193 267.87 96.1832 267.724 96.1472C267.676 96.1351 267.603 96.1171 267.555 96.1051C267.385 96.063 267.18 96.0631 267.01 96.021C266.817 95.9729 266.587 95.9671 266.387 95.9432C266.484 95.9672 266.569 95.937 266.671 95.9369C266.926 95.9487 267.149 95.9788 267.403 95.9906C267.579 96.0086 267.754 96.0265 267.912 96.0144C268.141 96.0202 268.365 96.0502 268.565 96.0742C268.843 96.0921 269.121 96.1099 269.4 96.1278C269.702 96.1517 270.035 96.1575 270.361 96.1874C272.116 96.367 273.864 96.5707 275.613 96.8769C278.614 97.4173 281.622 98.1386 284.666 99.1251C287.693 100.082 290.738 101.273 293.82 102.73C296.884 104.157 299.864 105.819 302.814 107.704C305.764 109.589 310.326 112.847 314.119 115.889C317.919 118.907 321.477 122.07 324.829 125.335C328.182 128.601 331.347 131.999 334.289 135.47C337.254 138.946 340.009 142.55 342.613 146.244C345.216 149.938 347.62 153.711 349.898 157.58C352.151 161.443 354.277 165.403 356.259 169.429C358.24 173.455 360.076 177.548 361.816 181.719C362.942 184.431 363.988 187.15 364.999 189.91C363.76 190.345 362.533 190.732 361.301 191.143C360.853 191.288 360.406 191.433 359.965 191.554L359.916 191.439L359.935 191.572Z" fill="#009888"/>
<path d="M356.629 192.665C356.296 192.762 355.94 192.852 355.607 192.949C355.553 192.961 355.493 192.997 355.414 193.004C355.136 193.088 354.84 193.143 354.562 193.227C353.655 193.463 352.724 193.693 351.824 193.905C351.11 194.086 350.403 194.243 349.696 194.401C349.339 194.491 348.995 194.534 348.638 194.624C347.773 194.794 346.927 194.993 346.069 195.139C346.069 195.139 346.044 195.133 346.014 195.151C345.851 195.187 345.688 195.224 345.525 195.26C344.987 195.357 344.485 195.411 343.947 195.508C343.759 195.538 343.572 195.569 343.409 195.605C343.088 195.654 342.743 195.696 342.423 195.744C342.181 195.787 341.915 195.823 341.673 195.866C341.595 195.872 341.51 195.902 341.407 195.902C341.165 195.944 340.948 195.993 340.712 196.011C340.688 196.005 340.658 196.023 340.609 196.011C340.476 196.029 340.349 196.023 340.216 196.042C340.216 196.042 340.168 196.03 340.138 196.048C338.68 196.224 337.229 196.375 335.79 196.479C332.573 196.704 329.404 196.737 326.246 196.516C323.106 196.326 319.972 195.906 316.898 195.245C313.824 194.584 310.762 193.67 307.765 192.49C304.768 191.311 301.783 189.878 298.852 188.126C295.914 186.397 293.624 184.753 289.661 181.669C285.704 178.561 281.929 175.446 278.268 172.284C274.607 169.121 271.098 165.97 267.697 162.795C264.296 159.62 260.998 156.445 257.779 153.264C254.56 150.083 251.413 146.92 248.339 143.775C245.265 140.63 242.24 137.497 239.226 134.418C236.365 131.454 233.515 128.543 230.659 125.658C230.538 125.525 230.417 125.392 230.271 125.254C229.616 124.579 228.931 123.922 228.277 123.247C227.373 122.332 226.464 121.44 225.56 120.524C224.572 119.536 223.56 118.542 222.566 117.578C222.153 117.168 221.765 116.765 221.347 116.379C220.644 115.692 219.935 115.03 219.249 114.373C218.049 113.204 216.819 112.053 215.606 110.933C214.497 109.915 213.418 108.878 212.303 107.884C212.072 107.674 211.836 107.487 211.63 107.282C210.181 105.975 208.708 104.661 207.223 103.396C205.805 102.173 204.405 100.981 202.951 99.7999C202.757 99.6494 202.563 99.4988 202.393 99.3542C200.642 97.9205 198.879 96.535 197.091 95.1436C195.794 94.1557 194.522 93.1739 193.219 92.2102C192.565 91.7404 191.905 91.2947 191.25 90.8249C189.154 89.3311 187.046 87.8856 184.877 86.4764C184.211 86.0548 183.556 85.585 182.866 85.1575C181.243 84.1397 179.613 83.1461 177.929 82.1645C175.913 80.9722 173.884 79.8281 171.837 78.7564C171.358 78.5095 170.856 78.2567 170.377 78.0098C167.737 76.6371 165.024 75.3488 162.251 74.0968C161.561 73.7717 160.871 73.4466 160.174 73.1457C158.086 72.2428 155.888 71.3642 153.66 70.5036C151.572 69.7033 149.501 68.933 147.486 68.2532C146.487 67.9283 145.531 67.6397 144.556 67.3208C141.39 66.3042 138.249 65.3961 135.199 64.6387C135.199 64.6387 135.199 64.6387 135.175 64.6327C131.834 63.8031 128.579 63.1483 125.348 62.602C124.682 62.488 124.023 62.3498 123.351 62.2598C120.604 61.8338 117.9 61.5464 115.214 61.2891C114.107 61.1935 113.03 61.0797 111.941 61.0142C109.515 60.8472 107.163 60.8007 104.798 60.8025C103.515 60.7914 102.203 60.7983 100.939 60.8174C98.6348 60.8854 96.3853 61.0439 94.1539 61.2324C92.8659 61.3479 91.6082 61.4453 90.3626 61.597C87.9017 61.8822 85.5136 62.288 83.1136 62.742C82.1161 62.9296 81.1245 63.0931 80.1453 63.3109C77.3524 63.8978 74.6324 64.6053 71.9489 65.373C72.9157 64.9985 73.8885 64.5998 74.8795 64.2313C78.046 63.0713 81.2611 62.0258 84.5431 61.125C87.8251 60.2242 91.1558 59.4379 94.5715 58.8264C94.7347 58.7901 94.892 58.7779 95.0552 58.7416C98.3077 58.1664 101.585 57.6997 104.953 57.3837C105.267 57.3593 105.63 57.347 105.945 57.3226C109.143 57.067 112.397 56.9018 115.736 56.9114C116.068 56.9172 116.401 56.923 116.734 56.9288C120.066 56.9625 123.466 57.1408 126.908 57.4578C127.005 57.4819 127.077 57.4999 127.18 57.4998C130.489 57.835 133.841 58.3088 137.254 58.9514C137.671 59.0295 138.071 59.0774 138.488 59.1555C141.284 59.6961 144.122 60.3753 146.997 61.1148C148.159 61.4033 149.321 61.6919 150.495 62.0347C152.438 62.594 154.393 63.2075 156.384 63.8813C158.569 64.6032 160.742 65.3734 162.97 66.2339C163.769 66.5348 164.556 66.8839 165.35 67.2089C168.274 68.3704 171.125 69.6164 173.892 70.8925C174.353 71.1092 174.819 71.3018 175.279 71.5186C177.483 72.5781 179.645 73.704 181.801 74.854C183.43 75.7451 185.059 76.6363 186.676 77.5757C187.464 78.0273 188.239 78.5272 189.02 79.0029C191.274 80.382 193.491 81.8032 195.677 83.2426C196.271 83.6462 196.871 84.0256 197.465 84.4291C198.888 85.4229 200.282 86.4348 201.699 87.4527C203.547 88.8079 205.389 90.1873 207.171 91.6029C207.298 91.7113 207.431 91.7956 207.583 91.9101C209.11 93.1088 210.607 94.3256 212.092 95.5907C213.583 96.8316 215.067 98.0967 216.522 99.3799C216.734 99.5606 216.946 99.7413 217.158 99.922C218.298 100.922 219.407 101.94 220.541 102.964C221.759 104.061 222.947 105.175 224.153 106.32C224.881 107.013 225.638 107.688 226.36 108.405C226.712 108.748 227.087 109.097 227.433 109.465C228.427 110.429 229.421 111.393 230.41 112.381C231.295 113.267 232.204 114.158 233.083 115.068C233.823 115.815 234.569 116.538 235.302 117.309C235.387 117.382 235.466 117.478 235.551 117.55C236.266 118.291 236.988 119.008 237.703 119.749C239.874 121.979 242.039 124.232 244.197 126.51C247.15 129.625 250.146 132.776 253.159 135.957C256.173 139.138 259.229 142.356 262.333 145.585C265.438 148.815 268.621 152.038 271.901 155.285C275.18 158.533 278.539 161.774 282.03 164.997C285.522 168.22 289.116 171.443 292.874 174.63C296.631 177.817 299.868 180.516 302.709 182.527C305.55 184.539 308.409 186.273 311.316 187.712C314.217 189.175 317.165 190.343 320.143 191.287C323.121 192.232 326.11 192.923 329.16 193.373C332.203 193.847 335.258 194.068 338.355 194.12C338.452 194.144 338.536 194.113 338.639 194.113C338.663 194.119 338.712 194.131 338.742 194.113C338.814 194.131 338.893 194.125 338.947 194.113C339.074 194.119 339.207 194.101 339.359 194.113C339.407 194.125 339.486 194.119 339.54 194.107C339.8 194.094 340.084 194.088 340.338 194.1C340.441 194.1 340.544 194.1 340.647 194.1C340.931 194.094 341.24 194.093 341.524 194.087C341.911 194.081 342.268 194.093 342.661 194.062C342.842 194.056 343.048 194.056 343.229 194.05C343.955 194.025 344.669 193.946 345.382 193.867C345.382 193.867 345.406 193.873 345.431 193.879C346.192 193.812 346.948 193.77 347.71 193.703C347.868 193.69 348.031 193.654 348.212 193.648C348.502 193.618 348.799 193.563 349.089 193.533C349.911 193.43 350.733 193.327 351.562 193.199C350.583 190.933 349.628 188.673 348.612 186.449C346.727 182.241 344.776 178.095 342.734 174.002C340.692 169.91 338.529 165.89 336.275 161.924C334.022 157.959 331.642 154.089 329.117 150.287C326.591 146.484 323.939 142.778 321.137 139.162C318.334 135.547 315.349 132.04 312.184 128.642C309.019 125.244 305.678 121.93 302.145 118.773C298.593 115.586 294.854 112.532 290.897 109.629C286.922 106.695 283.015 104.112 279.793 102.287C276.577 100.439 273.235 98.7891 269.88 97.3927C269.602 97.2724 269.342 97.1821 269.057 97.0858C268.803 96.9715 268.543 96.8812 268.282 96.791C268.046 96.7068 267.834 96.6285 267.604 96.5201C267.417 96.4479 267.229 96.3757 267.041 96.3035C266.896 96.2675 266.757 96.2073 266.618 96.1471L266.424 96.099C266.424 96.099 266.363 96.0327 266.315 96.0207C266.315 96.0207 266.315 96.0207 266.291 96.0147L266.363 96.0327C266.508 96.0688 266.654 96.1049 266.799 96.1409C266.896 96.165 266.993 96.189 267.089 96.2131C267.138 96.2251 267.186 96.2371 267.259 96.2551C267.453 96.3032 267.64 96.3754 267.81 96.4175C268.052 96.4776 268.288 96.5619 268.5 96.6401C268.766 96.7062 269.026 96.7965 269.287 96.8867C271.768 97.6566 274.274 98.5351 276.787 99.5944C280.044 100.967 283.314 102.598 286.457 104.429C289.601 106.259 293.478 108.861 297.428 111.789C301.373 114.74 305.106 117.818 308.628 121.023C312.149 124.228 315.466 127.536 318.595 130.976C321.724 134.417 324.654 137.936 327.451 141.576C330.223 145.209 332.815 148.952 335.286 152.766C337.756 156.581 340.052 160.48 342.245 164.482C344.444 168.46 346.492 172.528 348.45 176.651C350.407 180.774 352.274 184.951 354.026 189.176C354.476 190.261 354.92 191.37 355.364 192.479L356.562 192.623L356.629 192.665Z" fill="#FFCC00"/>
<path d="M-89.0483 193.059C-88.0757 192.558 -87.0912 192.008 -86.1248 191.429C-85.7927 191.229 -85.4605 191.03 -85.1283 190.831C-83.7392 189.998 -82.3382 189.117 -80.9433 188.157C-80.732 188.03 -80.5448 187.897 -80.3274 187.746C-78.9628 186.805 -77.6104 185.809 -76.252 184.789C-75.6785 184.342 -75.0868 183.926 -74.5073 183.455C-73.3543 182.538 -72.1651 181.578 -71.0001 180.613C-70.2214 179.961 -69.4428 179.309 -68.6581 178.633C-67.5416 177.656 -66.3948 176.66 -65.2663 175.634C-64.4335 174.868 -63.6066 174.126 -62.7436 173.341C-61.5125 172.213 -60.2936 171.03 -59.0747 169.848C-58.3023 169.117 -57.5481 168.357 -56.7697 167.603C-55.3457 166.215 -53.9096 164.779 -52.4978 163.337C-51.9126 162.74 -51.3031 162.148 -50.7119 161.527C-49.0226 159.795 -47.2911 157.997 -45.5596 156.199C-45.2156 155.849 -44.9019 155.517 -44.552 155.143C-42.5732 153.074 -40.5884 150.98 -38.5916 148.838C-38.489 148.735 -38.3864 148.633 -38.2838 148.53C-36.1603 146.292 -34.0307 144.029 -31.8649 141.724C-31.7623 141.622 -31.6598 141.519 -31.5814 141.411C-29.5182 139.208 -27.4308 137.012 -25.3132 134.798C-25.0357 134.508 -24.7582 134.218 -24.4807 133.929C-22.538 131.902 -20.5894 129.85 -18.5923 127.811C-18.176 127.376 -17.7355 126.948 -17.2891 126.495C-15.4308 124.601 -13.5785 122.73 -11.696 120.842C-11.1529 120.311 -10.5796 119.762 -10.0366 119.231C-8.23245 117.451 -6.43432 115.695 -4.61196 113.945C-3.97232 113.335 -3.30846 112.732 -2.64461 112.128C-0.870426 110.469 0.879544 108.804 2.67195 107.174C3.40218 106.511 4.15064 105.877 4.87489 105.237C6.62511 103.674 8.37533 102.112 10.162 100.609C10.9708 99.939 11.7979 99.2993 12.6068 98.6294C14.3572 97.169 16.1017 95.7327 17.9188 94.3144C18.8122 93.6144 19.7179 92.9685 20.6054 92.2926C22.3743 90.9648 24.125 89.6069 25.9062 88.3334C26.9025 87.6332 27.8927 86.9572 28.889 86.2571C30.628 85.0499 32.3792 83.897 34.1788 82.7561C35.3081 82.0377 36.4314 81.3435 37.5789 80.6553C39.276 79.617 40.9912 78.6088 42.7247 77.6308C44.0414 76.8822 45.3946 76.1938 46.7295 75.4753C47.3155 75.1855 47.9014 74.8956 48.4632 74.5998C50.8258 73.6755 53.1765 72.7995 55.606 72.0199C55.9686 71.9051 56.3312 71.7902 56.6938 71.6754C57.7817 71.3309 58.8695 70.9864 59.9696 70.6962C58.9426 71.2095 57.9097 71.7469 56.8767 72.2842C56.7317 72.3507 56.5867 72.4171 56.466 72.4896C53.5001 74.0835 50.6131 75.7739 47.7626 77.5245C47.6418 77.597 47.521 77.6694 47.4002 77.7419C44.6645 79.4442 41.9652 81.2068 39.3205 83.0598C39.0126 83.265 38.7228 83.5003 38.439 83.7116C35.9816 85.4318 33.5605 87.2122 31.1577 89.0228C30.7412 89.3548 30.3246 89.6867 29.9081 90.0186C27.6745 91.7688 25.4408 93.519 23.2678 95.3355C22.7487 95.77 22.2539 96.2105 21.759 96.651C19.6826 98.389 17.6244 100.157 15.6146 101.937C15.0231 102.456 14.4499 103.005 13.8826 103.53C11.9634 105.256 10.0685 106.988 8.19169 108.75C7.52185 109.378 6.90043 110.017 6.23059 110.645C4.47462 112.334 2.69444 114.018 0.962683 115.713C0.214473 116.449 -0.509525 117.192 -1.23353 117.934C-2.8445 119.557 -4.47368 121.15 -6.06045 122.779C-6.89301 123.648 -7.71958 124.493 -8.54615 125.337C-10.0001 126.846 -11.4783 128.348 -12.9021 129.838C-13.8735 130.852 -14.8086 131.823 -15.7557 132.843C-17.0407 134.189 -18.3258 135.534 -19.5806 136.862C-20.6665 138.026 -21.7464 139.166 -22.8263 140.307C-23.9121 141.471 -25.0222 142.63 -26.1021 143.77C-27.3629 145.122 -28.6118 146.425 -29.8606 147.728C-30.7294 148.639 -31.6343 149.593 -32.5031 150.504C-33.9631 152.036 -35.4171 153.545 -36.8651 155.029C-37.4865 155.668 -38.1441 156.35 -38.7655 156.99C-40.4549 158.722 -42.1322 160.405 -43.8036 162.064C-44.1777 162.432 -44.5578 162.825 -44.9319 163.193C-46.8024 165.033 -48.6549 166.801 -50.5015 168.545C-50.6705 168.708 -50.8394 168.871 -51.0326 169.028C-52.9757 170.85 -54.9251 172.594 -56.8565 174.265C-56.9229 174.326 -56.9893 174.386 -57.0497 174.422C-58.9811 176.094 -60.8945 177.693 -62.784 179.196C-62.8504 179.256 -62.9168 179.317 -62.9772 179.353C-64.7339 180.735 -66.4968 182.038 -68.2478 183.294C-68.4651 183.445 -68.6583 183.602 -68.8757 183.753C-70.3309 184.748 -71.7741 185.696 -73.2054 186.596C-73.7188 186.903 -74.2381 187.235 -74.7515 187.543C-75.7118 188.099 -76.6661 188.63 -77.6205 189.161C-78.6232 189.681 -79.626 190.2 -80.6168 190.671C-80.9671 190.84 -81.3357 190.979 -81.6861 191.148C-82.9851 191.722 -84.2721 192.247 -85.5714 192.719C-85.8554 192.827 -86.1696 192.954 -86.4536 193.063C-88.4176 193.728 -90.3517 194.272 -92.3225 194.653C-92.5402 194.701 -92.776 194.72 -92.9936 194.768C-92.6492 194.623 -92.3048 194.478 -91.9544 194.309C-90.9998 193.88 -90.0575 193.397 -89.0849 192.896" fill="#009888"/>
</svg>
