<svg width="148" height="72" viewBox="0 0 148 72" fill="none" xmlns="http://www.w3.org/2000/svg">
<path d="M65.2988 35.4932V45.1469H62.9658V30.832H64.7332L71.0445 40.4209V30.832H73.3775V45.1469H71.6293L65.2988 35.4932Z" fill="white"/>
<path d="M85.2718 34.8015V45.1468H83.0288V43.5907C82.3733 44.7145 81.2229 45.3701 79.8732 45.3701C77.1353 45.3701 75.3486 42.9567 75.3486 39.9309C75.3486 36.9051 77.0646 34.5781 79.8925 34.5781C81.1329 34.5781 82.2833 35.1473 83.0288 36.336V34.8015H85.2718ZM80.3295 43.2593C81.8591 43.2593 83.0802 42.0922 83.0802 40.0534C83.0802 38.0146 81.9298 36.6818 80.2717 36.6818C78.6135 36.6818 77.6109 38.1731 77.6109 39.9525C77.6109 41.732 78.6521 43.2665 80.3295 43.2665" fill="white"/>
<path d="M94.0838 34.8047H96.5967L90.8703 49.8256H88.6658L90.5425 44.5305L86.6221 34.8047H89.1607L91.6736 41.8937L94.0838 34.8047Z" fill="white"/>
<path d="M106.905 34.8015V45.1468H104.662V43.5907C104.006 44.7145 102.856 45.3701 101.506 45.3701C98.7681 45.3701 96.9814 42.9567 96.9814 39.9309C96.9814 36.9051 98.6974 34.5781 101.525 34.5781C102.766 34.5781 103.916 35.1473 104.662 36.336V34.8015H106.905ZM101.962 43.2593C103.492 43.2593 104.713 42.0922 104.713 40.0534C104.713 38.0146 103.563 36.6818 101.904 36.6818C100.246 36.6818 99.2437 38.1731 99.2437 39.9525C99.2437 41.732 100.285 43.2665 101.962 43.2665" fill="white"/>
<path d="M109.278 34.8015H111.521V36.5377C112.106 35.1905 113.199 34.5781 114.51 34.5781C116.811 34.5781 117.923 36.4368 117.923 39.4266V45.1468H115.68V39.441C115.68 37.6399 115.005 36.7034 113.893 36.7034C112.582 36.7034 111.521 37.8056 111.521 39.9741V45.1468H109.278V34.8015Z" fill="white"/>
<path d="M122.82 34.8016H125.571V36.7251H122.82V42.1427C122.82 42.7767 123.058 43.2666 123.714 43.2666C124.26 43.2666 124.626 42.8344 124.626 42.2004C124.626 41.977 124.588 41.5664 124.498 41.3431H126.342C126.509 41.7321 126.542 42.3229 126.542 42.5102C126.542 44.0231 125.61 45.3703 123.624 45.3703C122.094 45.3703 120.577 44.6354 120.577 41.7897V36.7179H119.138V34.7944H120.687L121.085 32.0352H122.82V34.7944V34.8016Z" fill="white"/>
<path d="M137.162 34.8015V45.1468H134.919V43.5907C134.264 44.7145 133.113 45.3701 131.764 45.3701C129.026 45.3701 127.239 42.9567 127.239 39.9309C127.239 36.9051 128.955 34.5781 131.783 34.5781C133.024 34.5781 134.174 35.1473 134.919 36.336V34.8015H137.162ZM132.22 43.2593C133.75 43.2593 134.971 42.0922 134.971 40.0534C134.971 38.0146 133.82 36.6818 132.162 36.6818C130.504 36.6818 129.502 38.1731 129.502 39.9525C129.502 41.732 130.543 43.2665 132.22 43.2665" fill="white"/>
<path d="M73.1234 52.3008V61.2557C73.1234 64.9155 70.7519 66.839 67.9626 66.839C65.1733 66.839 62.8018 64.9155 62.8018 61.2557V52.3008H65.1347V61.2557C65.1347 63.4818 66.433 64.5841 67.9626 64.5841C69.4922 64.5841 70.7904 63.4818 70.7904 61.2557V52.3008H73.1234Z" fill="white"/>
<path d="M75.5596 56.2624H77.8026V57.9986C78.3874 56.6514 79.48 56.0391 80.7911 56.0391C83.0919 56.0391 84.2038 57.8978 84.2038 60.8875V66.6077H81.9608V60.9019C81.9608 59.1009 81.286 58.1643 80.1741 58.1643C78.863 58.1643 77.8026 59.2666 77.8026 61.4351V66.6077H75.5596V56.2624Z" fill="white"/>
<path d="M87.6122 51.6016C88.4542 51.6016 89.1097 52.2932 89.1097 53.1937C89.1097 54.0942 88.4542 54.7642 87.6122 54.7642C86.7703 54.7642 86.1533 54.087 86.1533 53.1937C86.1533 52.3004 86.7703 51.6016 87.6122 51.6016ZM86.4811 56.2627H88.7241V66.6081H86.4811V56.2627Z" fill="white"/>
<path d="M96.2346 66.611H93.8823L90.1611 56.2656H92.5841L95.0456 63.8085L97.5264 56.2656H99.9558L96.2346 66.611Z" fill="white"/>
<path d="M109.804 64.8499C108.563 66.406 107.053 66.8311 105.626 66.8311C102.31 66.8311 100.317 64.4176 100.317 61.4783C100.317 58.5389 102.451 56.0391 105.369 56.0391C107.869 56.0391 110.221 57.7969 110.221 61.7809H102.56C102.56 63.4162 103.743 64.7058 105.735 64.7058C106.886 64.7058 107.74 64.2375 108.525 63.4378L109.804 64.8499ZM102.676 60.0879H107.927C107.58 58.4957 106.32 58.0418 105.375 58.0418C104.431 58.0418 103.152 58.4885 102.676 60.0879Z" fill="white"/>
<path d="M114.02 58.5534C114.329 56.7955 115.55 56.0391 116.54 56.0391C116.848 56.0391 117.035 56.0967 117.305 56.1831V58.6542C116.958 58.5101 116.54 58.4525 116.244 58.4525C115.422 58.4525 114.053 58.964 114.053 61.8241V66.6077H111.81V56.2624H114.014V58.5534H114.02Z" fill="white"/>
<path d="M119.599 63.316C119.837 64.339 120.73 64.8073 121.566 64.8073C122.221 64.8073 122.954 64.5407 122.954 63.7266C122.954 63.1935 122.517 62.8909 121.951 62.6244L120.602 62.0552C118.757 61.2772 118.288 60.1101 118.288 59.1735C118.288 57.25 119.747 56.0469 121.662 56.0469C122.832 56.0469 124.291 56.4935 124.888 58.3594L123.082 59.0943C122.845 58.2586 122.17 58.028 121.675 58.028C121.09 58.028 120.473 58.3955 120.473 59.1087C120.473 59.6778 120.929 59.966 121.437 60.1749L122.806 60.7297C124.779 61.4645 125.158 62.7973 125.158 63.6906C125.158 65.7366 123.462 66.8389 121.546 66.8389C120.049 66.8389 118.352 66.1473 117.825 64.1589L119.593 63.3232L119.599 63.316Z" fill="white"/>
<path d="M128.042 51.6016C128.884 51.6016 129.539 52.2932 129.539 53.1937C129.539 54.0942 128.884 54.7642 128.042 54.7642C127.2 54.7642 126.583 54.087 126.583 53.1937C126.583 52.3004 127.206 51.6016 128.042 51.6016ZM126.911 56.2627H129.154V66.6081H126.911V56.2627Z" fill="white"/>
<path d="M134.336 56.2625H137.087V58.1861H134.336V63.6037C134.336 64.2377 134.574 64.7276 135.229 64.7276C135.776 64.7276 136.142 64.2953 136.142 63.6613C136.142 63.438 136.103 63.0273 136.013 62.804H137.858C138.025 63.193 138.057 63.7838 138.057 63.9711C138.057 65.484 137.125 66.8312 135.139 66.8312C133.61 66.8312 132.093 66.0964 132.093 63.2507V58.1789H130.653V56.2553H132.202L132.601 53.4961H134.336V56.2553V56.2625Z" fill="white"/>
<path d="M145.459 56.2656H147.972L142.245 71.2937H140.041L141.918 65.9986L137.997 56.2656H140.536L143.049 63.3618L145.459 56.2656Z" fill="white"/>
<path d="M4.88544 1.32422C4.88544 1.32422 1.85193 1.76368 0.637236 6.59775C0.637236 6.59775 -2.29988 15.9849 7.784 23.4557C7.784 23.4557 18.472 30.7753 20.0016 31.8703C20.0016 31.8703 28.4338 37.3024 31.5058 46.6247C31.5058 46.6247 33.5303 53.9803 28.8965 59.2898C28.8965 59.2898 25.5866 63.4395 22.1868 65.7664C22.1868 65.7664 22.3667 66.5157 23.62 66.5949C24.5519 66.6526 25.4645 66.2779 26.1908 65.6224C28.678 63.3602 35.2078 56.2784 32.6498 46.142C32.6498 46.142 31.6344 41.5241 26.4671 36.0056C23.5493 32.8861 20.2008 30.2638 16.9038 27.6847C10.9975 23.0811 5.3289 18.5424 3.95997 10.0558C3.7286 8.63656 3.65147 7.18129 3.78644 5.74764C3.83785 5.1713 4.12707 2.57056 4.88544 1.32422Z" fill="#22BCAC"/>
<path d="M10.4416 1.6416C11.682 2.35482 12.479 3.43546 11.6692 5.66879C7.86443 16.1222 17.3506 24.1622 23.5076 30.0769C23.5076 30.0769 32.5953 38.2825 33.4372 46.0631C33.4372 46.0631 30.8857 38.2393 22.5564 30.682C22.5564 30.682 12.434 21.8856 9.83107 17.1308C9.83107 17.1308 4.52884 8.22631 8.57139 0.820312C8.57139 0.820312 9.56757 1.1301 10.4481 1.6416" fill="#22BCAC"/>
<path d="M15.8008 2.98767C15.8008 2.98767 17.0155 3.76573 17.3433 3.99627C18.7251 4.99046 19.2264 6.97164 18.5451 8.65023C17.6261 10.9196 16.8805 14.601 18.5708 19.1973C18.5708 19.1973 19.7984 23.0156 24.8949 28.0369C26.7138 30.2126 31.4376 33.9588 33.4363 42.676C33.4363 42.676 30.9941 35.2196 23.7895 28.8726C21.2766 26.3079 18.3137 23.5199 16.8098 19.8961C16.8098 19.8961 12.2146 12.0434 15.8072 2.98047" fill="#22BCAC"/>
<path d="M21.8799 8.29236C21.8799 8.29236 22.4712 8.8687 23.4931 10.2663C24.6242 11.8152 23.6345 14.063 23.6345 14.063C23.6345 14.063 21.218 20.1938 27.3686 27.4917C27.3686 27.4917 34.1618 35.1139 33.8662 41.36C33.8662 41.36 33.1142 35.2724 27.3428 29.2568C27.3428 29.2568 23.281 24.9054 21.7514 20.518C21.7514 20.518 19.457 15.0212 21.8864 8.28516" fill="#22BCAC"/>
<path d="M31.5932 50.1055C31.5932 50.1055 29.3373 58.3616 20.7959 64.442C18.4115 65.6523 17.0361 62.7634 17.0361 62.7634C17.0361 62.7634 27.0172 59.1324 31.5996 50.1127" fill="#22BCAC"/>
<path d="M31.0957 46.7109C31.0957 46.7109 29.4889 55.565 16.7314 59.6282C16.7314 59.6282 16.9307 58.3963 17.2135 57.4093C17.4834 56.4511 18.1904 55.7307 19.0709 55.529C21.6481 54.9382 27.9208 53.0363 31.0957 46.7109Z" fill="#22BCAC"/>
<path d="M30.1348 45.0898C30.1348 45.0898 29.505 49.8375 18.8877 53.0506L20.1024 50.7524C20.443 50.14 21.0471 49.7942 21.6834 49.6862C23.7336 49.3476 28.8495 48.1012 30.1348 45.0898Z" fill="#22BCAC"/>
<path d="M29.4468 43.5312C29.4468 43.5312 28.3607 47.0253 22.8721 47.3063C22.8721 47.3063 26.0534 44.0644 29.4468 43.5312Z" fill="#22BCAC"/>
<path d="M64.8217 1.32361C64.8217 1.32361 67.8552 1.76307 69.0699 6.59714C69.0699 6.59714 72.007 15.9843 61.9231 23.4551C61.9231 23.4551 51.2351 30.7747 49.7055 31.8697C49.7055 31.8697 41.2734 37.3017 38.2013 46.6241C38.2013 46.6241 36.1768 53.9796 40.8106 59.2892C40.8106 59.2892 44.1205 63.4388 47.5204 65.7658C47.5204 65.7658 47.3404 66.5151 46.0872 66.5943C45.1552 66.6519 44.2426 66.2773 43.5164 65.6217C41.0292 63.3596 34.4994 56.2778 37.0573 46.1414C37.0573 46.1414 38.0728 41.5234 43.24 36.005C46.1579 32.8855 49.5063 30.2632 52.8033 27.684C58.7032 23.0733 64.3718 18.5346 65.7407 10.048C65.9721 8.62874 66.0492 7.17348 65.9143 5.73983C65.8629 5.16349 65.5736 2.56275 64.8153 1.31641" fill="#22BCAC"/>
<path d="M59.2739 1.6416C58.0335 2.35482 57.2366 3.43546 58.0464 5.66879C61.8511 16.1222 52.365 24.1622 46.2079 30.0769C46.2079 30.0769 37.1267 38.2825 36.2783 46.0631C36.2783 46.0631 38.8298 38.2393 47.1591 30.682C47.1591 30.682 57.2816 21.8856 59.8845 17.1308C59.8845 17.1308 65.1867 8.22631 61.1442 0.820312C61.1442 0.820312 60.148 1.1301 59.2675 1.6416" fill="#22BCAC"/>
<path d="M53.9139 2.99158C53.9139 2.99158 52.6992 3.76964 52.3714 4.00018C50.9896 4.99437 50.4883 6.97554 51.1695 8.65414C52.0886 10.9235 52.8341 14.6049 51.1438 19.2012C51.1438 19.2012 49.9163 23.0195 44.8197 28.0408C43.0009 30.2165 38.2771 33.9627 36.2783 42.6799C36.2783 42.6799 38.7206 35.2235 45.9252 28.8765C48.4381 26.3118 51.4009 23.5238 52.9048 19.9C52.9048 19.9 57.5001 12.0474 53.9074 2.98438" fill="#22BCAC"/>
<path d="M47.8208 8.29236C47.8208 8.29236 47.2295 8.8687 46.2077 10.2663C45.0765 11.8152 46.0663 14.063 46.0663 14.063C46.0663 14.063 48.4828 20.1938 42.3322 27.4917C42.3322 27.4917 35.5389 35.1139 35.8346 41.36C35.8346 41.36 36.5865 35.2724 42.3579 29.2568C42.3579 29.2568 46.4197 24.9054 47.9494 20.518C47.9494 20.518 50.2438 15.0212 47.8144 8.28516" fill="#22BCAC"/>
<path d="M38.1129 50.1055C38.1129 50.1055 40.3687 58.3616 48.9101 64.442C51.2945 65.6523 52.6699 62.7634 52.6699 62.7634C52.6699 62.7634 42.6889 59.1324 38.1064 50.1127" fill="#22BCAC"/>
<path d="M38.6064 46.7109C38.6064 46.7109 40.2132 55.565 52.9707 59.6282C52.9707 59.6282 52.7714 58.3963 52.4886 57.4093C52.2187 56.4511 51.5117 55.7307 50.6313 55.529C48.0541 54.9382 41.7814 53.0363 38.6064 46.7109Z" fill="#22BCAC"/>
<path d="M39.5674 45.0898C39.5674 45.0898 40.1972 49.8375 50.8145 53.0506L49.5998 50.7524C49.2592 50.14 48.6551 49.7942 48.0188 49.6862C45.9686 49.3476 40.8528 48.1012 39.5674 45.0898Z" fill="#22BCAC"/>
<path d="M40.2627 43.5312C40.2627 43.5312 41.3489 47.0253 46.8375 47.3063C46.8375 47.3063 43.6561 44.0644 40.2627 43.5312Z" fill="#22BCAC"/>
<path d="M33.1657 13.5703C33.1657 13.5703 33.7249 13.9305 34.1105 15.0184C34.4061 15.8541 34.3547 16.7834 34.0334 17.6047C33.6285 18.6349 33.1593 20.6449 33.7699 23.7139C33.7699 23.7139 35.5308 30.0537 34.4383 34.5347C34.4383 34.5347 34.3676 28.3607 32.9922 25.0539C32.9922 25.0539 30.2543 18.7862 33.1657 13.5703Z" fill="#FECA0C"/>
<path d="M37.5801 13.5736C37.5801 13.5736 36.7768 14.0923 36.4361 15.7493C36.3269 16.2896 36.3847 16.8588 36.6032 17.3486C37.021 18.278 37.6444 20.3672 36.976 23.71C36.976 23.71 35.215 30.0498 36.3076 34.5308C36.3076 34.5308 36.3783 28.3568 37.7537 25.05C37.7537 25.05 40.4915 18.7823 37.5801 13.5664" fill="#FECA0C"/>
</svg>
