<svg width="25" height="34" viewBox="0 0 25 34" fill="none" xmlns="http://www.w3.org/2000/svg">
<path d="M14.7855 27.7618H16.9003M16.9003 27.7618H20.6598V21.1825H23.6362L20.6598 16.013L20.1117 13.115H10.8692M16.9003 27.7618V32.618H6.01304C6.06526 30.8688 5.7154 26.5243 3.89825 23.1406C2.54061 21.548 0.185623 17.3133 1.62681 13.115H10.8692M10.8692 13.115V9.06811M10.8692 9.06811C13.9239 9.85137 19.72 9.50676 18.4668 1.86218C15.9343 1.41833 10.8692 2.23813 10.8692 9.06811ZM10.8692 9.06811C11.1825 6.30062 10.0703 0.765625 3.115 0.765625C2.43618 3.53312 3.03669 9.06811 10.8692 9.06811ZM10.8692 9.06811L6.01304 4.60359M10.8692 9.06811L15.7254 5.23019" stroke="#2E2D2C" stroke-width="1.5"/>
</svg>
