<svg width="35" height="27" viewBox="0 0 35 27" fill="none" xmlns="http://www.w3.org/2000/svg">
<ellipse cx="17.1675" cy="6.18788" rx="4.49656" ry="4.49647" stroke="#2E2D2C" stroke-width="1.5"/>
<path d="M27.2156 25.6917C27.2156 23.0268 26.1569 18.1448 24.2725 16.2604C22.388 14.376 19.8322 13.3174 17.1672 13.3174C14.5022 13.3174 11.9464 14.376 10.062 16.2604C8.17756 18.1448 7.1189 23.0268 7.1189 25.6917L27.2156 25.6917Z" stroke="#2E2D2C" stroke-width="1.5"/>
<ellipse cx="7.33241" cy="8.3868" rx="2.77455" ry="2.77449" stroke="#2E2D2C" stroke-width="1.5"/>
<path d="M11.7167 15.3394C10.554 14.1767 8.97693 13.5234 7.33253 13.5234C5.68813 13.5234 4.11109 14.1767 2.94832 15.3394C1.78556 16.5021 1.13232 19.5145 1.13232 21.1589L7.73945 21.1589" stroke="#2E2D2C" stroke-width="1.5"/>
<ellipse cx="27.4796" cy="8.3868" rx="2.77455" ry="2.77449" stroke="#2E2D2C" stroke-width="1.5"/>
<path d="M23.0952 15.3394C24.258 14.1767 25.835 13.5234 27.4794 13.5234C29.1238 13.5234 30.7009 14.1767 31.8636 15.3394C33.0264 16.5021 33.6796 19.5145 33.6796 21.1589H26.6136" stroke="#2E2D2C" stroke-width="1.5"/>
</svg>
