<svg width="55" height="49" viewBox="0 0 55 49" fill="none" xmlns="http://www.w3.org/2000/svg">
<path d="M4.28321 1.12109C4.28321 1.12109 1.94639 1.43792 1.01068 4.923C1.01068 4.923 -1.25188 11.6906 6.51606 17.0766C6.51606 17.0766 14.7494 22.3536 15.9277 23.1431C15.9277 23.1431 22.4232 27.0592 24.7898 33.7801C24.7898 33.7801 26.3493 39.083 22.7797 42.9109C22.7797 42.9109 20.23 45.9025 17.611 47.5802C17.611 47.5802 17.7496 48.1203 18.715 48.1775C19.4329 48.219 20.1359 47.9489 20.6954 47.4763C22.6114 45.8454 27.6415 40.7398 25.671 33.4321C25.671 33.4321 24.8888 30.1028 20.9083 26.1243C18.6606 23.8754 16.0812 21.9848 13.5414 20.1254C8.9915 16.8065 4.62482 13.5344 3.57028 7.41605C3.39205 6.39286 3.33264 5.3437 3.43661 4.31012C3.47622 3.89461 3.69901 2.01963 4.28321 1.12109Z" fill="#009888"/>
<path d="M8.55438 1.34991C9.51005 1.8641 10.1241 2.64318 9.50015 4.25328C6.56875 11.7896 13.8774 17.5859 18.6211 21.8501C18.6211 21.8501 25.6228 27.7659 26.2715 33.3752C26.2715 33.3752 24.3057 27.7347 17.8883 22.2864C17.8883 22.2864 10.0894 15.9447 8.08397 12.5167C8.08397 12.5167 3.99883 6.0971 7.11344 0.757812C7.11344 0.757812 7.88095 0.981148 8.55933 1.34991" fill="#009888"/>
<path d="M12.6925 2.3216C12.6925 2.3216 13.6285 2.88254 13.8811 3.04874C14.9458 3.76549 15.3321 5.1938 14.8072 6.40397C14.099 8.04004 13.5245 10.6941 14.827 14.0078C14.827 14.0078 15.7729 16.7605 19.7003 20.3806C21.1018 21.9492 24.7419 24.65 26.2821 30.9346C26.2821 30.9346 24.4002 25.5589 18.8484 20.9831C16.912 19.1341 14.6289 17.1241 13.47 14.5116C13.47 14.5116 9.92895 8.85028 12.6974 2.31641" fill="#009888"/>
<path d="M17.3696 6.14191C17.3696 6.14191 17.8252 6.55742 18.6126 7.56503C19.4843 8.68171 18.7216 10.3022 18.7216 10.3022C18.7216 10.3022 16.8595 14.7222 21.599 19.9835C21.599 19.9835 26.8338 25.4786 26.606 29.9817C26.606 29.9817 26.0265 25.5929 21.5792 21.256C21.5792 21.256 18.4492 18.1189 17.2705 14.9559C17.2705 14.9559 15.5025 10.993 17.3745 6.13672" fill="#009888"/>
<path d="M24.861 36.2891C24.861 36.2891 23.1227 42.2412 16.5408 46.6248C14.7034 47.4974 13.6436 45.4147 13.6436 45.4147C13.6436 45.4147 21.3348 42.797 24.8659 36.2943" fill="#009888"/>
<path d="M24.4844 33.8438C24.4844 33.8438 23.2463 40.227 13.4155 43.1563C13.4155 43.1563 13.5691 42.2682 13.787 41.5566C13.995 40.8658 14.5397 40.3465 15.2182 40.201C17.2042 39.7751 22.0378 38.404 24.4844 33.8438Z" fill="#009888"/>
<path d="M23.7419 32.6758C23.7419 32.6758 23.2565 36.0985 15.0732 38.415L16.0095 36.7582C16.272 36.3167 16.7376 36.0674 17.228 35.9895C18.8082 35.7454 22.7512 34.8468 23.7419 32.6758Z" fill="#009888"/>
<path d="M23.2037 31.5508C23.2037 31.5508 22.3663 34.0698 18.1348 34.2724C18.1348 34.2724 20.5875 31.9351 23.2037 31.5508Z" fill="#009888"/>
<path d="M50.4536 1.11848C50.4536 1.11848 52.7905 1.4353 53.7262 4.92038C53.7262 4.92038 55.9887 11.688 48.2208 17.074C48.2208 17.074 39.9875 22.351 38.8092 23.1404C38.8092 23.1404 32.3136 27.0566 29.9471 33.7775C29.9471 33.7775 28.3876 39.0804 31.9571 42.9083C31.9571 42.9083 34.5069 45.8999 37.1259 47.5775C37.1259 47.5775 36.9872 48.1177 36.0218 48.1748C35.3039 48.2164 34.6009 47.9463 34.0415 47.4737C32.1255 45.8428 27.0954 40.7372 29.0658 33.4295C29.0658 33.4295 29.8481 30.1002 33.8286 26.1217C36.0763 23.8728 38.6557 21.9822 41.1955 20.1228C45.7404 16.7987 50.1071 13.5266 51.1616 7.40824C51.3399 6.38505 51.3993 5.33589 51.2953 4.30231C51.2557 3.8868 51.0329 2.01182 50.4487 1.11328" fill="#009888"/>
<path d="M46.1785 1.34991C45.2229 1.8641 44.6089 2.64318 45.2328 4.25328C48.1642 11.7896 40.8555 17.5859 36.1118 21.8501C36.1118 21.8501 29.115 27.7659 28.4614 33.3752C28.4614 33.3752 30.4272 27.7347 36.8446 22.2864C36.8446 22.2864 44.6435 15.9447 46.649 12.5167C46.649 12.5167 50.7341 6.0971 47.6195 0.757812C47.6195 0.757812 46.852 0.981148 46.1736 1.34991" fill="#009888"/>
<path d="M42.0511 2.3216C42.0511 2.3216 41.1151 2.88254 40.8625 3.04874C39.7977 3.76549 39.4114 5.1938 39.9364 6.40397C40.6446 8.04004 41.2191 10.6941 39.9166 14.0078C39.9166 14.0078 38.9707 16.7605 35.0433 20.3806C33.6418 21.9492 30.0017 24.65 28.4614 30.9346C28.4614 30.9346 30.3434 25.5589 35.8951 20.9831C37.8316 19.1341 40.1147 17.1241 41.2736 14.5116C41.2736 14.5116 44.8146 8.85028 42.0462 2.31641" fill="#009888"/>
<path d="M37.3618 6.14191C37.3618 6.14191 36.9062 6.55742 36.1187 7.56503C35.2471 8.68171 36.0098 10.3022 36.0098 10.3022C36.0098 10.3022 37.8719 14.7222 33.1324 19.9835C33.1324 19.9835 27.8976 25.4786 28.1254 29.9817C28.1254 29.9817 28.7048 25.5929 33.1522 21.256C33.1522 21.256 36.2822 18.1189 37.4609 14.9559C37.4609 14.9559 39.2289 10.993 37.3569 6.13672" fill="#009888"/>
<path d="M29.878 36.2891C29.878 36.2891 31.6163 42.2412 38.1982 46.6248C40.0356 47.4974 41.0954 45.4147 41.0954 45.4147C41.0954 45.4147 33.4042 42.797 29.873 36.2943" fill="#009888"/>
<path d="M30.2539 33.8438C30.2539 33.8438 31.492 40.227 41.3228 43.1563C41.3228 43.1563 41.1692 42.2682 40.9513 41.5566C40.7433 40.8658 40.1985 40.3465 39.5201 40.201C37.5341 39.7751 32.7004 38.404 30.2539 33.8438Z" fill="#009888"/>
<path d="M30.9966 32.6758C30.9966 32.6758 31.482 36.0985 39.6653 38.415L38.729 36.7582C38.4665 36.3167 38.0009 36.0674 37.5105 35.9895C35.9303 35.7454 31.9873 34.8468 30.9966 32.6758Z" fill="#009888"/>
<path d="M31.5312 31.5508C31.5312 31.5508 32.3686 34.0698 36.6002 34.2724C36.6002 34.2724 34.1475 31.9351 31.5312 31.5508Z" fill="#009888"/>
<path d="M26.0681 9.94922C26.0681 9.94922 26.5002 10.2089 26.7982 10.9932C27.0266 11.5957 26.9869 12.2657 26.7386 12.8578C26.4257 13.6005 26.0632 15.0496 26.535 17.2622C26.535 17.2622 27.8958 21.8328 27.0515 25.0633C27.0515 25.0633 26.9968 20.6122 25.934 18.2282C25.934 18.2282 23.8183 13.7096 26.0681 9.94922Z" fill="#FECA0C"/>
<path d="M29.4646 9.95051C29.4646 9.95051 28.8438 10.3245 28.5806 11.5191C28.4962 11.9086 28.5409 12.3189 28.7097 12.6721C29.0325 13.3421 29.5143 14.8483 28.9978 17.2583C28.9978 17.2583 27.637 21.8289 28.4813 25.0594C28.4813 25.0594 28.5359 20.6083 29.5987 18.2243C29.5987 18.2243 31.7144 13.7057 29.4646 9.94531" fill="#FECA0C"/>
</svg>
