<svg width="382" height="368" viewBox="0 0 382 368" fill="none" xmlns="http://www.w3.org/2000/svg">
<path d="M182.696 0.108711C219.582 -0.472057 255.789 10.0623 286.605 30.3413C317.422 50.6202 341.422 79.7047 355.482 113.811C369.543 147.916 373.013 185.465 365.44 221.57C357.868 257.674 339.605 290.665 313.026 316.247L262.051 263.289C277.998 247.939 288.957 228.145 293.5 206.482C298.043 184.819 295.961 162.29 287.525 141.826C279.089 121.363 264.689 103.912 246.199 91.7448C227.709 79.5775 205.985 73.2568 183.853 73.6053L182.696 0.108711Z" fill="#B4DAC3"/>
<path d="M1.86022 187.456C1.38349 163.168 5.72731 139.026 14.6404 116.427C23.5535 93.8284 36.8589 73.221 53.7871 55.7973C70.7153 38.3735 90.9302 24.4791 113.263 14.9177C135.595 5.3564 159.601 0.317928 183.893 0.0937613L184.572 73.5963C169.996 73.7308 155.592 76.7539 142.193 82.4907C128.794 88.2275 116.665 96.5641 106.508 107.018C96.351 117.473 88.3677 129.837 83.0198 143.396C77.672 156.956 75.0657 171.441 75.3517 186.014L1.86022 187.456Z" fill="#38B6AB"/>
<path d="M313.186 316.093C287.448 340.927 255.023 357.71 219.886 364.385C184.749 371.06 148.428 367.337 115.377 353.672C82.3248 340.007 53.979 316.994 33.8149 287.455C13.6508 257.915 2.54476 223.134 1.85865 187.375L75.3508 185.965C75.7625 207.421 82.4261 228.289 94.5245 246.013C106.623 263.736 123.63 277.544 143.462 285.743C163.293 293.942 185.085 296.176 206.167 292.171C227.249 288.166 246.705 278.096 262.147 263.196L313.186 316.093Z" fill="#009888"/>
<path d="M163.359 135.32V133.431H174.616V135.32H170.077V147.977H167.89V135.32H163.359ZM176.533 147.977V137.067H178.657V147.977H176.533ZM177.605 135.384C177.236 135.384 176.919 135.261 176.654 135.015C176.393 134.764 176.263 134.466 176.263 134.12C176.263 133.77 176.393 133.471 176.654 133.225C176.919 132.974 177.236 132.849 177.605 132.849C177.975 132.849 178.29 132.974 178.55 133.225C178.815 133.471 178.948 133.77 178.948 134.12C178.948 134.466 178.815 134.764 178.55 135.015C178.29 135.261 177.975 135.384 177.605 135.384ZM181.113 147.977V137.067H183.152V138.843H183.287C183.514 138.242 183.886 137.773 184.402 137.437C184.918 137.096 185.536 136.925 186.255 136.925C186.985 136.925 187.595 137.096 188.088 137.437C188.585 137.778 188.952 138.246 189.189 138.843H189.302C189.563 138.261 189.977 137.797 190.545 137.451C191.113 137.101 191.791 136.925 192.576 136.925C193.566 136.925 194.373 137.236 194.998 137.856C195.628 138.476 195.943 139.411 195.943 140.661V147.977H193.819V140.86C193.819 140.121 193.618 139.586 193.216 139.255C192.813 138.924 192.333 138.758 191.774 138.758C191.083 138.758 190.545 138.971 190.162 139.397C189.778 139.818 189.586 140.361 189.586 141.023V147.977H187.47V140.725C187.47 140.133 187.285 139.657 186.916 139.298C186.547 138.938 186.066 138.758 185.474 138.758C185.072 138.758 184.7 138.864 184.359 139.077C184.023 139.286 183.751 139.577 183.542 139.951C183.339 140.325 183.237 140.758 183.237 141.251V147.977H181.113ZM203.091 148.197C202.016 148.197 201.09 147.967 200.314 147.508C199.542 147.044 198.946 146.393 198.524 145.555C198.107 144.712 197.899 143.725 197.899 142.593C197.899 141.476 198.107 140.491 198.524 139.638C198.946 138.786 199.533 138.121 200.286 137.643C201.043 137.165 201.929 136.925 202.942 136.925C203.557 136.925 204.154 137.027 204.732 137.231C205.309 137.434 205.828 137.754 206.287 138.19C206.746 138.625 207.108 139.191 207.374 139.887C207.639 140.578 207.771 141.419 207.771 142.408V143.161H199.099V141.57H205.69C205.69 141.012 205.577 140.517 205.349 140.086C205.122 139.65 204.803 139.307 204.391 139.056C203.983 138.805 203.505 138.68 202.956 138.68C202.359 138.68 201.839 138.826 201.393 139.12C200.953 139.409 200.612 139.788 200.371 140.256C200.134 140.72 200.016 141.225 200.016 141.769V143.012C200.016 143.741 200.143 144.362 200.399 144.873C200.66 145.384 201.022 145.775 201.486 146.045C201.95 146.31 202.492 146.442 203.112 146.442C203.515 146.442 203.882 146.386 204.213 146.272C204.545 146.154 204.831 145.978 205.072 145.746C205.314 145.514 205.499 145.228 205.626 144.887L207.636 145.249C207.475 145.841 207.187 146.36 206.77 146.805C206.358 147.245 205.839 147.588 205.214 147.835C204.594 148.076 203.886 148.197 203.091 148.197ZM143.314 172.218C142.623 172.218 141.998 172.09 141.439 171.835C140.881 171.574 140.438 171.198 140.111 170.705C139.789 170.213 139.628 169.609 139.628 168.894C139.628 168.279 139.747 167.772 139.983 167.374C140.22 166.977 140.54 166.662 140.942 166.43C141.345 166.198 141.794 166.022 142.292 165.904C142.789 165.786 143.295 165.696 143.811 165.634C144.465 165.558 144.995 165.497 145.402 165.45C145.81 165.397 146.106 165.315 146.29 165.201C146.475 165.087 146.567 164.903 146.567 164.647V164.597C146.567 163.977 146.392 163.496 146.042 163.156C145.696 162.815 145.18 162.644 144.493 162.644C143.778 162.644 143.215 162.803 142.803 163.12C142.396 163.433 142.114 163.781 141.958 164.164L139.962 163.71C140.199 163.047 140.544 162.512 140.999 162.104C141.458 161.692 141.986 161.394 142.583 161.21C143.179 161.02 143.807 160.925 144.465 160.925C144.9 160.925 145.362 160.978 145.85 161.082C146.342 161.181 146.802 161.366 147.228 161.636C147.659 161.906 148.011 162.291 148.286 162.793C148.561 163.29 148.698 163.937 148.698 164.732V171.977H146.624V170.485H146.539C146.401 170.76 146.195 171.03 145.921 171.295C145.646 171.56 145.293 171.78 144.863 171.955C144.432 172.13 143.916 172.218 143.314 172.218ZM143.776 170.513C144.363 170.513 144.865 170.397 145.282 170.165C145.703 169.933 146.023 169.63 146.24 169.256C146.463 168.878 146.574 168.473 146.574 168.042V166.636C146.499 166.711 146.352 166.782 146.134 166.849C145.921 166.91 145.677 166.965 145.402 167.012C145.128 167.055 144.86 167.095 144.6 167.133C144.339 167.166 144.122 167.194 143.946 167.218C143.534 167.27 143.158 167.358 142.817 167.481C142.481 167.604 142.211 167.781 142.007 168.013C141.809 168.241 141.709 168.544 141.709 168.923C141.709 169.448 141.903 169.846 142.292 170.116C142.68 170.381 143.175 170.513 143.776 170.513ZM153.25 157.431V171.977H151.126V157.431H153.25ZM157.83 157.431V171.977H155.707V157.431H157.83ZM164.882 172.197C163.86 172.197 162.967 171.962 162.205 171.494C161.443 171.025 160.851 170.369 160.429 169.526C160.008 168.683 159.797 167.699 159.797 166.572C159.797 165.44 160.008 164.451 160.429 163.603C160.851 162.755 161.443 162.097 162.205 161.629C162.967 161.16 163.86 160.925 164.882 160.925C165.905 160.925 166.798 161.16 167.56 161.629C168.322 162.097 168.914 162.755 169.336 163.603C169.757 164.451 169.968 165.44 169.968 166.572C169.968 167.699 169.757 168.683 169.336 169.526C168.914 170.369 168.322 171.025 167.56 171.494C166.798 171.962 165.905 172.197 164.882 172.197ZM164.89 170.414C165.552 170.414 166.102 170.239 166.537 169.888C166.973 169.538 167.295 169.072 167.503 168.489C167.716 167.907 167.823 167.265 167.823 166.565C167.823 165.869 167.716 165.229 167.503 164.647C167.295 164.06 166.973 163.589 166.537 163.234C166.102 162.879 165.552 162.701 164.89 162.701C164.222 162.701 163.668 162.879 163.228 163.234C162.792 163.589 162.468 164.06 162.255 164.647C162.046 165.229 161.942 165.869 161.942 166.565C161.942 167.265 162.046 167.907 162.255 168.489C162.468 169.072 162.792 169.538 163.228 169.888C163.668 170.239 164.222 170.414 164.89 170.414ZM176.533 172.197C175.477 172.197 174.568 171.958 173.806 171.479C173.048 170.996 172.466 170.331 172.059 169.484C171.652 168.636 171.448 167.665 171.448 166.572C171.448 165.464 171.656 164.486 172.073 163.638C172.49 162.786 173.077 162.121 173.834 161.643C174.592 161.165 175.484 160.925 176.512 160.925C177.341 160.925 178.079 161.079 178.728 161.387C179.376 161.69 179.9 162.116 180.297 162.665C180.7 163.215 180.939 163.856 181.015 164.59H178.948C178.834 164.079 178.574 163.638 178.167 163.269C177.764 162.9 177.224 162.715 176.547 162.715C175.956 162.715 175.437 162.871 174.992 163.184C174.552 163.492 174.208 163.932 173.962 164.505C173.716 165.073 173.593 165.746 173.593 166.522C173.593 167.317 173.714 168.004 173.955 168.582C174.197 169.159 174.537 169.607 174.978 169.924C175.423 170.241 175.946 170.4 176.547 170.4C176.95 170.4 177.314 170.326 177.641 170.18C177.973 170.028 178.25 169.813 178.472 169.533C178.699 169.254 178.858 168.918 178.948 168.525H181.015C180.939 169.23 180.709 169.86 180.326 170.414C179.942 170.968 179.429 171.404 178.785 171.721C178.145 172.038 177.395 172.197 176.533 172.197ZM186.06 172.218C185.369 172.218 184.744 172.09 184.185 171.835C183.627 171.574 183.184 171.198 182.857 170.705C182.535 170.213 182.374 169.609 182.374 168.894C182.374 168.279 182.493 167.772 182.729 167.374C182.966 166.977 183.286 166.662 183.688 166.43C184.091 166.198 184.541 166.022 185.038 165.904C185.535 165.786 186.041 165.696 186.558 165.634C187.211 165.558 187.741 165.497 188.148 165.45C188.556 165.397 188.852 165.315 189.036 165.201C189.221 165.087 189.313 164.903 189.313 164.647V164.597C189.313 163.977 189.138 163.496 188.788 163.156C188.442 162.815 187.926 162.644 187.239 162.644C186.524 162.644 185.961 162.803 185.549 163.12C185.142 163.433 184.86 163.781 184.704 164.164L182.708 163.71C182.945 163.047 183.291 162.512 183.745 162.104C184.204 161.692 184.732 161.394 185.329 161.21C185.925 161.02 186.553 160.925 187.211 160.925C187.647 160.925 188.108 160.978 188.596 161.082C189.088 161.181 189.548 161.366 189.974 161.636C190.405 161.906 190.757 162.291 191.032 162.793C191.307 163.29 191.444 163.937 191.444 164.732V171.977H189.37V170.485H189.285C189.148 170.76 188.942 171.03 188.667 171.295C188.392 171.56 188.04 171.78 187.609 171.955C187.178 172.13 186.662 172.218 186.06 172.218ZM186.522 170.513C187.109 170.513 187.611 170.397 188.028 170.165C188.449 169.933 188.769 169.63 188.987 169.256C189.209 168.878 189.32 168.473 189.32 168.042V166.636C189.245 166.711 189.098 166.782 188.88 166.849C188.667 166.91 188.423 166.965 188.148 167.012C187.874 167.055 187.606 167.095 187.346 167.133C187.086 167.166 186.868 167.194 186.693 167.218C186.281 167.27 185.904 167.358 185.563 167.481C185.227 167.604 184.957 167.781 184.754 168.013C184.555 168.241 184.455 168.544 184.455 168.923C184.455 169.448 184.649 169.846 185.038 170.116C185.426 170.381 185.921 170.513 186.522 170.513ZM198.965 161.067V162.772H193.006V161.067H198.965ZM194.604 158.454H196.728V168.773C196.728 169.185 196.789 169.496 196.912 169.704C197.035 169.907 197.194 170.047 197.388 170.123C197.587 170.194 197.802 170.229 198.034 170.229C198.205 170.229 198.354 170.218 198.482 170.194C198.61 170.17 198.709 170.151 198.78 170.137L199.164 171.891C199.04 171.939 198.865 171.986 198.638 172.033C198.411 172.085 198.127 172.114 197.786 172.119C197.227 172.128 196.706 172.029 196.223 171.82C195.74 171.612 195.35 171.29 195.051 170.854C194.753 170.419 194.604 169.872 194.604 169.214V158.454ZM200.914 171.977V161.067H203.037V171.977H200.914ZM201.986 159.384C201.617 159.384 201.3 159.261 201.035 159.015C200.774 158.764 200.644 158.466 200.644 158.12C200.644 157.77 200.774 157.471 201.035 157.225C201.3 156.974 201.617 156.849 201.986 156.849C202.356 156.849 202.67 156.974 202.931 157.225C203.196 157.471 203.329 157.77 203.329 158.12C203.329 158.466 203.196 158.764 202.931 159.015C202.67 159.261 202.356 159.384 201.986 159.384ZM210.089 172.197C209.067 172.197 208.174 171.962 207.412 171.494C206.65 171.025 206.058 170.369 205.636 169.526C205.215 168.683 205.004 167.699 205.004 166.572C205.004 165.44 205.215 164.451 205.636 163.603C206.058 162.755 206.65 162.097 207.412 161.629C208.174 161.16 209.067 160.925 210.089 160.925C211.112 160.925 212.005 161.16 212.767 161.629C213.529 162.097 214.121 162.755 214.543 163.603C214.964 164.451 215.175 165.44 215.175 166.572C215.175 167.699 214.964 168.683 214.543 169.526C214.121 170.369 213.529 171.025 212.767 171.494C212.005 171.962 211.112 172.197 210.089 172.197ZM210.097 170.414C210.759 170.414 211.309 170.239 211.744 169.888C212.18 169.538 212.502 169.072 212.71 168.489C212.923 167.907 213.03 167.265 213.03 166.565C213.03 165.869 212.923 165.229 212.71 164.647C212.502 164.06 212.18 163.589 211.744 163.234C211.309 162.879 210.759 162.701 210.097 162.701C209.429 162.701 208.875 162.879 208.435 163.234C207.999 163.589 207.675 164.06 207.462 164.647C207.253 165.229 207.149 165.869 207.149 166.565C207.149 167.265 207.253 167.907 207.462 168.489C207.675 169.072 207.999 169.538 208.435 169.888C208.875 170.239 209.429 170.414 210.097 170.414ZM219.269 165.499V171.977H217.145V161.067H219.183V162.843H219.318C219.569 162.265 219.962 161.801 220.497 161.451C221.037 161.101 221.717 160.925 222.536 160.925C223.279 160.925 223.93 161.082 224.489 161.394C225.048 161.702 225.481 162.161 225.789 162.772C226.096 163.383 226.25 164.138 226.25 165.038V171.977H224.127V165.293C224.127 164.503 223.921 163.885 223.509 163.44C223.097 162.99 222.531 162.765 221.811 162.765C221.319 162.765 220.881 162.871 220.497 163.085C220.119 163.298 219.818 163.61 219.595 164.022C219.378 164.429 219.269 164.922 219.269 165.499ZM144.311 196.218C143.62 196.218 142.995 196.09 142.436 195.835C141.877 195.574 141.434 195.198 141.108 194.705C140.786 194.213 140.625 193.609 140.625 192.894C140.625 192.279 140.743 191.772 140.98 191.374C141.217 190.977 141.536 190.662 141.939 190.43C142.341 190.198 142.791 190.022 143.288 189.904C143.785 189.786 144.292 189.696 144.808 189.634C145.461 189.558 145.992 189.497 146.399 189.45C146.806 189.397 147.102 189.315 147.287 189.201C147.471 189.087 147.564 188.903 147.564 188.647V188.597C147.564 187.977 147.388 187.496 147.038 187.156C146.692 186.815 146.176 186.644 145.49 186.644C144.775 186.644 144.211 186.803 143.799 187.12C143.392 187.433 143.111 187.781 142.954 188.164L140.959 187.71C141.195 187.047 141.541 186.512 141.995 186.104C142.455 185.692 142.983 185.394 143.579 185.21C144.176 185.02 144.803 184.925 145.461 184.925C145.897 184.925 146.359 184.978 146.846 185.082C147.339 185.181 147.798 185.366 148.224 185.636C148.655 185.906 149.008 186.291 149.282 186.793C149.557 187.29 149.694 187.937 149.694 188.732V195.977H147.62V194.485H147.535C147.398 194.76 147.192 195.03 146.917 195.295C146.643 195.56 146.29 195.78 145.859 195.955C145.428 196.13 144.912 196.218 144.311 196.218ZM144.772 194.513C145.36 194.513 145.861 194.397 146.278 194.165C146.7 193.933 147.019 193.63 147.237 193.256C147.459 192.878 147.571 192.473 147.571 192.042V190.636C147.495 190.711 147.348 190.782 147.13 190.849C146.917 190.91 146.673 190.965 146.399 191.012C146.124 191.055 145.857 191.095 145.596 191.133C145.336 191.166 145.118 191.194 144.943 191.218C144.531 191.27 144.155 191.358 143.814 191.481C143.477 191.604 143.208 191.781 143.004 192.013C142.805 192.241 142.706 192.544 142.706 192.923C142.706 193.448 142.9 193.846 143.288 194.116C143.676 194.381 144.171 194.513 144.772 194.513ZM156.718 196.197C155.662 196.197 154.753 195.958 153.991 195.479C153.233 194.996 152.651 194.331 152.244 193.484C151.836 192.636 151.633 191.665 151.633 190.572C151.633 189.464 151.841 188.486 152.258 187.638C152.674 186.786 153.262 186.121 154.019 185.643C154.777 185.165 155.669 184.925 156.697 184.925C157.525 184.925 158.264 185.079 158.913 185.387C159.561 185.69 160.084 186.116 160.482 186.665C160.885 187.215 161.124 187.856 161.2 188.59H159.133C159.019 188.079 158.759 187.638 158.351 187.269C157.949 186.9 157.409 186.715 156.732 186.715C156.14 186.715 155.622 186.871 155.177 187.184C154.736 187.492 154.393 187.932 154.147 188.505C153.901 189.073 153.778 189.746 153.778 190.522C153.778 191.317 153.898 192.004 154.14 192.582C154.381 193.159 154.722 193.607 155.163 193.924C155.608 194.241 156.131 194.4 156.732 194.4C157.135 194.4 157.499 194.326 157.826 194.18C158.157 194.028 158.434 193.813 158.657 193.533C158.884 193.254 159.043 192.918 159.133 192.525H161.2C161.124 193.23 160.894 193.86 160.511 194.414C160.127 194.968 159.613 195.404 158.969 195.721C158.33 196.038 157.58 196.197 156.718 196.197ZM163.07 195.977V185.067H165.123V186.8H165.237C165.436 186.213 165.786 185.752 166.288 185.415C166.794 185.075 167.367 184.904 168.007 184.904C168.139 184.904 168.295 184.909 168.475 184.918C168.66 184.928 168.804 184.94 168.909 184.954V186.985C168.823 186.961 168.672 186.935 168.454 186.907C168.236 186.874 168.018 186.857 167.801 186.857C167.299 186.857 166.851 186.964 166.458 187.177C166.07 187.385 165.762 187.676 165.535 188.05C165.308 188.42 165.194 188.841 165.194 189.315V195.977H163.07ZM174.551 196.197C173.528 196.197 172.636 195.962 171.873 195.494C171.111 195.025 170.519 194.369 170.098 193.526C169.676 192.683 169.466 191.699 169.466 190.572C169.466 189.44 169.676 188.451 170.098 187.603C170.519 186.755 171.111 186.097 171.873 185.629C172.636 185.16 173.528 184.925 174.551 184.925C175.574 184.925 176.466 185.16 177.228 185.629C177.991 186.097 178.583 186.755 179.004 187.603C179.425 188.451 179.636 189.44 179.636 190.572C179.636 191.699 179.425 192.683 179.004 193.526C178.583 194.369 177.991 195.025 177.228 195.494C176.466 195.962 175.574 196.197 174.551 196.197ZM174.558 194.414C175.221 194.414 175.77 194.239 176.206 193.888C176.641 193.538 176.963 193.072 177.172 192.489C177.385 191.907 177.491 191.265 177.491 190.565C177.491 189.869 177.385 189.229 177.172 188.647C176.963 188.06 176.641 187.589 176.206 187.234C175.77 186.879 175.221 186.701 174.558 186.701C173.89 186.701 173.336 186.879 172.896 187.234C172.46 187.589 172.136 188.06 171.923 188.647C171.715 189.229 171.61 189.869 171.61 190.565C171.61 191.265 171.715 191.907 171.923 192.489C172.136 193.072 172.46 193.538 172.896 193.888C173.336 194.239 173.89 194.414 174.558 194.414ZM189.781 187.731L187.856 188.072C187.776 187.826 187.648 187.591 187.473 187.369C187.302 187.146 187.07 186.964 186.777 186.822C186.483 186.68 186.116 186.609 185.676 186.609C185.075 186.609 184.573 186.744 184.17 187.013C183.768 187.279 183.567 187.622 183.567 188.043C183.567 188.408 183.702 188.701 183.971 188.924C184.241 189.147 184.677 189.329 185.278 189.471L187.011 189.869C188.015 190.101 188.763 190.458 189.256 190.941C189.748 191.424 189.994 192.051 189.994 192.823C189.994 193.477 189.805 194.059 189.426 194.57C189.052 195.077 188.529 195.475 187.856 195.763C187.189 196.052 186.415 196.197 185.534 196.197C184.312 196.197 183.316 195.936 182.544 195.415C181.772 194.89 181.299 194.144 181.123 193.178L183.176 192.866C183.304 193.401 183.567 193.806 183.964 194.08C184.362 194.35 184.881 194.485 185.52 194.485C186.216 194.485 186.772 194.341 187.189 194.052C187.605 193.758 187.814 193.401 187.814 192.979C187.814 192.638 187.686 192.352 187.43 192.12C187.179 191.888 186.793 191.713 186.273 191.594L184.426 191.19C183.408 190.958 182.655 190.588 182.167 190.082C181.685 189.575 181.443 188.933 181.443 188.157C181.443 187.513 181.623 186.95 181.983 186.467C182.343 185.984 182.84 185.607 183.474 185.337C184.109 185.063 184.836 184.925 185.655 184.925C186.834 184.925 187.762 185.181 188.439 185.692C189.116 186.199 189.563 186.879 189.781 187.731ZM200.104 187.731L198.179 188.072C198.099 187.826 197.971 187.591 197.796 187.369C197.625 187.146 197.393 186.964 197.1 186.822C196.806 186.68 196.439 186.609 195.999 186.609C195.397 186.609 194.895 186.744 194.493 187.013C194.091 187.279 193.889 187.622 193.889 188.043C193.889 188.408 194.024 188.701 194.294 188.924C194.564 189.147 195 189.329 195.601 189.471L197.334 189.869C198.338 190.101 199.086 190.458 199.578 190.941C200.071 191.424 200.317 192.051 200.317 192.823C200.317 193.477 200.127 194.059 199.749 194.57C199.375 195.077 198.851 195.475 198.179 195.763C197.511 196.052 196.737 196.197 195.857 196.197C194.635 196.197 193.638 195.936 192.867 195.415C192.095 194.89 191.621 194.144 191.446 193.178L193.499 192.866C193.626 193.401 193.889 193.806 194.287 194.08C194.685 194.35 195.203 194.485 195.842 194.485C196.538 194.485 197.095 194.341 197.511 194.052C197.928 193.758 198.136 193.401 198.136 192.979C198.136 192.638 198.009 192.352 197.753 192.12C197.502 191.888 197.116 191.713 196.595 191.594L194.749 191.19C193.731 190.958 192.978 190.588 192.49 190.082C192.007 189.575 191.766 188.933 191.766 188.157C191.766 187.513 191.946 186.95 192.305 186.467C192.665 185.984 193.162 185.607 193.797 185.337C194.431 185.063 195.158 184.925 195.977 184.925C197.156 184.925 198.084 185.181 198.761 185.692C199.439 186.199 199.886 186.879 200.104 187.731ZM212.237 185.067V186.772H206.278V185.067H212.237ZM207.876 182.454H210V192.773C210 193.185 210.061 193.496 210.184 193.704C210.308 193.907 210.466 194.047 210.66 194.123C210.859 194.194 211.075 194.229 211.307 194.229C211.477 194.229 211.626 194.218 211.754 194.194C211.882 194.17 211.981 194.151 212.052 194.137L212.436 195.891C212.313 195.939 212.138 195.986 211.91 196.033C211.683 196.085 211.399 196.114 211.058 196.119C210.499 196.128 209.978 196.029 209.496 195.82C209.013 195.612 208.622 195.29 208.324 194.854C208.025 194.419 207.876 193.872 207.876 193.214V182.454ZM216.544 189.499V195.977H214.42V181.431H216.516V186.843H216.651C216.906 186.256 217.297 185.79 217.822 185.444C218.348 185.098 219.035 184.925 219.882 184.925C220.63 184.925 221.284 185.079 221.842 185.387C222.406 185.695 222.841 186.154 223.149 186.765C223.462 187.371 223.618 188.129 223.618 189.038V195.977H221.494V189.293C221.494 188.493 221.288 187.873 220.876 187.433C220.464 186.987 219.892 186.765 219.158 186.765C218.656 186.765 218.206 186.871 217.808 187.085C217.415 187.298 217.105 187.61 216.878 188.022C216.655 188.429 216.544 188.922 216.544 189.499ZM230.753 196.197C229.679 196.197 228.753 195.967 227.976 195.508C227.205 195.044 226.608 194.393 226.187 193.555C225.77 192.712 225.562 191.725 225.562 190.593C225.562 189.476 225.77 188.491 226.187 187.638C226.608 186.786 227.195 186.121 227.948 185.643C228.706 185.165 229.591 184.925 230.604 184.925C231.22 184.925 231.816 185.027 232.394 185.231C232.972 185.434 233.49 185.754 233.949 186.19C234.409 186.625 234.771 187.191 235.036 187.887C235.301 188.578 235.434 189.419 235.434 190.408V191.161H226.762V189.57H233.353C233.353 189.012 233.239 188.517 233.012 188.086C232.785 187.65 232.465 187.307 232.053 187.056C231.646 186.805 231.168 186.68 230.618 186.68C230.022 186.68 229.501 186.826 229.056 187.12C228.616 187.409 228.275 187.788 228.033 188.256C227.797 188.72 227.678 189.225 227.678 189.769V191.012C227.678 191.741 227.806 192.362 228.062 192.873C228.322 193.384 228.684 193.775 229.148 194.045C229.612 194.31 230.154 194.442 230.775 194.442C231.177 194.442 231.544 194.386 231.876 194.272C232.207 194.154 232.493 193.978 232.735 193.746C232.976 193.514 233.161 193.228 233.289 192.887L235.299 193.249C235.138 193.841 234.849 194.36 234.432 194.805C234.02 195.245 233.502 195.588 232.877 195.835C232.257 196.076 231.549 196.197 230.753 196.197ZM152.653 217.136V215.36L158.939 205.431H160.338V208.045H159.45L154.954 215.161V215.275H163.569V217.136H152.653ZM159.549 219.977V216.596L159.564 215.786V205.431H161.645V219.977H159.549ZM171.908 224.067C171.591 224.067 171.302 224.041 171.042 223.989C170.781 223.942 170.587 223.89 170.459 223.833L170.971 222.093C171.359 222.197 171.705 222.242 172.008 222.228C172.311 222.214 172.578 222.1 172.81 221.887C173.047 221.674 173.255 221.326 173.435 220.843L173.698 220.119L169.706 209.067H171.979L174.742 217.533H174.856L177.618 209.067H179.898L175.402 221.433C175.194 222.001 174.929 222.481 174.607 222.874C174.285 223.272 173.901 223.57 173.456 223.769C173.011 223.968 172.495 224.067 171.908 224.067ZM185.825 220.197C184.75 220.197 183.824 219.967 183.048 219.508C182.276 219.044 181.679 218.393 181.258 217.555C180.841 216.712 180.633 215.725 180.633 214.593C180.633 213.476 180.841 212.491 181.258 211.638C181.679 210.786 182.266 210.121 183.019 209.643C183.777 209.165 184.662 208.925 185.675 208.925C186.291 208.925 186.887 209.027 187.465 209.231C188.043 209.434 188.561 209.754 189.021 210.19C189.48 210.625 189.842 211.191 190.107 211.887C190.372 212.578 190.505 213.419 190.505 214.408V215.161H181.833V213.57H188.424C188.424 213.012 188.31 212.517 188.083 212.086C187.856 211.65 187.536 211.307 187.124 211.056C186.717 210.805 186.239 210.68 185.69 210.68C185.093 210.68 184.572 210.826 184.127 211.12C183.687 211.409 183.346 211.788 183.104 212.256C182.868 212.72 182.749 213.225 182.749 213.769V215.012C182.749 215.741 182.877 216.362 183.133 216.873C183.393 217.384 183.755 217.775 184.219 218.045C184.683 218.31 185.226 218.442 185.846 218.442C186.248 218.442 186.615 218.386 186.947 218.272C187.278 218.154 187.565 217.978 187.806 217.746C188.048 217.514 188.232 217.228 188.36 216.887L190.37 217.249C190.209 217.841 189.92 218.36 189.503 218.805C189.092 219.245 188.573 219.588 187.948 219.835C187.328 220.076 186.62 220.197 185.825 220.197ZM195.636 220.218C194.945 220.218 194.32 220.09 193.761 219.835C193.202 219.574 192.759 219.198 192.433 218.705C192.111 218.213 191.95 217.609 191.95 216.894C191.95 216.279 192.068 215.772 192.305 215.374C192.542 214.977 192.861 214.662 193.264 214.43C193.666 214.198 194.116 214.022 194.613 213.904C195.11 213.786 195.617 213.696 196.133 213.634C196.786 213.558 197.317 213.497 197.724 213.45C198.131 213.397 198.427 213.315 198.612 213.201C198.796 213.087 198.889 212.903 198.889 212.647V212.597C198.889 211.977 198.713 211.496 198.363 211.156C198.017 210.815 197.501 210.644 196.815 210.644C196.1 210.644 195.536 210.803 195.124 211.12C194.717 211.433 194.436 211.781 194.279 212.164L192.284 211.71C192.52 211.047 192.866 210.512 193.32 210.104C193.78 209.692 194.308 209.394 194.904 209.21C195.501 209.02 196.128 208.925 196.786 208.925C197.222 208.925 197.684 208.978 198.171 209.082C198.664 209.181 199.123 209.366 199.549 209.636C199.98 209.906 200.333 210.291 200.607 210.793C200.882 211.29 201.019 211.937 201.019 212.732V219.977H198.945V218.485H198.86C198.723 218.76 198.517 219.03 198.242 219.295C197.968 219.56 197.615 219.78 197.184 219.955C196.753 220.13 196.237 220.218 195.636 220.218ZM196.097 218.513C196.685 218.513 197.186 218.397 197.603 218.165C198.025 217.933 198.344 217.63 198.562 217.256C198.784 216.878 198.896 216.473 198.896 216.042V214.636C198.82 214.711 198.673 214.782 198.455 214.849C198.242 214.91 197.998 214.965 197.724 215.012C197.449 215.055 197.182 215.095 196.921 215.133C196.661 215.166 196.443 215.194 196.268 215.218C195.856 215.27 195.48 215.358 195.139 215.481C194.802 215.604 194.533 215.781 194.329 216.013C194.13 216.241 194.031 216.544 194.031 216.923C194.031 217.448 194.225 217.846 194.613 218.116C195.001 218.381 195.496 218.513 196.097 218.513ZM203.448 219.977V209.067H205.5V210.8H205.614C205.813 210.213 206.163 209.752 206.665 209.415C207.172 209.075 207.745 208.904 208.384 208.904C208.516 208.904 208.673 208.909 208.853 208.918C209.037 208.928 209.182 208.94 209.286 208.954V210.985C209.201 210.961 209.049 210.935 208.831 210.907C208.614 210.874 208.396 210.857 208.178 210.857C207.676 210.857 207.229 210.964 206.836 211.177C206.447 211.385 206.14 211.676 205.912 212.05C205.685 212.42 205.571 212.841 205.571 213.315V219.977H203.448ZM218.898 211.731L216.974 212.072C216.893 211.826 216.765 211.591 216.59 211.369C216.42 211.146 216.188 210.964 215.894 210.822C215.6 210.68 215.234 210.609 214.793 210.609C214.192 210.609 213.69 210.744 213.288 211.013C212.885 211.279 212.684 211.622 212.684 212.043C212.684 212.408 212.819 212.701 213.089 212.924C213.359 213.147 213.794 213.329 214.395 213.471L216.128 213.869C217.132 214.101 217.88 214.458 218.373 214.941C218.865 215.424 219.111 216.051 219.111 216.823C219.111 217.477 218.922 218.059 218.543 218.57C218.169 219.077 217.646 219.475 216.974 219.763C216.306 220.052 215.532 220.197 214.651 220.197C213.43 220.197 212.433 219.936 211.661 219.415C210.889 218.89 210.416 218.144 210.241 217.178L212.293 216.866C212.421 217.401 212.684 217.806 213.082 218.08C213.479 218.35 213.998 218.485 214.637 218.485C215.333 218.485 215.889 218.341 216.306 218.052C216.723 217.758 216.931 217.401 216.931 216.979C216.931 216.638 216.803 216.352 216.547 216.12C216.297 215.888 215.911 215.713 215.39 215.594L213.543 215.19C212.525 214.958 211.772 214.588 211.285 214.082C210.802 213.575 210.56 212.933 210.56 212.157C210.56 211.513 210.74 210.95 211.1 210.467C211.46 209.984 211.957 209.607 212.591 209.337C213.226 209.063 213.953 208.925 214.772 208.925C215.951 208.925 216.879 209.181 217.556 209.692C218.233 210.199 218.68 210.879 218.898 211.731Z" fill="#2E2D2C"/>
<rect x="294.615" y="34.8438" width="86.6432" height="86.6432" rx="43.3216" fill="white"/>
<path d="M324.836 85.344C323.882 85.344 323.031 85.18 322.286 84.8518C321.544 84.5194 320.958 84.0635 320.528 83.4839C320.102 82.9001 319.882 82.2268 319.87 81.464H322.656C322.673 81.7836 322.778 82.0649 322.97 82.3078C323.166 82.5464 323.426 82.7318 323.749 82.8639C324.073 82.996 324.438 83.0621 324.843 83.0621C325.264 83.0621 325.637 82.9875 325.961 82.8383C326.285 82.6892 326.539 82.4825 326.722 82.2183C326.905 81.9541 326.997 81.6494 326.997 81.3042C326.997 80.9548 326.899 80.6459 326.703 80.3774C326.511 80.1047 326.234 79.8916 325.872 79.7382C325.514 79.5848 325.088 79.5081 324.593 79.5081H323.372V77.4754H324.593C325.011 77.4754 325.379 77.403 325.699 77.2581C326.023 77.1132 326.274 76.9129 326.453 76.6572C326.632 76.3973 326.722 76.0947 326.722 75.7496C326.722 75.4214 326.643 75.1338 326.485 74.8866C326.332 74.6352 326.115 74.4392 325.833 74.2986C325.556 74.1579 325.232 74.0876 324.862 74.0876C324.487 74.0876 324.144 74.1558 323.833 74.2922C323.522 74.4243 323.272 74.6139 323.085 74.8611C322.897 75.1082 322.797 75.398 322.784 75.7304H320.132C320.144 74.9761 320.36 74.3113 320.777 73.7361C321.195 73.1608 321.757 72.7112 322.465 72.3873C323.176 72.0592 323.98 71.8952 324.874 71.8952C325.778 71.8952 326.568 72.0592 327.246 72.3873C327.923 72.7155 328.45 73.1586 328.825 73.7169C329.204 74.2709 329.392 74.893 329.387 75.5834C329.392 76.3163 329.164 76.9278 328.703 77.4179C328.247 77.9079 327.653 78.219 326.92 78.3511V78.4534C327.883 78.577 328.616 78.9115 329.119 79.4569C329.626 79.9981 329.877 80.6757 329.873 81.4896C329.877 82.2354 329.662 82.898 329.227 83.4775C328.797 84.0571 328.203 84.5131 327.444 84.8454C326.686 85.1778 325.816 85.344 324.836 85.344ZM332.02 85.165L337.447 74.4264V74.3369H331.125V72.0741H340.311V74.3689L334.878 85.165H332.02ZM349.013 82.7105V82.0202C349.013 81.496 349.124 81.0145 349.346 80.5756C349.571 80.1324 349.897 79.7787 350.324 79.5145C350.754 79.246 351.278 79.1118 351.896 79.1118C352.522 79.1118 353.049 79.2439 353.475 79.5081C353.905 79.7723 354.229 80.126 354.446 80.5692C354.668 81.0081 354.779 81.4917 354.779 82.0202V82.7105C354.779 83.2346 354.668 83.7183 354.446 84.1615C354.225 84.6004 353.899 84.952 353.468 85.2162C353.038 85.4846 352.514 85.6189 351.896 85.6189C351.27 85.6189 350.743 85.4846 350.317 85.2162C349.891 84.952 349.567 84.6004 349.346 84.1615C349.124 83.7183 349.013 83.2346 349.013 82.7105ZM350.873 82.0202V82.7105C350.873 83.0131 350.946 83.2986 351.091 83.567C351.24 83.8355 351.508 83.9697 351.896 83.9697C352.284 83.9697 352.548 83.8376 352.689 83.5734C352.833 83.3092 352.906 83.0216 352.906 82.7105V82.0202C352.906 81.7091 352.838 81.4193 352.701 81.1508C352.565 80.8824 352.297 80.7481 351.896 80.7481C351.512 80.7481 351.246 80.8824 351.097 81.1508C350.948 81.4193 350.873 81.7091 350.873 82.0202ZM342.295 75.219V74.5287C342.295 74.0003 342.408 73.5166 342.634 73.0777C342.86 72.6345 343.186 72.2808 343.612 72.0166C344.042 71.7524 344.562 71.6203 345.172 71.6203C345.802 71.6203 346.331 71.7524 346.757 72.0166C347.183 72.2808 347.507 72.6345 347.728 73.0777C347.95 73.5166 348.061 74.0003 348.061 74.5287V75.219C348.061 75.7474 347.948 76.2311 347.722 76.67C347.5 77.1089 347.174 77.4605 346.744 77.7247C346.318 77.9846 345.794 78.1146 345.172 78.1146C344.549 78.1146 344.023 77.9825 343.593 77.7183C343.167 77.4498 342.843 77.0983 342.621 76.6636C342.404 76.2247 342.295 75.7432 342.295 75.219ZM344.168 74.5287V75.219C344.168 75.5301 344.24 75.8177 344.385 76.0819C344.534 76.3461 344.797 76.4782 345.172 76.4782C345.564 76.4782 345.83 76.3461 345.971 76.0819C346.115 75.8177 346.188 75.5301 346.188 75.219V74.5287C346.188 74.2176 346.12 73.9278 345.983 73.6594C345.847 73.3909 345.576 73.2567 345.172 73.2567C344.792 73.2567 344.53 73.393 344.385 73.6657C344.24 73.9385 344.168 74.2261 344.168 74.5287ZM343.139 85.165L352.139 72.0741H353.814L344.814 85.165H343.139Z" fill="#2E2D2C"/>
<rect x="24.5771" y="274.863" width="86.6432" height="86.6432" rx="43.3216" fill="white"/>
<path d="M54.2985 325.364C53.344 325.364 52.4939 325.199 51.7481 324.871C51.0066 324.539 50.4207 324.083 49.9903 323.503C49.5642 322.92 49.3447 322.246 49.3319 321.484H52.1189C52.1359 321.803 52.2403 322.084 52.4321 322.327C52.6281 322.566 52.888 322.751 53.2119 322.883C53.5358 323.016 53.9001 323.082 54.3049 323.082C54.7268 323.082 55.0997 323.007 55.4235 322.858C55.7474 322.709 56.001 322.502 56.1842 322.238C56.3674 321.974 56.4591 321.669 56.4591 321.324C56.4591 320.974 56.361 320.665 56.165 320.397C55.9733 320.124 55.6963 319.911 55.3341 319.758C54.9761 319.604 54.55 319.528 54.0556 319.528H52.8348V317.495H54.0556C54.4733 317.495 54.8419 317.422 55.1615 317.278C55.4853 317.133 55.7368 316.932 55.9157 316.677C56.0947 316.417 56.1842 316.114 56.1842 315.769C56.1842 315.441 56.1054 315.153 55.9477 314.906C55.7943 314.655 55.5769 314.459 55.2957 314.318C55.0187 314.177 54.6948 314.107 54.3241 314.107C53.9491 314.107 53.6061 314.175 53.295 314.312C52.9839 314.444 52.7346 314.633 52.5471 314.881C52.3596 315.128 52.2595 315.418 52.2467 315.75H49.594C49.6068 314.996 49.822 314.331 50.2396 313.756C50.6572 313.18 51.2197 312.731 51.9271 312.407C52.6387 312.079 53.442 311.915 54.3369 311.915C55.2403 311.915 56.0308 312.079 56.7083 312.407C57.3859 312.735 57.9122 313.178 58.2872 313.736C58.6664 314.29 58.8539 314.913 58.8497 315.603C58.8539 316.336 58.626 316.947 58.1657 317.437C57.7098 317.927 57.1153 318.239 56.3823 318.371V318.473C57.3454 318.597 58.0784 318.931 58.5812 319.476C59.0883 320.018 59.3397 320.695 59.3355 321.509C59.3397 322.255 59.1245 322.918 58.6899 323.497C58.2595 324.077 57.665 324.533 56.9065 324.865C56.148 325.197 55.2787 325.364 54.2985 325.364ZM65.8485 325.364C64.8641 325.364 63.9884 325.204 63.2214 324.884C62.4586 324.56 61.8599 324.119 61.4252 323.561C60.9906 323.003 60.7732 322.37 60.7732 321.663C60.7732 321.117 60.8968 320.616 61.144 320.16C61.3954 319.7 61.7363 319.319 62.1667 319.016C62.5971 318.709 63.0786 318.513 63.6113 318.428V318.339C62.9124 318.198 62.3457 317.859 61.911 317.322C61.4764 316.781 61.259 316.153 61.259 315.437C61.259 314.759 61.4572 314.156 61.8535 313.628C62.2498 313.095 62.7931 312.677 63.4835 312.375C64.1781 312.068 64.9664 311.915 65.8485 311.915C66.7306 311.915 67.5168 312.068 68.2072 312.375C68.9018 312.682 69.4472 313.101 69.8435 313.634C70.2399 314.163 70.4401 314.763 70.4444 315.437C70.4401 316.157 70.2185 316.785 69.7796 317.322C69.3407 317.859 68.7782 318.198 68.0921 318.339V318.428C68.6163 318.513 69.0914 318.709 69.5176 319.016C69.948 319.319 70.2889 319.7 70.5403 320.16C70.796 320.616 70.9259 321.117 70.9302 321.663C70.9259 322.37 70.7065 323.003 70.2718 323.561C69.8372 324.119 69.2363 324.56 68.4693 324.884C67.7065 325.204 66.8329 325.364 65.8485 325.364ZM65.8485 323.331C66.2874 323.331 66.671 323.252 66.9991 323.094C67.3272 322.932 67.5829 322.711 67.7661 322.43C67.9536 322.144 68.0474 321.816 68.0474 321.445C68.0474 321.066 67.9515 320.731 67.7597 320.442C67.568 320.148 67.308 319.918 66.9799 319.751C66.6518 319.581 66.2747 319.496 65.8485 319.496C65.4266 319.496 65.0495 319.581 64.7171 319.751C64.3847 319.918 64.1227 320.148 63.9309 320.442C63.7434 320.731 63.6497 321.066 63.6497 321.445C63.6497 321.816 63.7413 322.144 63.9245 322.43C64.1078 322.711 64.3656 322.932 64.698 323.094C65.0303 323.252 65.4139 323.331 65.8485 323.331ZM65.8485 317.482C66.215 317.482 66.541 317.408 66.8265 317.258C67.112 317.109 67.3357 316.903 67.4977 316.638C67.6596 316.374 67.7406 316.07 67.7406 315.724C67.7406 315.383 67.6596 315.085 67.4977 314.829C67.3357 314.57 67.1141 314.367 66.8329 314.222C66.5516 314.073 66.2235 313.998 65.8485 313.998C65.4778 313.998 65.1497 314.073 64.8641 314.222C64.5786 314.367 64.3549 314.57 64.193 314.829C64.0353 315.085 63.9565 315.383 63.9565 315.724C63.9565 316.07 64.0374 316.374 64.1994 316.638C64.3613 316.903 64.585 317.109 64.8705 317.258C65.156 317.408 65.482 317.482 65.8485 317.482ZM79.6709 322.73V322.04C79.6709 321.516 79.7817 321.034 80.0033 320.595C80.2291 320.152 80.5551 319.798 80.9812 319.534C81.4116 319.266 81.9358 319.131 82.5537 319.131C83.1801 319.131 83.7064 319.263 84.1325 319.528C84.5629 319.792 84.8868 320.146 85.1041 320.589C85.3257 321.028 85.4365 321.511 85.4365 322.04V322.73C85.4365 323.254 85.3257 323.738 85.1041 324.181C84.8825 324.62 84.5565 324.972 84.1261 325.236C83.6957 325.504 83.1716 325.638 82.5537 325.638C81.9273 325.638 81.401 325.504 80.9748 325.236C80.5487 324.972 80.2248 324.62 80.0033 324.181C79.7817 323.738 79.6709 323.254 79.6709 322.73ZM81.531 322.04V322.73C81.531 323.033 81.6034 323.318 81.7483 323.587C81.8974 323.855 82.1659 323.989 82.5537 323.989C82.9415 323.989 83.2057 323.857 83.3463 323.593C83.4912 323.329 83.5636 323.041 83.5636 322.73V322.04C83.5636 321.729 83.4954 321.439 83.3591 321.17C83.2227 320.902 82.9543 320.768 82.5537 320.768C82.1702 320.768 81.9038 320.902 81.7547 321.17C81.6055 321.439 81.531 321.729 81.531 322.04ZM72.9528 315.239V314.548C72.9528 314.02 73.0658 313.536 73.2916 313.097C73.5175 312.654 73.8435 312.3 74.2696 312.036C74.7 311.772 75.2199 311.64 75.8293 311.64C76.4599 311.64 76.9883 311.772 77.4145 312.036C77.8406 312.3 78.1645 312.654 78.3861 313.097C78.6077 313.536 78.7185 314.02 78.7185 314.548V315.239C78.7185 315.767 78.6055 316.251 78.3797 316.69C78.1581 317.128 77.8321 317.48 77.4017 317.744C76.9756 318.004 76.4514 318.134 75.8293 318.134C75.2071 318.134 74.6808 318.002 74.2504 317.738C73.8243 317.469 73.5004 317.118 73.2788 316.683C73.0615 316.244 72.9528 315.763 72.9528 315.239ZM74.8257 314.548V315.239C74.8257 315.55 74.8981 315.837 75.043 316.101C75.1922 316.366 75.4543 316.498 75.8293 316.498C76.2213 316.498 76.4876 316.366 76.6283 316.101C76.7731 315.837 76.8456 315.55 76.8456 315.239V314.548C76.8456 314.237 76.7774 313.947 76.641 313.679C76.5047 313.41 76.2341 313.276 75.8293 313.276C75.45 313.276 75.1879 313.413 75.043 313.685C74.8981 313.958 74.8257 314.246 74.8257 314.548ZM73.7966 325.185L82.7966 312.094H84.4713L75.4713 325.185H73.7966Z" fill="#2E2D2C"/>
<rect x="0.0281982" y="10.2969" width="86.6432" height="86.6432" rx="43.3216" fill="white"/>
<path d="M25.4109 60.6182V58.6238L30.0707 54.3092C30.467 53.9257 30.7994 53.5805 31.0679 53.2737C31.3406 52.9669 31.5473 52.6665 31.6879 52.3724C31.8285 52.0741 31.8989 51.7524 31.8989 51.4072C31.8989 51.0237 31.8115 50.6934 31.6368 50.4165C31.4621 50.1352 31.2234 49.92 30.9209 49.7709C30.6183 49.6175 30.2753 49.5407 29.8918 49.5407C29.4912 49.5407 29.1418 49.6217 28.8435 49.7836C28.5452 49.9456 28.3151 50.1778 28.1531 50.4804C27.9912 50.7829 27.9102 51.143 27.9102 51.5606H25.2831C25.2831 50.7041 25.477 49.9605 25.8648 49.3298C26.2526 48.6991 26.7959 48.2112 27.4947 47.866C28.1936 47.5209 28.999 47.3483 29.9109 47.3483C30.8484 47.3483 31.6645 47.5145 32.3591 47.8469C33.058 48.175 33.6013 48.6309 33.9891 49.2148C34.3768 49.7986 34.5707 50.4676 34.5707 51.2219C34.5707 51.7162 34.4727 52.2041 34.2767 52.6856C34.0849 53.1672 33.7419 53.702 33.2476 54.29C32.7533 54.8738 32.0565 55.5748 31.1574 56.393L29.2462 58.2659V58.3554H34.7433V60.6182H25.4109ZM41.1701 60.7971C40.2667 60.7971 39.4613 60.6309 38.7539 60.2986C38.0508 59.9662 37.4925 59.5081 37.0792 58.9243C36.6658 58.3405 36.4506 57.6714 36.4336 56.9172H39.1182C39.1481 57.4243 39.3611 57.8355 39.7574 58.1508C40.1537 58.4662 40.6246 58.6238 41.1701 58.6238C41.6047 58.6238 41.9883 58.528 42.3206 58.3362C42.6573 58.1402 42.9194 57.8696 43.1069 57.5244C43.2986 57.175 43.3945 56.7744 43.3945 56.3227C43.3945 55.8625 43.2965 55.4577 43.1005 55.1082C42.9087 54.7588 42.6424 54.4861 42.3015 54.29C41.9606 54.094 41.5706 53.9939 41.1317 53.9896C40.7482 53.9896 40.3753 54.0684 40.0131 54.2261C39.6552 54.3838 39.376 54.599 39.1758 54.8717L36.7148 54.4307L37.3348 47.5273H45.3377V49.79H39.6168L39.278 53.0692H39.3547C39.5848 52.7453 39.9321 52.4768 40.3966 52.2638C40.8611 52.0507 41.381 51.9442 41.9563 51.9442C42.7446 51.9442 43.4478 52.1295 44.0657 52.5003C44.6836 52.871 45.1715 53.3802 45.5294 54.028C45.8874 54.6714 46.0643 55.4129 46.06 56.2524C46.0643 57.1345 45.8597 57.9186 45.4464 58.6047C45.0373 59.2865 44.4641 59.8234 43.7269 60.2155C42.9939 60.6032 42.1417 60.7971 41.1701 60.7971ZM54.7959 58.1636V57.4733C54.7959 56.9491 54.9067 56.4676 55.1283 56.0287C55.3541 55.5855 55.6801 55.2318 56.1062 54.9676C56.5366 54.6991 57.0608 54.5649 57.6787 54.5649C58.3051 54.5649 58.8314 54.697 59.2575 54.9612C59.6879 55.2254 60.0118 55.5791 60.2291 56.0223C60.4507 56.4612 60.5615 56.9449 60.5615 57.4733V58.1636C60.5615 58.6878 60.4507 59.1714 60.2291 59.6146C60.0075 60.0535 59.6815 60.4051 59.2511 60.6693C58.8207 60.9378 58.2966 61.072 57.6787 61.072C57.0523 61.072 56.526 60.9378 56.0998 60.6693C55.6737 60.4051 55.3498 60.0535 55.1283 59.6146C54.9067 59.1714 54.7959 58.6878 54.7959 58.1636ZM56.656 57.4733V58.1636C56.656 58.4662 56.7284 58.7517 56.8733 59.0202C57.0224 59.2886 57.2909 59.4229 57.6787 59.4229C58.0665 59.4229 58.3307 59.2907 58.4713 59.0265C58.6162 58.7623 58.6886 58.4747 58.6886 58.1636V57.4733C58.6886 57.1622 58.6204 56.8724 58.4841 56.604C58.3477 56.3355 58.0793 56.2013 57.6787 56.2013C57.2952 56.2013 57.0288 56.3355 56.8797 56.604C56.7305 56.8724 56.656 57.1622 56.656 57.4733ZM48.0778 50.6721V49.9818C48.0778 49.4534 48.1908 48.9697 48.4166 48.5308C48.6425 48.0876 48.9685 47.7339 49.3946 47.4697C49.825 47.2055 50.3449 47.0734 50.9543 47.0734C51.5849 47.0734 52.1133 47.2055 52.5395 47.4697C52.9656 47.7339 53.2895 48.0876 53.5111 48.5308C53.7327 48.9697 53.8435 49.4534 53.8435 49.9818V50.6721C53.8435 51.2006 53.7305 51.6842 53.5047 52.1231C53.2831 52.5621 52.9571 52.9136 52.5267 53.1778C52.1006 53.4378 51.5764 53.5677 50.9543 53.5677C50.3321 53.5677 49.8058 53.4356 49.3754 53.1714C48.9493 52.903 48.6254 52.5514 48.4038 52.1167C48.1865 51.6778 48.0778 51.1963 48.0778 50.6721ZM49.9507 49.9818V50.6721C49.9507 50.9832 50.0231 51.2709 50.168 51.5351C50.3172 51.7993 50.5793 51.9314 50.9543 51.9314C51.3463 51.9314 51.6126 51.7993 51.7533 51.5351C51.8981 51.2709 51.9706 50.9832 51.9706 50.6721V49.9818C51.9706 49.6707 51.9024 49.3809 51.766 49.1125C51.6297 48.844 51.3591 48.7098 50.9543 48.7098C50.575 48.7098 50.3129 48.8461 50.168 49.1189C50.0231 49.3916 49.9507 49.6792 49.9507 49.9818ZM48.9216 60.6182L57.9216 47.5273H59.5963L50.5963 60.6182H48.9216Z" fill="#2E2D2C"/>
</svg>
