<svg width="28" height="32" viewBox="0 0 28 32" fill="none" xmlns="http://www.w3.org/2000/svg">
<path d="M24.818 13.059C24.818 16.7578 23.0977 20.0548 20.4136 22.1935C18.4193 23.7826 15.8929 24.7323 13.1447 24.7323C6.69774 24.7323 1.47144 19.506 1.47144 13.059C1.47144 6.61205 6.69774 1.38574 13.1447 1.38574C19.5917 1.38574 24.818 6.61205 24.818 13.059Z" fill="#B4DAC3"/>
<path d="M20.4136 22.1935C23.0977 20.0548 24.818 16.7578 24.818 13.059C24.818 6.61205 19.5917 1.38574 13.1447 1.38574C6.69774 1.38574 1.47144 6.61205 1.47144 13.059C1.47144 19.506 6.69774 24.7323 13.1447 24.7323C15.8929 24.7323 18.4193 23.7826 20.4136 22.1935ZM20.4136 22.1935L27.3407 30.6914M6.1765 16.6441H8.28197M20.4136 16.6441H18.8162M8.28197 16.6441V10.232M8.28197 16.6441H11.2488M11.2488 16.6441V11.9547M11.2488 16.6441H14.0241M14.0241 16.6441V6.07922M14.0241 16.6441H16.559M16.559 16.6441V10.929M16.559 16.6441H18.8162M18.8162 16.6441V8.96947" stroke="#2E2D2C" stroke-width="1.5"/>
</svg>
