<svg width="33" height="27" viewBox="0 0 33 27" fill="none" xmlns="http://www.w3.org/2000/svg">
<path d="M13.9194 26.1914C7.01587 26.1914 1.41943 20.595 1.41943 13.6914C1.41943 6.78785 7.01587 1.19141 13.9194 1.19141C18.1213 1.19141 21.839 3.26469 24.1053 6.44408" stroke="#2E2D2C" stroke-width="1.5"/>
<ellipse cx="13.9194" cy="13.6914" rx="5.14128" ry="12.5" stroke="#2E2D2C" stroke-width="1.5"/>
<path d="M24.663 6.01953C20.3779 8.67463 11.8631 9.78683 3.81152 6.43204" stroke="#2E2D2C" stroke-width="1.5"/>
<path d="M3.81152 21.0049C8.90539 18.8825 14.3085 18.8861 18.4531 19.5291" stroke="#2E2D2C" stroke-width="1.5"/>
<path d="M1.52417 13.6738H19.0607" stroke="#2E2D2C" stroke-width="1.5"/>
<circle cx="26.016" cy="14.3453" r="2.72814" stroke="#2E2D2C" stroke-width="1.5"/>
<path d="M32.1124 25.9727C32.1124 24.3558 31.4701 21.3938 30.3268 20.2505C29.1835 19.1072 27.6328 18.4648 26.0159 18.4648C24.399 18.4648 22.8484 19.1072 21.7051 20.2505C20.5617 21.3938 19.9194 24.3558 19.9194 25.9727L32.1124 25.9727Z" stroke="#2E2D2C" stroke-width="1.5"/>
</svg>
