<svg width="35" height="26" viewBox="0 0 35 26" fill="none" xmlns="http://www.w3.org/2000/svg">
<path d="M31.6411 24.415C29.5622 24.415 29.1177 22.9838 29.1554 22.2683V20.4605M31.6411 24.415C33.72 24.415 33.7878 21.7787 33.5618 20.4605H29.1554M31.6411 24.415H12.8856C12.283 24.6033 10.5129 24.415 10.5129 21.9171V0.914062H29.1554V20.4605M13.5086 4.3021H25.7544M25.7544 7.11117H13.5086M18.1173 10.1836H25.7544M25.7544 12.9488H18.1173" stroke="#2E2D2C" stroke-width="1.5"/>
<path fill-rule="evenodd" clip-rule="evenodd" d="M12.5402 5.76562H8.48603V7.29324C7.74868 7.48302 7.05192 7.77391 6.41141 8.15026L5.334 7.07285L2.46726 9.93958L3.53761 11.0099C3.1562 11.6518 2.86086 12.3508 2.6675 13.091H1.16162V17.1451H2.65303C2.84246 17.8922 3.1356 18.598 3.51624 19.2462L2.46734 20.2951L5.33408 23.1618L6.37524 22.1207C7.02566 22.5074 7.73478 22.8057 8.48603 22.999V24.4688H12.5402V22.999C13.2908 22.8058 13.9994 22.5079 14.6493 22.1216L15.6924 23.1647L18.5591 20.298L17.509 19.2478C17.8901 18.5992 18.1836 17.8929 18.3732 17.1451H19.8647V13.091H18.3587C18.1652 12.3501 17.8695 11.6506 17.4876 11.0083L18.5592 9.93671L15.6924 7.06997L14.6131 8.14928C13.9731 7.77341 13.2769 7.48286 12.5402 7.29325V5.76562ZM10.5131 16.4924C11.2572 16.4924 11.8604 15.8893 11.8604 15.1452C11.8604 14.4012 11.2572 13.798 10.5131 13.798C9.76908 13.798 9.16591 14.4012 9.16591 15.1452C9.16591 15.8893 9.76908 16.4924 10.5131 16.4924Z" fill="#B4DAC3"/>
<path d="M8.48603 5.76562V5.01562H7.73603V5.76562H8.48603ZM12.5402 5.76562H13.2902V5.01562H12.5402V5.76562ZM8.48603 7.29324L8.67297 8.01957L9.23603 7.87465V7.29324H8.48603ZM6.41141 8.15026L5.88108 8.68059L6.29124 9.09075L6.79135 8.7969L6.41141 8.15026ZM5.334 7.07285L5.86433 6.54252L5.334 6.01219L4.80367 6.54252L5.334 7.07285ZM2.46726 9.93958L1.93693 9.40925L1.4066 9.93958L1.93693 10.4699L2.46726 9.93958ZM3.53761 11.0099L4.18236 11.3931L4.4802 10.8919L4.06794 10.4796L3.53761 11.0099ZM2.6675 13.091V13.841H3.24674L3.39314 13.2805L2.6675 13.091ZM1.16162 13.091V12.341H0.411621V13.091H1.16162ZM1.16162 17.1451H0.411621V17.8951H1.16162V17.1451ZM2.65303 17.1451L3.38003 16.9608L3.23661 16.3951H2.65303V17.1451ZM3.51624 19.2462L4.04657 19.7765L4.45663 19.3665L4.16297 18.8664L3.51624 19.2462ZM2.46734 20.2951L1.93701 19.7648L1.40668 20.2951L1.93701 20.8254L2.46734 20.2951ZM5.33408 23.1618L4.80375 23.6921L5.33408 24.2225L5.86441 23.6921L5.33408 23.1618ZM6.37524 22.1207L6.75854 21.476L6.25728 21.178L5.84491 21.5903L6.37524 22.1207ZM8.48603 22.999H9.23603V22.4176L8.67297 22.2727L8.48603 22.999ZM8.48603 24.4688H7.73603V25.2188H8.48603V24.4688ZM12.5402 24.4688V25.2188H13.2902V24.4688H12.5402ZM12.5402 22.999L12.3533 22.2727L11.7902 22.4176V22.999H12.5402ZM14.6493 22.1216L15.1796 21.5913L14.7674 21.179L14.2662 21.4769L14.6493 22.1216ZM15.6924 23.1647L15.162 23.695L15.6924 24.2253L16.2227 23.695L15.6924 23.1647ZM18.5591 20.298L19.0894 20.8283L19.6198 20.298L19.0894 19.7676L18.5591 20.298ZM17.509 19.2478L16.8624 18.8679L16.5685 19.368L16.9787 19.7782L17.509 19.2478ZM18.3732 17.1451V16.3951H17.7896L17.6462 16.9608L18.3732 17.1451ZM19.8647 17.1451V17.8951H20.6147V17.1451H19.8647ZM19.8647 13.091H20.6147V12.341H19.8647V13.091ZM18.3587 13.091L17.6331 13.2805L17.7795 13.841H18.3587V13.091ZM17.4876 11.0083L16.9573 10.4779L16.5449 10.8903L16.843 11.3916L17.4876 11.0083ZM18.5592 9.93671L19.0895 10.467L19.6198 9.93671L19.0895 9.40638L18.5592 9.93671ZM15.6924 7.06997L16.2228 6.53964L15.6924 6.00931L15.1621 6.53964L15.6924 7.06997ZM14.6131 8.14928L14.2334 8.79601L14.7334 9.08967L15.1435 8.67961L14.6131 8.14928ZM12.5402 7.29325H11.7902V7.87465L12.3533 8.01957L12.5402 7.29325ZM8.48603 6.51562H12.5402V5.01562H8.48603V6.51562ZM9.23603 7.29324V5.76562H7.73603V7.29324H9.23603ZM6.79135 8.7969C7.37253 8.45541 8.00444 8.19164 8.67297 8.01957L8.29909 6.56691C7.49291 6.77441 6.7313 7.09242 6.03147 7.50362L6.79135 8.7969ZM4.80367 7.60318L5.88108 8.68059L6.94174 7.61993L5.86433 6.54252L4.80367 7.60318ZM2.99759 10.4699L5.86433 7.60318L4.80367 6.54252L1.93693 9.40925L2.99759 10.4699ZM4.06794 10.4796L2.99759 9.40925L1.93693 10.4699L3.00728 11.5403L4.06794 10.4796ZM3.39314 13.2805C3.56846 12.6094 3.83627 11.9755 4.18236 11.3931L2.89286 10.6268C2.47613 11.3281 2.15326 12.0921 1.94185 12.9014L3.39314 13.2805ZM1.16162 13.841H2.6675V12.341H1.16162V13.841ZM1.91162 17.1451V13.091H0.411621V17.1451H1.91162ZM2.65303 16.3951H1.16162V17.8951H2.65303V16.3951ZM4.16297 18.8664C3.81759 18.2783 3.55177 17.6382 3.38003 16.9608L1.92604 17.3295C2.13314 18.1463 2.45362 18.9178 2.86952 19.626L4.16297 18.8664ZM2.99767 20.8254L4.04657 19.7765L2.98591 18.7159L1.93701 19.7648L2.99767 20.8254ZM5.86441 22.6315L2.99767 19.7648L1.93701 20.8254L4.80375 23.6921L5.86441 22.6315ZM5.84491 21.5903L4.80375 22.6315L5.86441 23.6921L6.90557 22.651L5.84491 21.5903ZM8.67297 22.2727C7.99184 22.0974 7.34872 21.8269 6.75854 21.476L5.99195 22.7653C6.7026 23.1878 7.47771 23.514 8.29909 23.7254L8.67297 22.2727ZM9.23603 24.4688V22.999H7.73603V24.4688H9.23603ZM12.5402 23.7188H8.48603V25.2188H12.5402V23.7188ZM11.7902 22.999V24.4688H13.2902V22.999H11.7902ZM14.2662 21.4769C13.6764 21.8274 13.0338 22.0976 12.3533 22.2727L12.7272 23.7254C13.5478 23.5141 14.3223 23.1884 15.0325 22.7664L14.2662 21.4769ZM16.2227 22.6344L15.1796 21.5913L14.119 22.652L15.162 23.695L16.2227 22.6344ZM18.0288 19.7676L15.162 22.6344L16.2227 23.695L19.0894 20.8283L18.0288 19.7676ZM16.9787 19.7782L18.0288 20.8283L19.0894 19.7676L18.0393 18.7175L16.9787 19.7782ZM17.6462 16.9608C17.4743 17.6388 17.2082 18.2793 16.8624 18.8679L18.1556 19.6278C18.5721 18.9191 18.8929 18.147 19.1002 17.3295L17.6462 16.9608ZM19.8647 16.3951H18.3732V17.8951H19.8647V16.3951ZM19.1147 13.091V17.1451H20.6147V13.091H19.1147ZM18.3587 13.841H19.8647V12.341H18.3587V13.841ZM16.843 11.3916C17.1895 11.9744 17.4576 12.6088 17.6331 13.2805L19.0844 12.9014C18.8728 12.0914 18.5495 11.3268 18.1323 10.625L16.843 11.3916ZM18.0289 9.40638L16.9573 10.4779L18.018 11.5386L19.0895 10.467L18.0289 9.40638ZM15.1621 7.6003L18.0289 10.467L19.0895 9.40638L16.2228 6.53964L15.1621 7.6003ZM15.1435 8.67961L16.2228 7.6003L15.1621 6.53964L14.0828 7.61895L15.1435 8.67961ZM12.3533 8.01957C13.0212 8.19149 13.6526 8.45496 14.2334 8.79601L14.9929 7.50255C14.2936 7.09187 13.5326 6.77423 12.7272 6.56692L12.3533 8.01957ZM11.7902 5.76562V7.29325H13.2902V5.76562H11.7902ZM11.1104 15.1452C11.1104 15.475 10.843 15.7424 10.5131 15.7424V17.2424C11.6714 17.2424 12.6104 16.3035 12.6104 15.1452H11.1104ZM10.5131 14.548C10.843 14.548 11.1104 14.8154 11.1104 15.1452H12.6104C12.6104 13.9869 11.6714 13.048 10.5131 13.048V14.548ZM9.91591 15.1452C9.91591 14.8154 10.1833 14.548 10.5131 14.548V13.048C9.35487 13.048 8.41591 13.9869 8.41591 15.1452H9.91591ZM10.5131 15.7424C10.1833 15.7424 9.91591 15.475 9.91591 15.1452H8.41591C8.41591 16.3035 9.35487 17.2424 10.5131 17.2424V15.7424Z" fill="#2E2D2C"/>
</svg>
