<svg width="24" height="27" viewBox="0 0 24 27" fill="none" xmlns="http://www.w3.org/2000/svg">
<path d="M0.933838 8.91334V25.6914H18.2955V1.69141H7.77952M0.933838 8.91334L7.77952 1.69141M0.933838 8.91334H7.77952V1.69141" stroke="#2E2D2C" stroke-width="1.5"/>
<path d="M21.8062 14.5816C21.8062 16.1534 21.0752 17.5544 19.9346 18.4632C19.0871 19.1385 18.0136 19.5421 16.8457 19.5421C14.1061 19.5421 11.8853 17.3212 11.8853 14.5816C11.8853 11.842 14.1061 9.62109 16.8457 9.62109C19.5853 9.62109 21.8062 11.842 21.8062 14.5816Z" fill="#B4DAC3"/>
<path d="M19.9346 18.4632C21.0752 17.5544 21.8062 16.1534 21.8062 14.5816C21.8062 11.842 19.5853 9.62109 16.8457 9.62109C14.1061 9.62109 11.8853 11.842 11.8853 14.5816C11.8853 17.3212 14.1061 19.5421 16.8457 19.5421C18.0136 19.5421 19.0871 19.1385 19.9346 18.4632ZM19.9346 18.4632L22.8783 22.0743" stroke="#2E2D2C" stroke-width="1.5"/>
</svg>
