<svg width="27" height="29" viewBox="0 0 27 29" fill="none" xmlns="http://www.w3.org/2000/svg">
<path d="M8.42128 1.81631C11.8998 0.444155 21.2738 0.85286 23.2029 8.23623V12.061L25.1986 15.2206L23.2029 16.4678L23.702 18.879M23.702 18.879H20.1445M23.702 18.879L22.8188 20.1576C23.3216 22.7091 22.4239 26.2758 15.5478 22.2906M13.1156 20.7318C13.9993 21.3459 14.8081 21.862 15.5478 22.2906M15.5478 22.2906V28.1858H4.37644C5.31896 25.8296 7.42249 19.2303 5.46903 15.2206M5.46903 15.2206C5.23342 14.1674 5.25052 12.061 7.20383 12.061C9.15715 12.061 9.2172 14.1674 9.00307 15.2206H12.473V11.4786C13.4979 11.5643 15.5478 11.273 15.5478 9.42233C15.5478 7.57168 13.4979 7.53741 12.473 7.75161V4.08888H9.00307C9.11017 3.17099 8.90025 1.33523 7.20383 1.33523C5.50741 1.33523 5.34046 3.17099 5.46903 4.08888H1.61353V7.75161C2.66308 7.40889 4.76219 7.26324 4.76219 9.42233C4.76219 11.5814 2.66308 11.6928 1.61353 11.4786V15.2206H5.46903Z" stroke="#2E2D2C" stroke-width="1.5"/>
</svg>
