<svg width="35" height="26" viewBox="0 0 35 26" fill="none" xmlns="http://www.w3.org/2000/svg">
<path d="M31.3481 24.415C29.2692 24.415 28.8248 22.9838 28.8624 22.2683V20.4605M31.3481 24.415C33.427 24.415 33.4948 21.7787 33.2688 20.4605H28.8624M31.3481 24.415H12.5926C11.99 24.6033 10.22 24.415 10.22 21.9171V0.914062H28.8624V20.4605M13.2157 4.3021H25.4615M25.4615 7.11117H13.2157M17.8243 10.1836H25.4615M25.4615 12.9488H17.8243" stroke="#2E2D2C" stroke-width="1.5"/>
<path d="M6.08471 7.14728L1.45581 5.69506C5.21411 17.5483 12.2819 19.2936 15.3905 18.6829C15.4049 18.68 15.4192 18.6772 15.4334 18.6742C16.1595 13.0106 14.6468 10.0215 13.7997 9.23487V11.867C12.7105 6.78426 7.47649 4.3639 4.99563 3.78906L6.08471 7.14728Z" fill="#B4DAC3"/>
<path d="M7.537 9.23487C10.0179 11.3527 15.3063 16.8045 16.6133 21.6694M1.45581 5.69506L6.08471 7.14728L4.99563 3.78906C7.47649 4.3639 12.7105 6.78426 13.7997 11.867V9.23487C14.6468 10.0215 16.1595 13.0106 15.4334 18.6742C12.3474 19.3096 5.23152 17.6032 1.45581 5.69506Z" stroke="#2E2D2C" stroke-width="1.5"/>
</svg>
