<svg width="31" height="34" viewBox="0 0 31 34" fill="none" xmlns="http://www.w3.org/2000/svg">
<path d="M20.1471 23.6367L19.7874 22.9785L19.3971 23.1919V23.6367H20.1471ZM20.1471 30.7777V31.5277H20.8971V30.7777H20.1471ZM17.8792 30.7777V30.0277H17.1292V30.7777H17.8792ZM17.8792 33.2074V33.9574H18.6292V33.2074H17.8792ZM12.9656 33.2074H12.2156V33.9574H12.9656V33.2074ZM12.9656 30.7777H13.7156V30.0277H12.9656V30.7777ZM10.6978 30.7777H9.94779V31.5277H10.6978V30.7777ZM10.6978 23.7389H11.4478V23.283L11.0431 23.0731L10.6978 23.7389ZM20.5067 24.2948C23.8633 22.4603 26.1427 18.8957 26.1427 14.7976H24.6427C24.6427 18.3255 22.682 21.3965 19.7874 22.9785L20.5067 24.2948ZM20.8971 30.7777V23.6367H19.3971V30.7777H20.8971ZM17.8792 31.5277H20.1471V30.0277H17.8792V31.5277ZM17.1292 30.7777V33.2074H18.6292V30.7777H17.1292ZM17.8792 32.4574H12.9656V33.9574H17.8792V32.4574ZM13.7156 33.2074V30.7777H12.2156V33.2074H13.7156ZM10.6978 31.5277H12.9656V30.0277H10.6978V31.5277ZM9.94779 23.7389V30.7777H11.4478V23.7389H9.94779ZM4.51025 14.7976C4.51025 18.9791 6.88321 22.6051 10.3524 24.4047L11.0431 23.0731C8.05153 21.5213 6.01025 18.3972 6.01025 14.7976H4.51025ZM15.3265 3.98145C9.35283 3.98145 4.51025 8.82402 4.51025 14.7976H6.01025C6.01025 9.65245 10.1813 5.48145 15.3265 5.48145V3.98145ZM26.1427 14.7976C26.1427 8.82402 21.3001 3.98145 15.3265 3.98145V5.48145C20.4716 5.48145 24.6427 9.65245 24.6427 14.7976H26.1427Z" fill="#2E2D2C"/>
<path d="M10.7759 25.5401H15.4251M20.0744 25.5401H15.4251M15.4251 25.5401V21.7605M15.4251 21.7605L17.338 19.8477M15.4251 21.7605L13.5123 19.8477" stroke="#2E2D2C" stroke-width="1.5"/>
<path d="M10.7759 27.8906H20.0744" stroke="#2E2D2C" stroke-width="1.5"/>
<path d="M0.76123 14.8252H3.71978" stroke="#2E2D2C" stroke-width="1.5"/>
<path d="M27.092 14.8252H30.0506" stroke="#2E2D2C" stroke-width="1.5"/>
<path d="M15.406 0.177734L15.406 3.13628" stroke="#2E2D2C" stroke-width="1.5"/>
<path d="M25.7612 4.46973L23.6692 6.56174" stroke="#2E2D2C" stroke-width="1.5"/>
<path d="M7.14246 23.0869L5.05045 25.1789" stroke="#2E2D2C" stroke-width="1.5"/>
<path d="M25.7615 25.1768L23.6695 23.0847" stroke="#2E2D2C" stroke-width="1.5"/>
<path d="M7.1427 6.55957L5.05069 4.46756" stroke="#2E2D2C" stroke-width="1.5"/>
</svg>
