<svg width="35" height="23" viewBox="0 0 35 23" fill="none" xmlns="http://www.w3.org/2000/svg">
<path d="M4.27548 1.6935L7.06187 2.24808M30.7828 6.96926L28.3043 6.47597M17.7865 1.69141V21.6914M21.5181 21.6914H13.9262M28.3043 6.47597L23.6624 15.6132H32.5753L28.3043 6.47597ZM28.3043 6.47597L7.06187 2.24808M7.06187 2.24808L2.55273 11.6593H11.1976L7.06187 2.24808Z" stroke="#2E2D2C" stroke-width="1.5"/>
<path d="M0.870361 11.6542C0.870361 12.4095 1.01914 13.1575 1.30819 13.8553C1.59725 14.5532 2.02093 15.1873 2.55504 15.7214C3.08915 16.2555 3.72322 16.6791 4.42107 16.9682C5.11892 17.2573 5.86686 17.406 6.62221 17.406C7.37755 17.406 8.1255 17.2573 8.82334 16.9682C9.52119 16.6791 10.1553 16.2555 10.6894 15.7214C11.2235 15.1873 11.6472 14.5532 11.9362 13.8553C12.2253 13.1575 12.3741 12.4095 12.3741 11.6542H6.62221L0.870361 11.6542Z" stroke="#2E2D2C" stroke-width="1.5"/>
<path d="M22.438 15.6239C22.438 16.3793 22.5868 17.1272 22.8758 17.8251C23.1649 18.5229 23.5886 19.157 24.1227 19.6911C24.6568 20.2252 25.2909 20.6489 25.9887 20.9379C26.6865 21.227 27.4345 21.3758 28.1898 21.3758C28.9452 21.3758 29.6931 21.227 30.391 20.9379C31.0888 20.6489 31.7229 20.2252 32.257 19.6911C32.7911 19.157 33.2148 18.5229 33.5038 17.8251C33.7929 17.1272 33.9417 16.3793 33.9417 15.6239H28.1898L22.438 15.6239Z" stroke="#2E2D2C" stroke-width="1.5"/>
</svg>
